<?xml version="1.0" encoding="UTF-8"?>
<svg width="400px" height="400px" viewBox="0 0 400 400" version="1.1" xmlns="http://www.w3.org/2000/svg" xmlns:xlink="http://www.w3.org/1999/xlink">
    <title>icon</title>
    <g id="Favicons" stroke="none" stroke-width="1" fill="none" fill-rule="evenodd">
        <g id="XState-Icon">
            <rect fill="#FFFFFF" x="0" y="0" width="400" height="400"></rect>
            <g id="logomark-white">
                <rect id="Rectangle" fill="#000000" x="0" y="0" width="400" height="400"></rect>
                <path d="M89.5418378,82.0002378 L136.603021,82.3828561 C141.174599,82.4194178 145.477413,84.5495805 148.279597,88.1634941 L316.416778,304.949486 C320.227428,309.85803 316.726867,317.000238 310.52164,317.000238 L261.251934,317.000238 C256.597152,317.000238 252.207669,314.828621 249.382414,311.129977 L202.490056,246.912156 L150.591483,311.329904 C147.758222,314.912017 143.442877,317.000238 138.877008,317.000238 L89.4798199,317.000238 C83.2401389,317.000238 79.7533597,309.792537 83.6225821,304.894334 L165.951228,200.560194 L83.550228,94.0096254 C79.7809231,89.0700581 83.3331656,81.9519796 89.5452832,82.0036848 L89.5418378,82.0002378 Z M310.432909,82.0002378 C316.725177,81.9522149 320.272357,89.1882283 316.369077,94.1076143 L242.652729,187.000238 C237.394191,182.873745 196.587791,148.803464 235.955958,103.184519 C235.955958,103.184519 238.898842,99.7519233 241.999076,96.1264111 L242.734913,95.2657241 C245.433721,92.1083355 248.085347,88.9983439 248.86548,88.0574935 C252.758389,83.3587387 255.963298,82.4210562 260.50272,82.3865826 L310.432909,82.0002378 Z" id="x" fill="#FFFFFF"></path>
            </g>
        </g>
    </g>
</svg>