<?xml version="1.0" encoding="UTF-8"?>
<svg width="212px" height="198px" viewBox="0 0 212 198" version="1.1" xmlns="http://www.w3.org/2000/svg" xmlns:xlink="http://www.w3.org/1999/xlink">
    <title>asleep</title>
    <g id="Dog-states" stroke="none" stroke-width="1" fill="none" fill-rule="evenodd">
        <g id="for-markdown-descriptions" transform="translate(-33.000000, -48.000000)">
            <g id="asleep" transform="translate(33.000000, 48.541996)">
                <path d="M105.559529,196.84059 C58.001529,196.84059 19.459529,188.55059 19.459529,178.31959 C19.459529,173.65059 27.499529,169.38859 40.740529,166.13159 C40.100529,165.22059 39.766529,164.28859 39.766529,163.33959 C39.766529,153.10459 78.308529,144.81359 125.866529,144.81359 C173.410529,144.81359 211.953529,153.10459 211.953529,163.33959 C211.953529,168.00659 203.912529,172.26759 190.670529,175.52459 C191.311529,176.43659 191.646529,177.36959 191.646529,178.31959 C191.646529,188.55059 153.103529,196.84059 105.559529,196.84059 L105.559529,196.84059 Z" id="Clip-148" fill-opacity="0.249950489" fill="#000000"></path>
                <path d="M154.862529,122.65759 C149.322529,122.01459 157.634529,115.04359 160.420529,114.66459 C171.339529,113.20059 187.658529,121.63159 195.765529,130.09459 C197.497529,131.90359 199.217529,134.81559 197.969529,136.99159 C196.749529,139.12159 193.832529,138.60459 191.794529,137.48459 C179.041529,130.47559 166.008529,123.95059 154.862529,122.65759" id="Fill-150" fill="#E4E4DF"></path>
                <path d="M75.864529,108.19959 C76.134529,107.86159 76.409529,107.52559 76.688529,107.19059 C87.517529,94.2175901 102.366529,88.0545901 118.072529,89.7605901 C133.197529,91.4035901 158.865529,101.53959 173.692529,121.96359 C185.478529,138.19759 162.432529,170.08659 146.738529,176.99959 C140.025529,179.95759 132.721529,180.53059 125.548529,181.07059 C119.399529,181.53459 113.250529,181.99659 107.101529,182.45959 C93.281529,183.50159 77.015529,183.34759 68.835529,170.84159 C65.846529,166.27059 64.433529,160.58059 63.939529,154.90759 C62.368529,136.82359 65.073529,121.69559 75.864529,108.19959" id="Fill-151" fill="#FFFFFE"></path>
                <path d="M169.016529,117.47659 C177.391529,124.82859 175.338529,131.16459 189.866529,140.98659 C193.870529,143.69359 199.741529,146.19859 203.642529,149.29159 C209.012529,153.55059 209.998529,156.69659 210.090529,161.92759 C210.225529,169.65159 200.672529,169.25559 198.315529,167.70659 C185.033529,158.97459 168.768529,166.68659 154.032529,160.83959 C150.945529,159.61559 147.873529,158.22159 145.157529,156.08059 C140.106529,152.09759 136.602529,145.75159 134.246529,139.01959 C133.392529,136.57959 132.663529,134.02459 132.568529,131.36359 C132.326529,124.59159 137.207529,112.21159 142.898529,109.59059 C151.505529,105.62659 162.223529,111.51459 169.016529,117.47659" id="Fill-152" fill="#FFFFFE"></path>
                <path d="M138.982529,181.40159 C130.304529,182.40759 105.935529,186.22759 103.295529,171.92859 C102.095529,165.41859 103.786529,156.79959 105.043529,150.39659 C106.047529,145.28059 107.386529,140.24359 109.044529,135.34159 C111.655529,127.62359 116.381529,127.51059 123.440529,125.33259 C132.564529,122.51959 163.390529,163.60759 157.183529,167.62259 C150.975529,171.63859 146.078529,180.57959 138.982529,181.40159" id="Fill-153" fill="#C6C1BB"></path>
                <path d="M153.209529,131.17659 C145.519529,138.18759 134.270529,138.18759 134.246529,139.01959 C134.039529,146.28059 140.106529,152.09759 145.157529,156.08059 C147.873529,158.22159 150.945529,159.61559 154.032529,160.83859 C163.718529,164.68259 174.064529,162.66859 183.791529,163.31659 C175.418529,158.34459 157.856529,148.10259 153.209529,131.17659" id="Fill-154" fill="#C6C1BB"></path>
                <path d="M155.264529,179.87559 C156.734529,176.90659 156.960529,173.14259 155.537529,170.18159 C154.397529,167.80759 152.022529,165.46959 149.775529,164.48859 C147.291529,163.40359 144.414529,164.56559 141.706529,164.41259 C136.926529,164.14359 131.135529,164.06759 126.448529,162.99159 C120.735529,161.68059 116.072529,158.23959 110.688529,155.83059 C103.880529,152.78259 96.251529,151.60659 89.360529,154.56559 C83.887529,156.91659 76.171529,164.69559 79.127529,171.84059 C81.865529,178.45759 90.328529,181.91259 95.950529,183.14259 C104.384529,184.98859 113.372529,184.87959 121.936529,185.16859 C127.654529,185.36259 133.376529,185.46959 139.098529,185.48359 C144.389529,185.49659 150.101529,186.79159 154.104529,181.71959 C154.549529,181.15659 154.937529,180.53559 155.264529,179.87559" id="Fill-155" fill="#FFFFFE"></path>
                <path d="M155.537529,170.18159 C154.397529,167.80759 152.022529,165.46959 149.775529,164.48859 C147.291529,163.40359 144.414529,164.56459 141.706529,164.41359 C140.488529,164.34359 139.204529,164.28759 137.889529,164.22459 C140.966529,166.08059 143.340529,169.61059 143.221529,172.59259 C142.811529,182.88059 135.527529,184.47759 134.663529,185.43659 C136.141529,185.45359 137.619529,185.47959 139.098529,185.48359 C144.389529,185.49659 150.101529,186.79159 154.104529,181.72059 C154.549529,181.15659 154.937529,180.53659 155.264529,179.87559 C156.734529,176.90659 156.960529,173.14259 155.537529,170.18159" id="Fill-156" fill="#C6C1BB"></path>
                <path d="M115.096529,173.18259 C119.980529,167.69859 123.206529,160.41259 124.342529,152.76959 C124.634529,150.79759 124.791529,148.76859 124.436529,146.81859 C124.080529,144.86759 123.156529,142.98859 121.665529,141.92959 C120.424529,141.04859 118.902529,140.80059 117.429529,140.82659 C113.962529,140.88559 110.606529,142.34459 107.567529,144.25859 C101.129529,148.31159 95.843529,154.41159 91.491529,161.12759 C88.977529,165.00859 82.242529,175.73659 86.829529,180.20259 C87.351529,180.70859 87.999529,181.01459 88.636529,181.31259 C89.608529,181.76659 90.581529,182.22059 91.553529,182.67459 C95.215529,184.38459 100.136529,182.76259 103.804529,181.26659 C108.024529,179.54459 111.910529,176.75959 115.096529,173.18259" id="Fill-157" fill="#C6C1BB"></path>
                <path d="M171.105529,183.37959 C176.190529,185.23159 182.547529,185.96459 186.027529,181.76959 C188.394529,178.91459 188.810529,174.44959 187.589529,170.82459 C186.369529,167.20059 183.560529,165.07059 180.586529,163.13059 C177.426529,161.06859 173.769529,159.93459 170.406529,158.20859 C160.198529,152.97059 129.564529,116.74059 122.410529,115.09259 C116.727529,113.78559 106.701529,115.64259 105.971529,123.32759 C105.296529,130.44359 115.093529,140.85759 119.284529,145.22459 C126.910529,153.16859 135.789529,158.34659 144.334529,164.65459 C151.895529,170.23359 158.916529,177.10959 167.091529,181.57259 C168.253529,182.20659 169.625529,182.84059 171.105529,183.37959" id="Fill-158" fill="#FFFFFE"></path>
                <path d="M61.710529,162.83459 C65.844529,167.18559 74.369529,172.02159 79.890529,172.96259 C85.147529,173.85959 90.486529,172.98859 94.575529,171.74459 C103.619529,168.99759 111.332529,164.74459 115.169529,157.58559 C120.799529,147.09159 124.277529,133.72359 117.969529,119.15359 C114.819529,111.88259 111.216529,105.23159 102.936529,99.6805901 C81.207529,85.1145901 69.725529,96.7915901 61.004529,107.35359 C52.797529,117.29859 42.715529,133.95559 53.364529,150.71459 C55.656529,154.32259 58.510529,159.46659 61.710529,162.83459" id="Fill-159" fill="#F26200"></path>
                <path d="M20.322529,177.31659 C13.425529,171.81759 8.48152902,163.33259 6.90752902,150.15759 C4.63652902,131.16359 8.88652902,110.78359 20.002529,96.1325901 C31.119529,81.4825901 49.368529,73.4795901 65.887529,77.8975901 C75.849529,80.5605901 84.562529,87.2995901 92.189529,94.9575901 C102.613529,105.42459 111.749529,118.50459 114.459529,133.99359 C120.308529,167.42059 98.712529,188.89759 71.125529,187.99759 C53.603529,187.42759 33.432529,187.76659 20.322529,177.31659" id="Fill-160" fill="#FFFFFE"></path>
                <path d="M71.125529,187.99759 C76.917529,188.18759 82.438529,187.37759 87.504529,185.69059 C87.944529,181.78859 87.035529,177.77859 86.111529,173.95059 C84.821529,168.60059 83.303529,162.90959 79.487529,159.43459 C75.453529,155.76159 69.595529,155.46159 64.639529,157.32559 C59.683529,159.18859 55.452529,162.91659 51.493529,166.77959 C47.622529,170.55559 43.901529,174.52759 40.346529,178.67959 C38.661529,180.64859 36.987529,182.64259 35.237529,184.54559 C46.440529,187.63659 59.377529,187.61659 71.125529,187.99759" id="Fill-161" fill="#D27352"></path>
                <path d="M79.500529,68.9425901 C83.365529,73.9515901 84.765529,79.6895901 79.688529,84.7575901 C71.728529,92.7055901 37.754529,97.7555901 34.633529,98.1325901 C30.704529,98.6035901 26.566529,98.9705901 25.464529,93.1415901 C24.217529,86.5405901 28.951529,77.7495901 31.747529,72.1635901 C43.628529,48.4235901 64.713529,49.7825901 79.500529,68.9425901" id="Fill-162" fill="#A5775D"></path>
                <path d="M35.847529,192.24659 C41.681529,191.08059 46.018529,187.61859 44.953529,180.11359 C43.283529,168.34759 19.804529,140.51459 17.597529,138.02559 C14.818529,134.89359 11.818529,131.70159 7.66152902,135.44359 C2.95552902,139.68059 1.64352902,149.82859 0.647529024,156.13059 C-3.59047098,182.90259 13.526529,196.69359 35.847529,192.24659" id="Fill-163" fill="#A5775D"></path>
                <path d="M114.459529,133.99359 C114.332529,133.27059 114.178529,132.55759 114.024529,131.84459 C112.686529,130.11759 110.539529,129.01459 108.582529,129.68659 C107.967529,129.89759 107.361529,130.31859 107.115529,130.98759 C106.995529,131.31459 106.971529,131.67359 106.973529,132.02659 C106.988529,135.25459 109.005529,137.93159 110.332529,140.77859 C111.868529,144.07459 112.504529,147.89259 112.196529,151.61459 C112.034529,153.58359 109.517529,158.89359 111.051529,160.32959 C111.579529,160.82259 112.246529,160.80359 112.892529,160.51759 C115.486529,152.92959 116.211529,144.00259 114.459529,133.99359" id="Fill-164" fill="#AC3C4A"></path>
                <path d="M98.020529,170.60559 C98.059529,168.16059 99.191529,164.65359 100.875529,161.29259 L100.881529,161.28059 L100.888529,161.26659 C102.516529,157.87159 104.550529,154.92459 106.371529,153.57759 C115.043529,147.16559 117.108529,159.51359 113.191529,168.85059 L113.194529,168.85159 L113.188529,168.86159 L113.181529,168.87759 L113.178529,168.87659 C108.245529,177.58659 97.838529,182.24959 98.020529,170.60559" id="Fill-165" fill="#4D3422"></path>
                <path d="M68.475529,163.91959 C70.540529,161.77959 75.257529,169.14059 72.230529,176.23159 C69.203529,183.32359 60.642529,187.16759 60.227529,183.78759 C59.811529,180.40759 66.144529,181.04059 68.432529,174.77659 C70.721529,168.51159 66.410529,166.06059 68.475529,163.91959" id="Fill-166" fill="#0F0F0D"></path>
                <path d="M84.229529,119.76159 C85.861529,117.18959 91.836529,123.27659 90.168529,130.90759 C88.500529,138.53759 80.812529,144.28859 79.785529,141.08359 C78.758529,137.87959 85.082529,137.02259 86.178529,130.37159 C87.273529,123.72159 82.598529,122.33259 84.229529,119.76159" id="Fill-167" fill="#0F0F0D"></path>
                <g id="zzs" transform="translate(75.571281, 0.000000)" fill="#FFFFFF" fill-rule="nonzero">
                    <g id="z" transform="translate(11.928719, 22.458004) rotate(-8.000000) translate(-11.928719, -22.458004) translate(1.428719, 11.458004)">
                        <path d="M19.2586306,18.0797418 C19.939944,18.274073 20.4184856,18.6060555 20.6942553,19.0756892 C20.970025,19.5453229 21.0592446,20.0068595 20.9619142,20.460299 C20.8645837,20.9137384 20.5969248,21.3024008 20.1589376,21.6262862 C19.7209504,21.9501715 19.1450783,22.0635314 18.4313214,21.9663658 C15.7385111,21.6100919 13.03759,21.4562464 10.328558,21.5048292 C7.61952602,21.553412 4.9186049,21.6586747 2.22579465,21.8206174 C1.28493324,21.6910632 0.668506793,21.310498 0.37651532,20.6789216 C0.0845238474,20.0473452 0.16563259,19.3267003 0.619841548,18.516987 C2.37179038,15.8935158 4.31028933,13.3995988 6.43533838,11.0352359 C8.56038743,8.67087297 10.6935474,6.32270433 12.8348182,3.99072996 C11.0179823,3.99072996 9.22547912,4.02311849 7.45730854,4.08789555 C5.68913795,4.15267262 3.89663474,4.26603249 2.07979891,4.42797515 C1.46337247,4.36319808 0.976720014,4.16076975 0.619841548,3.82069016 C0.262963081,3.48061056 0.0601912247,3.10814243 0.0115259792,2.70328577 C-0.0371392663,2.29842911 0.0683020989,1.88547531 0.327850075,1.46442438 C0.587398051,1.04337345 1.00916351,0.719488125 1.59314646,0.492768394 C4.25351321,0.233660131 6.91387996,0.0798145991 9.57424671,0.0312317997 C12.2346135,-0.0173509998 14.911202,-0.00925386656 17.6040122,0.0555231994 C18.4799866,0.314631463 19.0234152,0.792362324 19.2342979,1.48871578 C19.4451807,2.18506924 19.2586306,2.87332557 18.6746476,3.55348476 C16.5333768,5.8530706 14.3758843,8.14455931 12.20217,10.4279509 C10.0284557,12.7113425 7.98451536,15.116191 6.07034904,17.6424966 C8.30895033,17.5777195 10.5151081,17.5615253 12.6888224,17.5939138 C14.8625367,17.6263023 17.0524728,17.788245 19.2586306,18.0797418 Z" id="Path"></path>
                    </g>
                    <g id="z" transform="translate(39.428719, 9.958004) rotate(-3.000000) translate(-39.428719, -9.958004) translate(30.428719, 0.458004)">
                        <path d="M16.5073976,15.6143225 C17.0913806,15.782154 17.5015591,16.0688661 17.7379331,16.4744588 C17.9743072,16.8800516 18.0507811,17.2786514 17.967355,17.6702582 C17.8839289,18.061865 17.654507,18.397528 17.2790894,18.6772471 C16.9036718,18.9569663 16.4100671,19.054868 15.7982755,18.9709522 C13.4901524,18.6632612 11.1750772,18.5303946 8.85304973,18.5723525 C6.5310223,18.6143103 4.21594706,18.7052191 1.90782398,18.8450786 C1.10137134,18.733191 0.573005823,18.404521 0.322727417,17.8590686 C0.0724490121,17.3136163 0.141970791,16.6912412 0.531292755,15.9919433 C2.03296319,13.7262182 3.69453371,11.5723808 5.51600433,9.53043098 C7.33747494,7.4884812 9.16589774,5.46051738 11.0012727,3.44653951 C9.44398485,3.44653951 7.90755353,3.47451142 6.39197875,3.53045525 C4.87640396,3.58639908 3.33997264,3.68430078 1.78268478,3.82416036 C1.25431926,3.76821653 0.837188584,3.59339206 0.531292755,3.29968695 C0.225396926,3.00598185 0.0515924783,2.68430483 0.00987941074,2.33465589 C-0.0318336568,1.98500696 0.0585446562,1.62836504 0.28101435,1.26473015 C0.503484043,0.901095257 0.864997295,0.621376108 1.36555411,0.425572704 C3.64586847,0.201797386 5.92618282,0.0689307901 8.20649718,0.0269729179 C10.4868115,-0.0149849544 12.7810303,-0.00799197567 15.0891533,0.047951854 C15.8399885,0.271727173 16.3057845,0.684312917 16.4865411,1.28570909 C16.6672977,1.88710525 16.5073976,2.48150844 16.0068408,3.06891866 C14.1714658,5.05492461 12.3221865,7.03393758 10.4590028,9.00595758 C8.59581915,10.9779776 6.84387031,13.0548923 5.20315632,15.2367016 C7.12195743,15.1807578 9.01294982,15.1667718 10.8761335,15.1947437 C12.7393172,15.2227157 14.6164052,15.3625752 16.5073976,15.6143225 Z" id="Path"></path>
                    </g>
                </g>
            </g>
        </g>
    </g>
</svg>