<?xml version="1.0" encoding="UTF-8"?>
<svg width="129px" height="120px" viewBox="0 0 129 120" version="1.1" xmlns="http://www.w3.org/2000/svg" xmlns:xlink="http://www.w3.org/1999/xlink">
    <title>asleep</title>
    <g id="Dog-states" stroke="none" stroke-width="1" fill="none" fill-rule="evenodd">
        <g id="for-markdown-descriptions" transform="translate(-25.000000, -36.000000)">
            <g id="Group" transform="translate(14.000000, 19.000000)">
                <g id="asleep" transform="translate(11.445783, 17.796383)">
                    <path d="M63.5900777,118.578669 C34.9406801,118.578669 11.7226078,113.584693 11.7226078,107.42144 C11.7226078,104.608789 16.5659813,102.041319 24.5424874,100.079271 C24.1569452,99.530476 23.9557404,98.9690302 23.9557404,98.3973434 C23.9557404,92.2316808 47.1738127,87.2371025 75.8232103,87.2371025 C104.464174,87.2371025 127.682849,92.2316808 127.682849,98.3973434 C127.682849,101.208789 122.838873,103.775657 114.861764,105.737705 C115.247909,106.287102 115.449716,106.849151 115.449716,107.42144 C115.449716,113.584693 92.2310416,118.578669 63.5900777,118.578669 L63.5900777,118.578669 Z" id="Clip-148" fill-opacity="0.249950489" fill="#000000"></path>
                    <path d="M93.2906801,73.8901145 C89.9533307,73.5027651 94.9605597,69.3033675 96.6388729,69.0750543 C103.216584,68.1931266 113.047307,73.2720422 117.931042,78.370235 C118.974415,79.459994 120.01056,81.2142109 119.258752,82.5250543 C118.523813,83.8081868 116.766584,83.496741 115.538873,82.8220422 C107.856343,78.5997531 100.005138,74.6690302 93.2906801,73.8901145" id="Fill-150" fill="#E4E4DF"></path>
                    <path d="M45.7015235,65.180476 C45.8641741,64.9768615 46.0298368,64.7744519 46.1979091,64.5726446 C52.721403,56.7575844 61.6665837,53.0449338 71.1280295,54.0726446 C80.2394753,55.0624037 95.7021259,61.1684278 104.634054,73.4720422 C111.734054,83.2515603 97.8509211,102.461801 88.3967042,106.626259 C84.3527283,108.408187 79.9527283,108.753368 75.631644,109.078669 C71.9274271,109.358187 68.2232103,109.6365 64.5189934,109.915416 C56.1936922,110.543127 46.394897,110.450355 41.4671862,102.916621 C39.6665837,100.163006 38.8153789,96.7352953 38.5177886,93.3178254 C37.571403,82.4238495 39.2009211,73.3105965 45.7015235,65.180476" id="Fill-151" fill="#FFFFFE"></path>
                    <path d="M101.817186,70.7690302 C106.862367,75.1979459 105.62562,79.0148133 114.377427,84.9316808 C116.789475,86.5624037 120.326222,88.0714398 122.676222,89.9346928 C125.911162,92.5003555 126.505138,94.3955362 126.56056,97.546741 C126.641885,102.199753 120.887066,101.961199 119.467186,101.028066 C111.465981,95.7678254 101.667789,100.413609 92.7906801,96.8913193 C90.9310416,96.15397 89.0804392,95.3142109 87.4442946,94.0244519 C84.4015235,91.6250543 82.2906801,87.8021627 80.871403,83.746741 C80.3569452,82.2768615 79.9177886,80.7377049 79.8605597,79.1346928 C79.7147765,75.0551748 82.655138,67.5973434 86.0834512,66.0184278 C91.268391,63.630476 97.7250175,67.1774639 101.817186,70.7690302" id="Fill-152" fill="#FFFFFE"></path>
                    <path d="M83.7244151,109.278066 C78.4967042,109.88409 63.8165837,112.185295 62.2262223,103.57144 C61.5033307,99.6497531 62.5220054,94.4575844 63.2792344,90.6003555 C63.8840536,87.5184278 64.6906801,84.4840904 65.6894753,81.5310784 C67.2623669,76.8816808 70.1093548,76.8136085 74.3617645,75.5015603 C79.85815,73.806982 98.4280295,98.5587892 94.6888729,100.977464 C90.9491139,103.396741 87.9991139,108.782886 83.7244151,109.278066" id="Fill-153" fill="#C6C1BB"></path>
                    <path d="M92.294897,79.0220422 C87.6623669,83.2455362 80.8858609,83.2455362 80.871403,83.746741 C80.7467042,88.1208374 84.4015235,91.6250543 87.4442946,94.0244519 C89.0804392,95.3142109 90.9310416,96.15397 92.7906801,96.8907169 C98.6256199,99.2063796 104.85815,97.9931266 110.717789,98.383488 C105.673813,95.3883073 95.0942946,89.2184278 92.294897,79.0220422" id="Fill-154" fill="#C6C1BB"></path>
                    <path d="M93.5328488,108.358789 C94.418391,106.570235 94.5545356,104.302765 93.6973066,102.51903 C93.0105597,101.08891 91.5798368,99.680476 90.2262223,99.0895121 C88.7298368,98.4358977 86.9967042,99.1358977 85.3653789,99.043729 C82.4858609,98.8816808 78.9973066,98.8358977 76.1738127,98.1877049 C72.7322464,97.3979459 69.9232103,95.3250543 66.6798368,93.8738495 C62.5786319,92.0377049 57.9828488,91.3292712 53.831644,93.1118013 C50.534656,94.5280663 45.8864633,99.2142109 47.6671862,103.518428 C49.3165837,107.504572 54.4147765,109.585898 57.8015235,110.326862 C62.8822464,111.43891 68.2967042,111.373247 73.4557404,111.547343 C76.9003187,111.664211 80.3473066,111.728669 83.7942946,111.737102 C86.981644,111.744934 90.4226078,112.525054 92.8340536,109.469633 C93.1021259,109.130476 93.3358609,108.75638 93.5328488,108.358789" id="Fill-155" fill="#FFFFFE"></path>
                    <path d="M93.6973066,102.51903 C93.0105597,101.08891 91.5798368,99.680476 90.2262223,99.0895121 C88.7298368,98.4358977 86.9967042,99.1352953 85.3653789,99.0443314 C84.631644,99.0021627 83.85815,98.9684278 83.0659813,98.930476 C84.9195958,100.048548 86.3497163,102.175054 86.2780295,103.97144 C86.0310416,110.16903 81.6430898,111.131078 81.1226078,111.708789 C82.0129693,111.71903 82.9033307,111.734693 83.7942946,111.737102 C86.981644,111.744934 90.4226078,112.525054 92.8340536,109.470235 C93.1021259,109.130476 93.3358609,108.756982 93.5328488,108.358789 C94.418391,106.570235 94.5545356,104.302765 93.6973066,102.51903" id="Fill-156" fill="#C6C1BB"></path>
                    <path d="M69.3352584,104.326862 C72.2774271,101.023247 74.2208006,96.6340904 74.905138,92.0298736 C75.0810416,90.8419218 75.1756199,89.6196326 74.9617645,88.4449338 C74.7473066,87.2696326 74.1906801,86.1377049 73.2924874,85.4997531 C72.544897,84.9690302 71.6280295,84.8196326 70.7406801,84.8352953 C68.6521259,84.8708374 66.6304392,85.7497531 64.7997163,86.9027651 C60.921403,89.3443314 57.7370657,93.0190302 55.1153789,97.0648133 C53.6009211,99.4027651 49.5436922,105.865416 52.3069452,108.555777 C52.621403,108.860596 53.0117645,109.044934 53.3954994,109.224452 C53.9810416,109.497946 54.5671862,109.77144 55.1527283,110.044934 C57.3587524,111.075054 60.3232103,110.097946 62.5328488,109.196741 C65.0750175,108.159392 67.4159813,106.481681 69.3352584,104.326862" id="Fill-157" fill="#C6C1BB"></path>
                    <path d="M103.07562,110.469633 C106.138873,111.585295 109.968391,112.026862 112.064777,109.499753 C113.49068,107.779874 113.741283,105.090115 113.00574,102.90638 C112.270801,100.723247 110.578632,99.4401145 108.787066,98.2714398 C106.883451,97.0292712 104.680439,96.3461386 102.654536,95.3063796 C96.505138,92.1509579 78.0509211,70.3256567 73.7412825,69.3328856 C70.3177886,68.5455362 64.2780295,69.6642109 63.8382705,74.293729 C63.431644,78.580476 69.3334512,84.85397 71.85815,87.4846928 C76.4521259,92.270235 81.8009211,95.3895121 86.9485115,99.1895121 C91.5033307,102.550355 95.7328488,106.692524 100.657548,109.381078 C101.357548,109.763006 102.184054,110.144934 103.07562,110.469633" id="Fill-158" fill="#FFFFFE"></path>
                    <path d="M37.1750175,98.0931266 C39.6653789,100.714211 44.8009211,103.627464 48.1268247,104.194331 C51.2936922,104.734693 54.5099572,104.209994 56.9732103,103.460596 C62.421403,101.805777 67.0677886,99.243729 69.3792344,94.9310784 C72.7708006,88.6093916 74.8659813,80.5563796 71.0659813,71.7792712 C69.168391,67.3991507 66.9979091,63.3925242 62.0099572,60.0485483 C48.9201982,51.2738495 42.0033307,58.3081868 36.7497163,64.6708374 C31.8057404,70.6618013 25.7322464,80.6961386 32.1473066,90.7919218 C33.5280295,92.9654157 35.2473066,96.0642109 37.1750175,98.0931266" id="Fill-159" fill="#F26200"></path>
                    <path d="M12.2424874,106.817223 C8.08766809,103.504572 5.10935483,98.3931266 4.16116206,90.4563796 C2.79308977,79.0142109 5.35333074,66.7371025 12.0497163,57.9111989 C18.7467042,49.0858977 29.7400777,44.2648133 39.6912825,46.9262591 C45.6924874,48.530476 50.9412825,52.5901145 55.5358609,57.2033675 C61.8153789,63.5087892 67.3189934,71.3883073 68.9515235,80.7190302 C72.4750175,100.855777 59.4653789,113.793729 42.8467042,113.25156 C32.2912825,112.908187 20.1400777,113.112404 12.2424874,106.817223" id="Fill-160" fill="#FFFFFE"></path>
                    <path d="M42.8467042,113.25156 C46.3358609,113.366018 49.6617645,112.878066 52.7135717,111.861801 C52.9786319,109.511199 52.4310416,107.095536 51.8744151,104.789512 C51.0973066,101.566621 50.1828488,98.1383073 47.8840536,96.0449338 C45.4539331,93.8322832 41.9250175,93.6515603 38.9394753,94.7744519 C35.9539331,95.896741 33.405138,98.1425242 31.0201982,100.469633 C28.6882705,102.744331 26.4467042,105.137102 24.305138,107.638307 C23.2900777,108.824452 22.281644,110.025657 21.2274271,111.172042 C27.9762223,113.03409 35.7695958,113.022042 42.8467042,113.25156" id="Fill-161" fill="#D27352"></path>
                    <path d="M47.891885,41.5316808 C50.2201982,44.5491507 51.0635717,48.0057772 48.005138,51.0587892 C43.2099572,55.846741 22.7436922,58.8889097 20.8635717,59.1160181 C18.4967042,59.3997531 16.0039331,59.6208374 15.3400777,56.1093916 C14.5888729,52.1328856 17.4406801,46.8371025 19.1250175,43.4720422 C26.2822464,29.1708374 38.9840536,29.9895121 47.891885,41.5316808" id="Fill-162" fill="#A5775D"></path>
                    <path d="M21.594897,115.811199 C25.1093548,115.108789 27.7220054,113.023247 27.0804392,108.502163 C26.0744151,101.414211 11.9304392,84.6473434 10.6009211,83.1479459 C8.92682471,81.2611989 7.1195958,79.3383073 4.61537893,81.5925242 C1.78043917,84.1449338 0.990077725,90.2581868 0.390077725,94.0545724 C-2.16293432,110.182283 8.14851146,118.490115 21.594897,115.811199" id="Fill-163" fill="#A5775D"></path>
                    <path d="M68.9515235,80.7190302 C68.8750175,80.283488 68.7822464,79.85397 68.6894753,79.4244519 C67.8834512,78.3840904 66.5900777,77.7196326 65.4111621,78.1244519 C65.0406801,78.2515603 64.6756199,78.5051748 64.5274271,78.9081868 C64.455138,79.1051748 64.4406801,79.3214398 64.441885,79.5340904 C64.4509211,81.4786687 65.6659813,83.0913193 66.4653789,84.8063796 C67.3906801,86.7919218 67.7738127,89.0919218 67.5882705,91.3340904 C67.4906801,92.520235 65.9744151,95.7190302 66.8985115,96.5840904 C67.2165837,96.8810784 67.618391,96.8696326 68.0075476,96.6973434 C69.5701982,92.1262591 70.0069452,86.7485483 68.9515235,80.7190302" id="Fill-164" fill="#AC3C4A"></path>
                    <path d="M59.0485115,102.774452 C59.0720054,101.30156 59.7539331,99.1889097 60.768391,97.1642109 L60.7720054,97.156982 L60.7762223,97.1485483 C61.7569452,95.1033675 62.9822464,93.3280663 64.0792344,92.5166206 C69.3033307,88.65397 70.5473066,96.0925242 68.1876681,101.717223 L68.1894753,101.717825 L68.1858609,101.723849 L68.181644,101.733488 L68.1798368,101.732886 C65.20815,106.979874 58.9388729,109.78891 59.0485115,102.774452" id="Fill-165" fill="#4D3422"></path>
                    <path d="M41.2503187,98.746741 C42.4942946,97.4575844 45.3358609,101.891922 43.5123669,106.163609 C41.6888729,110.435898 36.531644,112.75156 36.281644,110.715416 C36.0310416,108.679271 39.8461018,109.060596 41.2244151,105.287102 C42.6033307,101.513006 40.0063428,100.0365 41.2503187,98.746741" id="Fill-166" fill="#0F0F0D"></path>
                    <path d="M50.7406801,72.1455362 C51.7238127,70.5961386 55.3232103,74.2630061 54.318391,78.859994 C53.3135717,83.4563796 48.6822464,86.9208374 48.0635717,84.9901145 C47.444897,83.059994 51.2545356,82.543729 51.9147765,78.5371025 C52.5744151,74.5310784 49.75815,73.6943314 50.7406801,72.1455362" id="Fill-167" fill="#0F0F0D"></path>
                    <g id="zzs" transform="translate(45.524868, 0.000000)" fill="#FFFFFF" fill-rule="nonzero">
                        <g id="z" transform="translate(7.185975, 13.528918) rotate(-8.000000) translate(-7.185975, -13.528918) translate(0.860674, 6.902412)">
                            <path d="M11.6015847,10.8914107 C12.0120145,11.0084777 12.3002925,11.2084671 12.4664189,11.491379 C12.6325452,11.7742909 12.686292,12.052325 12.6276591,12.3254813 C12.5690263,12.5986376 12.407786,12.8327716 12.1439383,13.0278832 C11.8800906,13.2229949 11.5331797,13.2912839 11.1032057,13.2327505 C9.48103081,13.0181276 7.85396989,12.9254496 6.2220229,12.9547164 C4.59007592,12.9839831 2.963015,13.0473944 1.34084015,13.1449502 C0.774056166,13.0669056 0.402714936,12.8376494 0.226816458,12.4571817 C0.0509179804,12.076714 0.0997786686,11.6425906 0.373398523,11.1548114 C1.42878939,9.57440712 2.59655984,8.07204746 3.87670987,6.64773246 C5.1568599,5.22341745 6.441896,3.80885803 7.73181817,2.40405419 C6.63733875,2.40405419 5.55751754,2.42356535 4.49235454,2.46258768 C3.42719154,2.50161001 2.34737033,2.56989909 1.25289091,2.66745491 C0.88154968,2.62843258 0.588385551,2.5064878 0.373398523,2.30162058 C0.158411494,2.09675335 0.0362597739,1.87237496 0.00694336096,1.6284854 C-0.022373052,1.38459585 0.0411458427,1.1358285 0.197500045,0.882183364 C0.353854247,0.628538226 0.607929826,0.433426581 0.959726781,0.29684843 C2.56235736,0.140759115 4.16498793,0.0480810838 5.7676185,0.0188143371 C7.37024908,-0.0104524095 8.98265179,-0.00557461841 10.6048266,0.0334477105 C11.1325221,0.189537026 11.4598887,0.477326701 11.5869265,0.896816737 C11.7139643,1.31630677 11.6015847,1.73091902 11.2497877,2.14065347 C9.95986555,3.52594615 8.66017125,4.90636103 7.3507048,6.28189812 C6.04123836,7.65743522 4.80994901,9.10613918 3.65683677,10.62801 C5.00539177,10.5889877 6.33440249,10.5792321 7.64386893,10.5987433 C8.95333538,10.6182544 10.272574,10.7158102 11.6015847,10.8914107 Z" id="Path"></path>
                        </g>
                        <g id="z" transform="translate(23.752240, 5.998798) rotate(-3.000000) translate(-23.752240, -5.998798) translate(18.330554, 0.275906)">
                            <path d="M9.94421544,9.40621835 C10.2960124,9.50732166 10.5431079,9.68003981 10.6855019,9.9243728 C10.8278959,10.1687058 10.8739645,10.4088261 10.8237078,10.6447339 C10.7734511,10.8806416 10.6352452,11.0828482 10.40909,11.2513537 C10.1829348,11.4198592 9.88558261,11.4788361 9.51703342,11.4282845 C8.12659784,11.2429284 6.73197419,11.1628883 5.33316249,11.1881641 C3.93435079,11.21344 2.53972714,11.2682042 1.14929156,11.352457 C0.663476714,11.2850548 0.345184231,11.0870608 0.194414107,10.7584751 C0.0436439832,10.4298893 0.0855245731,10.0549646 0.320055877,9.63370079 C1.22467662,8.26880615 2.22562272,6.97131372 3.32289417,5.74122348 C4.42016563,4.51113325 5.52162514,3.2894683 6.62727272,2.07622862 C5.6891475,2.07622862 4.76358647,2.09307917 3.85058961,2.12678027 C2.93759275,2.16048137 2.01203171,2.2194583 1.07390649,2.30371106 C0.755614012,2.27000996 0.504330472,2.16469401 0.320055877,1.98776323 C0.135781281,1.81083244 0.0310798062,1.6170511 0.00595145225,1.40641921 C-0.0191769017,1.19578732 0.0352678652,0.980942797 0.169285753,0.761885632 C0.303303641,0.542828468 0.521082708,0.374322957 0.822622955,0.256369099 C2.1963063,0.12156469 3.56998965,0.0415245724 4.943673,0.0162487457 C6.31735635,-0.00902708095 7.69941582,-0.00481444317 9.0898514,0.028886659 C9.54216177,0.163691068 9.82276173,0.412236697 9.93165126,0.774523546 C10.0405408,1.13681039 9.94421544,1.49488461 9.64267519,1.84874618 C8.53702762,3.04513531 7.42300393,4.2373118 6.30060412,5.42527565 C5.17820431,6.6132395 4.12281344,7.86439292 3.13443152,9.17873591 C4.2903358,9.14503481 5.42948785,9.13660953 6.55188765,9.15346008 C7.67428746,9.17031063 8.80506339,9.25456339 9.94421544,9.40621835 Z" id="Path"></path>
                        </g>
                    </g>
                </g>
            </g>
        </g>
    </g>
</svg>