<?xml version="1.0" encoding="UTF-8"?>
<svg width="153px" height="227px" viewBox="0 0 153 227" version="1.1" xmlns="http://www.w3.org/2000/svg" xmlns:xlink="http://www.w3.org/1999/xlink">
    <title>begging</title>
    <g id="Dog-states" stroke="none" stroke-width="1" fill="none" fill-rule="evenodd">
        <g id="for-markdown-descriptions" transform="translate(-62.000000, -19.000000)">
            <g id="begging" transform="translate(62.000000, 19.000000)">
                <path d="M75.3184099,226.155994 C44.0994099,226.155994 18.7974099,221.865994 18.7974099,216.572994 C18.7974099,211.276994 44.0994099,206.987994 75.3184099,206.987994 C106.52941,206.987994 131.83141,211.276994 131.83141,216.572994 C131.83141,221.865994 106.52941,226.155994 75.3184099,226.155994 L75.3184099,226.155994 Z" id="Clip-26" fill-opacity="0.249950489" fill="#000000"></path>
                <path d="M139.32141,178.792994 C143.59341,178.476994 141.28641,188.980994 140.77741,190.805994 C138.41141,199.291994 134.05241,207.994994 125.48641,212.471994 C121.88341,214.355994 117.75341,215.366994 113.68441,216.256994 C112.48141,216.520994 111.17241,216.380994 110.13841,215.755994 C103.30041,211.624994 121.28341,200.860994 123.74141,198.289994 C126.64641,195.251994 129.12741,191.910994 131.34041,188.442994 C133.09341,185.696994 134.41241,181.006994 137.56741,179.364994 C138.24841,179.009994 138.82941,178.828994 139.32141,178.792994" id="Fill-28" fill="#FFFFFE"></path>
                <path d="M5.01340991,167.128994 C8.92240991,168.550994 13.3034099,168.426994 16.3844099,166.063994 C18.6354099,164.336994 19.5654099,159.536994 20.7534099,159.422994 C21.8084099,159.321994 34.5794099,168.373994 41.0324099,169.145994 C43.9804099,169.497994 47.3444099,169.155994 49.2774099,166.798994 C50.2084099,165.662994 50.6794099,164.202994 51.1144099,162.777994 C54.0524099,153.133994 56.2674099,143.247994 57.7314099,133.243994 C58.1254099,130.558994 58.4624099,127.806994 57.9594099,125.143994 C55.6974099,113.180994 42.4004099,120.384994 39.0684099,127.626994 C36.7654099,132.633994 34.5054099,147.700994 34.0084099,147.963994 C33.5274099,148.217994 23.7924099,141.473994 16.4374099,140.854994 C2.72040991,139.700994 1.40540991,151.421994 0.216409912,156.646994 C-0.648590088,160.449994 1.10540991,165.707994 5.01340991,167.128994" id="Fill-29" fill="#C6C1BB"></path>
                <path d="M89.6314099,203.446994 C89.7404099,202.768994 89.7894099,202.081994 89.7814099,201.398994 C89.7384099,197.941994 88.3534099,194.532994 86.5184099,191.372994 C82.3334099,184.167994 75.0814099,176.686994 66.0774099,173.565994 C57.9214099,170.738994 40.7234099,169.339994 34.9524099,175.549994 C33.9574099,176.619994 33.3394099,177.846994 32.8774099,179.087994 C29.4254099,188.337994 35.0104099,198.974994 46.1914099,204.447994 C41.7994099,205.554994 36.5304099,206.971994 36.5254099,212.535994 C36.5204099,220.257994 63.1114099,220.016994 63.7914099,212.746994 C64.0774099,209.692994 63.9544099,209.898994 63.4944099,207.101994 C65.9574099,210.569994 67.5854099,210.607994 72.0494099,212.016994 C76.5134099,213.425994 81.7944099,213.044994 85.3154099,210.550994 C87.7774099,208.805994 89.1904099,206.195994 89.6314099,203.446994" id="Fill-30" fill="#C6C1BB"></path>
                <path d="M114.00141,216.313994 C107.21241,217.455994 91.6714099,215.934994 84.8114099,216.613994 C75.4714099,217.537994 46.5554099,196.920994 41.2304099,148.316994 C39.4464099,132.039994 50.5334099,117.096994 68.4324099,111.967994 C74.2004099,110.313994 90.8334099,104.006994 96.5974099,107.654994 C102.07441,111.119994 107.83141,123.568994 109.08341,132.196994 C111.21441,146.886994 112.05041,164.064994 116.34541,173.662994 C127.07841,197.654994 130.06341,213.611994 114.00141,216.313994" id="Fill-31" fill="#FFFFFE"></path>
                <path d="M109.51541,216.710994 C110.10141,213.576994 109.73841,210.259994 108.43141,207.323994 C107.07841,204.285994 104.84741,201.697994 102.92741,198.952994 C91.8564099,183.126994 91.4624099,162.883994 87.0864099,144.302994 C86.5314099,141.944994 85.4774099,136.215994 83.7444099,137.974994 C81.2194099,140.536994 69.7004099,155.534994 41.9504099,140.881994 C41.7584099,140.781994 41.5314099,140.793994 41.3234099,140.754994 C40.9894099,143.219994 40.9494099,145.751994 41.2304099,148.316994 C46.5554099,196.920994 75.4704099,217.537994 84.8114099,216.614994 C90.4194099,216.058994 101.83041,216.990994 109.51541,216.710994" id="Fill-32" fill="#C6C1BB"></path>
                <path d="M97.7734099,94.1189938 C100.04141,96.2819938 99.5264099,102.838994 98.9914099,105.890994 C98.4814099,108.797994 96.0254099,115.587994 80.2594099,121.847994 C64.4924099,128.108994 44.6254099,123.718994 42.3984099,119.281994 C36.5554099,107.633994 47.6504099,100.825994 57.3164099,95.5969938 C66.4184099,90.6759938 80.8464099,84.4819938 90.7524099,89.8659938 C92.8854099,91.0239938 96.0184099,92.4449938 97.7734099,94.1189938" id="Fill-33" fill="#F26200"></path>
                <path d="M21.8714099,25.5749938 C20.4354099,31.3659938 21.4834099,36.5839938 28.0214099,38.2379938 C38.2724099,40.8299938 70.4894099,28.9429938 73.4144099,27.7799938 C77.0954099,26.3159938 80.9194099,24.6709938 79.5714099,19.5209938 C78.0444099,13.6889938 70.3244099,8.91599377 65.6084099,5.78299377 C45.5634099,-7.52900623 27.3634099,3.41999377 21.8714099,25.5749938" id="Fill-34" fill="#A5775D"></path>
                <path d="M9.15040991,74.4359938 C9.79040991,70.9889938 12.1824099,67.7399938 15.1154099,64.7889938 C18.5224099,61.3619938 22.6584099,58.3359938 25.6304099,55.8639938 C31.4424099,51.0329938 34.5004099,48.8339938 37.9274099,42.2889938 C40.8584099,36.6929938 43.8384099,29.2199938 48.7754099,25.1049938 C58.6334099,16.8949938 68.9674099,17.1309938 80.5994099,18.9539938 C96.1614099,21.3929938 110.62741,27.1929938 120.75041,39.6899938 C126.74741,47.0909938 129.30741,54.2439938 126.40641,63.6269938 C124.73741,69.0299938 122.52241,74.3119938 119.86941,79.3229938 C114.58041,89.3149938 76.2844099,120.973994 41.2004099,115.194994 C30.4144099,113.416994 24.0524099,112.046994 15.4494099,101.667994 C10.2084099,95.3459938 7.36440991,84.0479938 9.15040991,74.4359938" id="Fill-35" fill="#FFFFFE"></path>
                <path d="M22.6484099,102.041994 C24.5954099,104.587994 26.9634099,107.014994 30.0254099,107.958994 C33.0884099,108.902994 36.9484099,107.877994 38.3274099,104.984994 C39.5104099,102.501994 38.6054099,99.5759938 37.6884099,96.9819938 C35.5124099,97.8279938 33.2094099,98.4509938 30.8764099,98.3829938 C28.5434099,98.3149938 26.1664099,97.4929938 24.5604099,95.7999938 C24.3124099,95.5369938 24.0684099,95.2459938 23.7314099,95.1189938 C23.2694099,94.9449938 22.7594099,95.1199938 22.2844099,95.2499938 C20.4234099,95.7639938 18.8204099,95.3889938 17.0294099,94.9159938 C17.4944099,95.0389938 17.9844099,96.0449938 18.2524099,96.3969938 C18.7254099,97.0169938 19.2044099,97.6319938 19.6854099,98.2459938 C20.6744099,99.5099938 21.6724099,100.766994 22.6484099,102.041994" id="Fill-36" fill="#AC3C4A"></path>
                <path d="M59.7374099,41.8679938 C59.2714099,34.9429938 55.4194099,28.5019938 49.9694099,24.1769938 C49.5714099,24.4799938 49.1724099,24.7749938 48.7754099,25.1049938 C43.8384099,29.2199938 40.8584099,36.6929938 37.9274099,42.2889938 C34.5004099,48.8339938 31.4424099,51.0329938 25.6304099,55.8639938 C22.8224099,58.1989938 18.9804099,61.0299938 15.6914099,64.2239938 C20.3874099,63.3499938 24.7634099,62.5359938 27.9754099,62.7539938 C35.2414099,63.2479938 42.9634099,64.2299938 49.4554099,60.9279938 C56.2704099,57.4619938 60.2504099,49.4969938 59.7374099,41.8679938" id="Fill-37" fill="#D27352"></path>
                <path d="M80.7994099,66.7809938 C77.9504099,72.3149938 73.1334099,75.5039938 70.0374099,73.9019938 C66.9414099,72.3019938 66.7424099,66.5169938 69.5904099,60.9829938 C72.4384099,55.4489938 77.2554099,52.2599938 80.3524099,53.8619938 C83.4464099,55.4629938 83.6464099,61.2469938 80.7994099,66.7809938" id="Fill-38" fill="#0F0F0D"></path>
                <path d="M46.0584099,53.3399938 C42.7284099,58.3049938 38.0934099,61.0199938 35.7054099,59.4059938 C33.3184099,57.7889938 34.0834099,52.4539938 37.4134099,47.4889938 C40.7434099,42.5239938 45.3784099,39.8089938 47.7654099,41.4239938 C50.1534099,43.0399938 49.3864099,48.3759938 46.0584099,53.3399938" id="Fill-39" fill="#0F0F0D"></path>
                <path d="M147.83441,70.2419938 C145.11941,75.9129938 140.83341,79.4729938 134.58741,76.4879938 C124.79441,71.8079938 107.30941,40.7689938 105.77741,37.8839938 C103.84941,34.2509938 101.93341,30.3779938 106.41141,27.0729938 C111.48041,23.3299938 120.72641,24.5549938 126.52141,25.1259938 C151.13941,27.5579938 158.20841,48.5449938 147.83441,70.2419938" id="Fill-40" fill="#A5775D"></path>
                <path d="M33.8734099,74.2719938 C32.5564099,72.7419938 29.9654099,71.4419938 27.0934099,70.6989938 L27.0834099,70.6959938 L27.0714099,70.6929938 C24.2174099,69.8799938 21.3344099,69.6919938 19.4384099,70.3499938 C10.4034099,73.4869938 15.5844099,83.1109938 23.0674099,85.8129938 L23.0654099,85.8159938 L23.0764099,85.8179938 L23.0894099,85.8229938 L23.0904099,85.8199938 C30.9044099,87.2739938 40.1444099,81.5699938 33.8734099,74.2719938" id="Fill-41" fill="#4D3422"></path>
                <path d="M13.3104099,90.8759938 C13.4574099,90.7799938 13.6354099,90.7179938 13.8484099,90.6969938 C14.5484099,90.6309938 14.8784099,91.2719938 15.3044099,91.7009938 C15.8994099,92.2939938 16.6234099,92.8449938 17.3624099,93.2329938 C19.7414099,94.4789938 21.8754099,94.3979938 24.2904099,93.8449938 L24.3214099,93.7419938 L24.4004099,93.8209938 L24.5104099,93.7979938 L24.4804099,93.9009938 C26.2104099,95.6729938 27.9604099,96.8969938 30.6344099,97.1369938 C32.4824099,97.3019938 36.4484099,96.4969938 37.9334099,95.0899938 C38.4574099,94.5929938 39.2674099,94.6219938 39.7434099,95.1479938 C40.2184099,95.6779938 40.1804099,96.5069938 39.6574099,97.0029938 C37.3614099,99.1799938 32.4694099,99.9379938 30.3754099,99.7509938 C29.5634099,99.6789938 28.8194099,99.5349938 28.1334099,99.3339938 C26.2474099,98.7789938 24.8124099,97.7749938 23.5694099,96.6449938 C21.9124099,96.9219938 20.1634099,96.9889938 18.2754099,96.4339938 C17.5884099,96.2319938 16.8874099,95.9499938 16.1664099,95.5709938 C15.1284099,95.0259938 13.6664099,94.1079938 13.0404099,93.0829938 C12.6214099,92.3979938 12.6374099,91.3069938 13.3104099,90.8759938" id="Fill-42" fill="#4D3422"></path>
                <path d="M23.8204099,96.6699938 C24.1654099,96.7939938 24.5594099,96.7779938 24.9154099,96.5929938 C25.5974099,96.2359938 25.8784099,95.3839938 25.5444099,94.6899938 C25.5084099,94.6139938 23.9004099,91.0659938 24.4624099,84.1659938 C24.5234099,83.3849938 23.9574099,82.7069938 23.1974099,82.6539938 C22.4334099,82.6009938 21.7644099,83.1929938 21.7004099,83.9729938 C21.0654099,91.7849938 22.9774099,95.8119938 23.0594099,95.9809938 C23.2224099,96.3159938 23.5014099,96.5539938 23.8204099,96.6699938" id="Fill-43" fill="#4D3422"></path>
                <path d="M44.0524099,162.854994 C45.1104099,163.417994 46.4254099,163.814994 48.0394099,163.999994 C50.2784099,164.257994 52.5474099,163.759994 54.5294099,162.750994 C56.6104099,161.691994 57.8554099,159.148994 59.8124099,158.257994 C61.8334099,157.337994 64.5684099,159.774994 66.3664099,160.781994 C68.8314099,162.160994 71.3154099,163.548994 74.0324099,164.457994 C80.2694099,166.544994 87.7814099,167.595994 91.3844099,161.394994 C96.0774099,153.318994 97.1274099,141.281994 98.5374099,132.345994 C98.9404099,129.785994 86.8394099,122.324994 82.1504099,128.439994 C78.0644099,133.769994 76.5744099,138.232994 75.2214099,143.364994 C75.0794099,143.903994 67.7324099,137.623994 58.6974099,136.079994 C52.6624099,135.048994 48.9894099,138.677994 45.9044099,142.830994 C41.8114099,148.343994 36.7694099,158.978994 44.0524099,162.854994" id="Fill-44" fill="#C6C1BB"></path>
                <path d="M47.6344099,166.888994 C48.6924099,167.451994 50.0074099,167.847994 51.6214099,168.033994 C53.8604099,168.291994 56.1294099,167.792994 58.1114099,166.785994 C60.1934099,165.724994 61.4374099,163.181994 63.3944099,162.290994 C65.4154099,161.370994 68.1504099,163.808994 69.9494099,164.814994 C72.4134099,166.193994 74.8984099,167.581994 77.6144099,168.491994 C83.8514099,170.578994 90.6634099,173.501994 94.2664099,167.300994 C98.9594099,159.224994 100.71041,145.315994 102.11941,136.378994 C102.52341,133.820994 102.87041,131.196994 102.35241,128.656994 C100.02841,117.250994 86.3684099,124.119994 82.9454099,131.024994 C80.5794099,135.797994 80.2294099,141.244994 78.8764099,146.375994 C78.7334099,146.914994 78.5324099,147.511994 78.0214099,147.762994 C77.5264099,148.005994 76.9304099,147.831994 76.4204099,147.623994 C71.5614099,145.641994 68.1194099,140.873994 62.9834099,139.722994 C57.8444099,138.571994 52.4794099,141.561994 49.3944099,145.715994 C45.3014099,151.227994 40.3514099,163.011994 47.6344099,166.888994" id="Fill-45" fill="#C6C1BB"></path>
                <path d="M94.2654099,165.440994 C94.2654099,165.440994 108.55741,170.698994 110.52241,180.000994 C110.52241,180.000994 96.2194099,169.013994 90.8454099,168.991994 L94.2654099,165.440994" id="Fill-46" fill="#C6C1BB"></path>
                <path d="M119.45241,193.279994 C116.13341,184.618994 109.97741,177.500994 101.27041,171.889994 C93.9964099,167.201994 77.2254099,164.335994 70.8094099,171.302994 C69.7034099,172.503994 68.9564099,173.907994 68.3604099,175.333994 C63.9264099,185.971994 68.3374099,198.686994 78.8784099,205.647994 C74.3864099,206.719994 68.5424099,208.289994 68.3824099,214.612994 C68.1134099,225.320994 92.4864099,224.024994 95.8714099,217.543994 C97.4754099,214.472994 95.4154099,209.268994 94.1164099,206.054994 C96.1934099,210.233994 99.5124099,213.927994 103.80441,215.800994 C108.09541,217.672994 113.39541,217.494994 117.16941,214.756994 C119.80941,212.841994 123.90241,204.893994 119.45241,193.279994" id="Fill-47" fill="#FFFFFE"></path>
                <path d="M45.8574099,165.111994 C46.9154099,165.674994 48.2314099,166.070994 49.8444099,166.256994 C52.0844099,166.514994 54.3524099,166.016994 56.3344099,165.007994 C58.4164099,163.948994 59.6604099,161.405994 61.6174099,160.514994 C63.6384099,159.594994 66.3744099,162.031994 68.1724099,163.037994 C70.6364099,164.416994 73.1214099,165.804994 75.8374099,166.714994 C82.0744099,168.801994 89.5874099,169.852994 93.1894099,163.651994 C97.8824099,155.575994 98.9334099,143.537994 100.34241,134.602994 C100.74641,132.042994 101.09341,129.419994 100.57541,126.879994 C98.2524099,115.474994 84.5924099,122.343994 81.1694099,129.247994 C78.8024099,134.021994 76.9374099,148.834994 76.4264099,149.085994 C75.9324099,149.328994 64.9694099,140.755994 59.8334099,139.604994 C54.6944099,138.452994 50.7024099,139.785994 47.6174099,143.939994 C43.5244099,149.451994 38.5744099,161.235994 45.8574099,165.111994" id="Fill-48" fill="#FFFFFE"></path>
            </g>
        </g>
    </g>
</svg>