<?xml version="1.0" encoding="UTF-8"?>
<svg width="93px" height="137px" viewBox="0 0 93 137" version="1.1" xmlns="http://www.w3.org/2000/svg" xmlns:xlink="http://www.w3.org/1999/xlink">
    <title>begging</title>
    <g id="Dog-states" stroke="none" stroke-width="1" fill="none" fill-rule="evenodd">
        <g id="for-markdown-descriptions" transform="translate(-42.000000, -19.000000)">
            <g id="Group" transform="translate(14.000000, 19.000000)">
                <g id="begging" transform="translate(28.915663, 0.000000)">
                    <path d="M45.3725361,136.23855 C26.5659096,136.23855 11.3237409,133.654213 11.3237409,130.465659 C11.3237409,127.275297 26.5659096,124.691563 45.3725361,124.691563 C64.1743433,124.691563 79.416512,127.275297 79.416512,130.465659 C79.416512,133.654213 64.1743433,136.23855 45.3725361,136.23855 L45.3725361,136.23855 Z" id="Clip-26" fill-opacity="0.249950489" fill="#000000"></path>
                    <path d="M83.9285602,107.706623 C86.5020542,107.516261 85.1122951,113.843972 84.8056686,114.94337 C83.3803674,120.055418 80.7544638,125.298189 75.5942228,127.995177 C73.4237409,129.130117 70.9357891,129.739153 68.4845843,130.275297 C67.7598855,130.434334 66.9713313,130.349996 66.3484397,129.97349 C62.2291626,127.484936 73.0622951,121.000599 74.543018,119.451803 C76.293018,117.621683 77.7875963,115.609032 79.1207289,113.519876 C80.176753,111.865659 80.9713313,109.040358 82.8719337,108.051201 C83.2821746,107.837346 83.6321746,107.72831 83.9285602,107.706623" id="Fill-28" fill="#E4DCCC"></path>
                    <path d="M3.02012645,100.680117 C5.37494573,101.536743 8.01410236,101.462044 9.87012645,100.03855 C11.2261505,98.998189 11.7863915,96.1066228 12.5020542,96.0379481 C13.1375963,95.9771047 20.8309698,101.430117 24.7183192,101.895177 C26.4942228,102.107225 28.5207289,101.901201 29.6851867,100.481322 C30.2460301,99.7969842 30.529765,98.9174661 30.7918132,98.0590324 C32.5616927,92.2493938 33.8960301,86.2939722 34.7779578,80.2674661 C35.0153072,78.6499962 35.2183192,76.9921649 34.9153072,75.3879481 C33.5526566,68.1813215 25.5424156,72.5210806 23.5351867,76.8837312 C22.1478373,79.8999962 20.7863915,88.9765023 20.4869939,89.134936 C20.1972349,89.2879481 14.3327771,85.2252975 9.90205416,84.8524059 C1.63880115,84.1572252 0.846632477,91.2180685 0.130367417,94.3656589 C-0.390716921,96.6566228 0.665909585,99.8240926 3.02012645,100.680117" id="Fill-29" fill="#D7C8AC"></path>
                    <path d="M53.9948252,122.55843 C54.0604879,122.149996 54.090006,121.736141 54.0851867,121.324695 C54.0592831,119.242165 53.2249457,117.18855 52.119524,115.284936 C49.5984397,110.944575 45.229765,106.437948 39.8056686,104.557828 C34.8924156,102.854816 24.5321746,102.012044 21.0556686,105.753008 C20.456271,106.397587 20.0839819,107.136743 19.8056686,107.884334 C17.7261505,113.456623 21.0906084,119.864454 27.8261505,123.161442 C25.1803674,123.82831 22.006271,124.681924 22.003259,128.033731 C22.0002469,132.685538 38.0189216,132.540358 38.4285602,128.16084 C38.6008493,126.321081 38.526753,126.445177 38.2496445,124.760237 C39.7333795,126.849394 40.7141024,126.872285 43.403259,127.721081 C46.0924156,128.569876 49.2737409,128.340358 51.3948252,126.837948 C52.8779578,125.786743 53.7291626,124.214454 53.9948252,122.55843" id="Fill-30" fill="#D7C8AC"></path>
                    <path d="M68.6755481,130.309635 C64.5857891,130.997587 55.2237409,130.081322 51.0912108,130.490358 C45.4647048,131.046984 28.0454277,118.627105 24.8375963,89.3475866 C23.7628975,79.5421649 30.4418132,70.5403577 41.2243433,67.4505987 C44.6990421,66.4542131 54.7189216,62.6548155 58.1912108,64.8524059 C61.4906084,66.9397553 64.9586807,74.4391529 65.7128975,79.6367432 C66.9966325,88.4861408 67.5002469,98.8343336 70.0875963,104.616261 C76.553259,119.069273 78.3514518,128.681924 68.6755481,130.309635" id="Fill-31" fill="#E4DCCC"></path>
                    <path d="M65.9731385,130.548791 C66.3261505,128.66084 66.1074759,126.662647 65.3201265,124.893972 C64.5050662,123.063852 63.1610903,121.504816 62.0044638,119.851201 C55.3351867,110.317466 55.0978373,98.1228878 52.4616927,86.9295143 C52.1273554,85.5090324 51.4924156,82.0578276 50.4484397,83.1174661 C48.9273554,84.6608396 41.9881987,93.6957794 25.2713313,84.8686709 C25.1556686,84.80843 25.0189216,84.8156589 24.8936204,84.7921649 C24.6924156,86.2771047 24.6683192,87.8024059 24.8375963,89.3475866 C28.0454277,118.627105 45.4641024,131.046984 51.0912108,130.49096 C54.469524,130.15602 61.3436204,130.717466 65.9731385,130.548791" id="Fill-32" fill="#D7C8AC"></path>
                    <path d="M58.8996445,56.698189 C60.2659096,58.0012011 59.9556686,61.9512011 59.6333795,63.7897553 C59.3261505,65.5409601 57.8466325,69.6313215 48.3490421,73.4024059 C38.8508493,77.1740926 26.8827771,74.5295143 25.5412108,71.8566228 C22.0213313,64.8397553 28.7050662,60.7385505 34.5279578,57.5885505 C40.0110903,54.6240926 48.7026566,50.8927673 54.6701265,54.1361408 C55.9550662,54.8337312 57.8424156,55.6897553 58.8996445,56.698189" id="Fill-33" fill="#F26200"></path>
                    <path d="M13.1755481,15.4066228 C12.3104879,18.895177 12.9418132,22.0385505 16.8803674,23.034936 C23.0556686,24.5963818 42.4634999,17.4355384 44.2255481,16.734936 C46.443018,15.8530083 48.7466325,14.8620444 47.9345843,11.7596348 C47.0147048,8.24638179 42.3641024,5.37108059 39.5231385,3.48373119 C27.4478373,-4.53554592 16.4839819,2.06023721 13.1755481,15.4066228" id="Fill-34" fill="#A5775D"></path>
                    <path d="M5.51229513,44.8409601 C5.8978373,42.7644541 7.33880115,40.8072252 9.10566862,39.0295143 C11.1580783,36.9650565 13.6496445,35.1421649 15.440006,33.6530083 C18.9412108,30.7427673 20.7833795,29.4180685 22.8478373,25.4752975 C24.6134999,22.1042131 26.4086807,17.6024059 29.3827771,15.1234902 C35.3213313,10.1777071 41.5466325,10.3198758 48.5538614,11.4180685 C57.9285602,12.8873456 66.643018,16.3813215 72.7412108,23.9096348 C76.3538614,28.3680685 77.8960301,32.6771047 76.1484397,38.3295143 C75.143018,41.5843336 73.8086807,44.7662613 72.2104879,47.784936 C69.0243433,53.8042131 45.9544638,72.8758999 24.819524,69.3945746 C18.3219337,68.3234902 14.4894036,67.498189 9.30687344,61.2457794 C6.14964453,57.4373456 4.43639151,50.6313215 5.51229513,44.8409601" id="Fill-35" fill="#E4DCCC"></path>
                    <path d="M13.6436204,61.4710806 C14.816512,63.0048155 16.243018,64.4668637 18.0875963,65.0355384 C19.9327771,65.6042131 22.2580783,64.9867432 23.0888012,63.2439722 C23.8014518,61.748189 23.256271,59.9855384 22.7038614,58.4228878 C21.393018,58.9325264 20.0056686,59.3078276 18.6002469,59.2668637 C17.1948252,59.2258999 15.7628975,58.7307191 14.7954277,57.7108396 C14.6460301,57.5524059 14.4990421,57.3771047 14.2960301,57.3005987 C14.0177168,57.1957794 13.7104879,57.3012011 13.4243433,57.3795143 C12.303259,57.6891529 11.3375963,57.4632493 10.2586807,57.1783095 C10.5388012,57.2524059 10.8339819,57.85843 10.9954277,58.0704782 C11.2803674,58.4439722 11.5689216,58.8144541 11.8586807,59.1843336 C12.4544638,59.9457794 13.0556686,60.7030083 13.6436204,61.4710806" id="Fill-36" fill="#AC3C4A"></path>
                    <path d="M35.9863915,25.221683 C35.7056686,21.0499962 33.3851867,17.1698758 30.1020542,14.5644541 C29.8622951,14.7469842 29.6219337,14.924695 29.3827771,15.1234902 C26.4086807,17.6024059 24.6134999,22.1042131 22.8478373,25.4752975 C20.7833795,29.4180685 18.9412108,30.7427673 15.440006,33.6530083 C13.7484397,35.0596348 11.4339819,36.7650565 9.45265657,38.6891529 C12.2815722,38.1626469 14.9177168,37.6722854 16.8526566,37.8036107 C21.229765,38.1012011 25.8815722,38.6927673 29.7924156,36.7036107 C33.8978373,34.6156589 36.2954277,29.8174661 35.9863915,25.221683" id="Fill-37" fill="#D27352"></path>
                    <path d="M48.6743433,40.2295143 C46.9580783,43.5632493 44.056271,45.4843336 42.1912108,44.5192734 C40.3261505,43.5554179 40.206271,40.0704782 41.9219337,36.7367432 C43.6375963,33.4030083 46.5394036,31.481924 48.4050662,32.4469842 C50.2689216,33.411442 50.3894036,36.8957794 48.6743433,40.2295143" id="Fill-38" fill="#0F0F0D"></path>
                    <path d="M27.7460301,32.1325264 C25.740006,35.1234902 22.9478373,36.7590324 21.5092831,35.7867432 C20.0713313,34.8126469 20.5321746,31.5987914 22.5381987,28.6078276 C24.5442228,25.6168637 27.3363915,23.9813215 28.7743433,24.9542131 C30.2128975,25.9277071 29.7508493,29.1421649 27.7460301,32.1325264" id="Fill-39" fill="#0F0F0D"></path>
                    <path d="M89.0568734,42.3144541 C87.4213313,45.7307191 84.8394036,47.8752975 81.076753,46.0771047 C75.1773554,43.2578276 64.6442228,24.5596348 63.7213313,22.821683 C62.5598855,20.6331288 61.4056686,18.2999962 64.103259,16.3090324 C67.1568734,14.0542131 72.726753,14.7921649 76.2177168,15.1361408 C91.0478373,16.6012011 95.306271,29.2439722 89.0568734,42.3144541" id="Fill-40" fill="#A5775D"></path>
                    <path d="M20.4056686,44.7421649 C19.6122951,43.8204782 18.0514518,43.0373456 16.3213313,42.5897553 L16.3153072,42.5879481 L16.3080783,42.5861408 C14.5888012,42.0963818 12.8520542,41.9831288 11.7098855,42.3795143 C6.2671144,44.2692734 9.38819874,50.0668637 13.8960301,51.6945746 L13.8948252,51.6963818 L13.9014518,51.6975866 L13.9092831,51.7005987 L13.9098855,51.6987914 C18.6171144,52.574695 24.1833795,49.1385505 20.4056686,44.7421649" id="Fill-41" fill="#4D3422"></path>
                    <path d="M8.01831922,54.7445746 C8.10687344,54.6867432 8.21410236,54.6493938 8.34241561,54.6367432 C8.76410236,54.5969842 8.96289754,54.9831288 9.21952404,55.2415625 C9.57795778,55.5987914 10.0141024,55.9307191 10.4592831,56.1644541 C11.8924156,56.9150565 13.1779578,56.8662613 14.6327771,56.5331288 L14.6514518,56.4710806 L14.6990421,56.5186709 L14.7653072,56.5048155 L14.7472349,56.5668637 C15.7894036,57.6343336 16.8436204,58.371683 18.4544638,58.5162613 C19.5677168,58.6156589 21.9568734,58.1307191 22.8514518,57.2831288 C23.1671144,56.9837312 23.6550662,57.0012011 23.9418132,57.3180685 C24.2279578,57.6373456 24.2050662,58.1367432 23.890006,58.4355384 C22.5068734,59.7469842 19.5598855,60.2036107 18.2984397,60.0909601 C17.8092831,60.0475866 17.3610903,59.9608396 16.9478373,59.8397553 C15.8116927,59.5054179 14.9472349,58.9005987 14.1984397,58.2198758 C13.2002469,58.3867432 12.1466325,58.4271047 11.0092831,58.0927673 C10.5954277,57.9710806 10.1731385,57.8012011 9.73880115,57.5728878 C9.11349995,57.2445746 8.23277706,56.6915625 7.85566862,56.0740926 C7.60325898,55.661442 7.61289754,55.0042131 8.01831922,54.7445746" id="Fill-42" fill="#4D3422"></path>
                    <path d="M14.3496445,58.234936 C14.5574759,58.3096348 14.7948252,58.2999962 15.0092831,58.1885505 C15.4201265,57.9734902 15.5894036,57.4602372 15.3881987,57.0421649 C15.366512,56.9963818 14.3978373,54.8590324 14.7363915,50.7024059 C14.7731385,50.231924 14.4321746,49.8234902 13.9743433,49.7915625 C13.5141024,49.7596348 13.1110903,50.1162613 13.0725361,50.5861408 C12.690006,55.2921649 13.8418132,57.7180685 13.8912108,57.8198758 C13.9894036,58.021683 14.1574759,58.1650565 14.3496445,58.234936" id="Fill-43" fill="#4D3422"></path>
                    <path d="M26.5375963,98.1054179 C27.1749457,98.4445746 27.9671144,98.6837312 28.9394036,98.795177 C30.2881987,98.9505987 31.6550662,98.6505987 32.8490421,98.0427673 C34.1026566,97.4048155 34.8526566,95.8728878 36.0315722,95.3361408 C37.2490421,94.781924 38.8966325,96.2499962 39.979765,96.8566228 C41.4647048,97.6873456 42.9610903,98.5234902 44.5978373,99.0710806 C48.3550662,100.32831 52.8803674,100.961442 55.0508493,97.2258999 C57.8779578,92.3608396 58.5104879,85.1096348 59.3598855,79.7265023 C59.6026566,78.1843336 52.3128975,73.6897553 49.4881987,77.3734902 C47.026753,80.5843336 46.1291626,83.2728878 45.3141024,86.3644541 C45.2285602,86.6891529 40.8026566,82.9060203 35.3598855,81.9758999 C31.7243433,81.3548155 29.5116927,83.5409601 27.653259,86.0427673 C25.1875963,89.3638517 22.1502469,95.7704782 26.5375963,98.1054179" id="Fill-44" fill="#D7C8AC"></path>
                    <path d="M28.6954277,100.535538 C29.3327771,100.874695 30.1249457,101.113249 31.0972349,101.225297 C32.4460301,101.380719 33.8128975,101.080117 35.0068734,100.47349 C36.2610903,99.8343336 37.0104879,98.3024059 38.1894036,97.7656589 C39.4068734,97.211442 41.0544638,98.6801167 42.1381987,99.2861408 C43.6225361,100.116864 45.119524,100.953008 46.7556686,101.501201 C50.5128975,102.75843 54.616512,104.519273 56.7869939,100.783731 C59.6141024,95.9186709 60.6689216,87.5397553 61.5177168,82.1560203 C61.7610903,80.6150565 61.9701265,79.0343336 61.6580783,77.5042131 C60.2580783,70.6331288 52.0291626,74.7710806 49.9671144,78.9307191 C48.5418132,81.8060203 48.3309698,85.0873456 47.5159096,88.1783095 C47.429765,88.5030083 47.3086807,88.8626469 47.0008493,89.0138517 C46.7026566,89.1602372 46.3436204,89.0554179 46.0363915,88.9301167 C43.1092831,87.7361408 41.0357891,84.8638517 37.9418132,84.1704782 C34.8460301,83.4771047 31.6141024,85.2783095 29.7556686,87.7807191 C27.290006,91.1012011 24.3080783,98.1999962 28.6954277,100.535538" id="Fill-45" fill="#D7C8AC"></path>
                    <path d="M56.7863915,99.6632493 C56.7863915,99.6632493 65.3960301,102.830719 66.579765,108.434334 C66.579765,108.434334 57.9634999,101.815659 54.7261505,101.802406 L56.7863915,99.6632493" id="Fill-46" fill="#D7C8AC"></path>
                    <path d="M71.9592831,116.433731 C69.9598855,111.216261 66.2514518,106.92831 61.006271,103.548189 C56.6243433,100.724093 46.5213313,98.9975866 42.656271,103.194575 C41.990006,103.918069 41.540006,104.763852 41.1809698,105.622888 C38.5098855,112.031322 41.1671144,119.69096 47.5171144,123.884334 C44.8110903,124.530117 41.2906084,125.4759 41.1942228,129.284936 C41.0321746,135.735538 55.7147048,134.954816 57.7538614,131.050599 C58.7201265,129.200599 57.4791626,126.065659 56.6966325,124.129514 C57.9478373,126.646984 59.9472349,128.872285 62.5327771,130.000599 C65.1177168,131.12831 68.3104879,131.021081 70.5839819,129.371683 C72.1743433,128.218069 74.640006,123.430117 71.9592831,116.433731" id="Fill-47" fill="#E4DCCC"></path>
                    <path d="M27.6249457,99.4650565 C28.2622951,99.8042131 29.0550662,100.042767 30.026753,100.154816 C31.3761505,100.310237 32.7424156,100.010237 33.9363915,99.4024059 C35.1906084,98.7644541 35.940006,97.2325264 37.1189216,96.6957794 C38.3363915,96.1415625 39.9845843,97.6096348 41.0677168,98.2156589 C42.5520542,99.0463818 44.0490421,99.8825264 45.6851867,100.430719 C49.4424156,101.687948 53.9683192,102.321081 56.1381987,98.5855384 C58.9653072,93.7204782 59.5984397,86.4686709 60.4472349,81.0861408 C60.6906084,79.5439722 60.8996445,77.9638517 60.5875963,76.4337312 C59.1881987,69.5632493 50.9592831,73.7012011 48.8972349,77.8602372 C47.4713313,80.7361408 46.3478373,89.6596348 46.040006,89.8108396 C45.7424156,89.9572252 39.1381987,84.7927673 36.0442228,84.0993938 C32.9484397,83.4054179 30.5436204,84.20843 28.6851867,86.7108396 C26.219524,90.0313215 23.2375963,97.1301167 27.6249457,99.4650565" id="Fill-48" fill="#E4DCCC"></path>
                </g>
            </g>
        </g>
    </g>
</svg>