<?xml version="1.0" encoding="UTF-8"?>
<svg width="97px" height="130px" viewBox="0 0 97 130" version="1.1" xmlns="http://www.w3.org/2000/svg" xmlns:xlink="http://www.w3.org/1999/xlink">
    <title>eating</title>
    <g id="Dog-states" stroke="none" stroke-width="1" fill="none" fill-rule="evenodd">
        <g id="for-markdown-descriptions" transform="translate(-41.000000, -26.000000)">
            <g id="Group" transform="translate(14.000000, 19.000000)">
                <g id="eating" transform="translate(27.108434, 7.831325)">
                    <path d="M70.913253,113.330868 C64.8921687,111.357374 56.1728916,110.044121 46.4572289,109.897736 C45.8572289,109.8887 45.2596386,109.884483 44.6674699,109.884483 C40.6090361,109.884483 36.7421687,110.093519 33.1957831,110.477856 C32.8054217,110.347133 32.4228916,110.214001 32.0463855,110.077254 C33.9927711,108.606772 35.0343373,106.517615 34.6512048,104.285688 C34.0066265,100.532073 29.5656627,97.7188202 24.5096386,97.7188202 C24.2018072,97.7188202 23.8915663,97.7290611 23.5807229,97.7501455 C22.2343373,97.8423141 20.9855422,98.1284587 19.8789157,98.5676154 C20.7963855,90.8790611 37.1283133,84.8441214 57.2379518,84.8441214 C57.4843373,84.8441214 57.7319277,84.8447238 57.9795181,84.846531 C78.9849398,85.0013503 95.9650602,91.6826756 95.9055783,99.770025 C95.8590361,106.078459 85.4578313,111.378459 70.913253,113.330868 L70.913253,113.330868 Z" id="Clip-155" fill-opacity="0.249950489" fill="#000000"></path>
                    <path d="M61.3638554,22.7188202 C60.623494,24.6025551 59.6939759,29.9537599 61.0716867,32.4646033 C63.013253,36.0025551 66.276506,33.2688202 67.4536145,31.6127961 C72.0542169,25.1170129 73.010241,11.809784 71.1018072,3.74954307 C70.6945783,2.02785632 69.6668675,-0.0606978984 68.0210843,0.00135029439 C66.4108434,0.0609888486 65.810241,2.11339849 65.6060241,3.78809728 C65.1680723,7.38508523 64.9692771,11.0212298 64.5789157,14.6236395 C64.1921687,18.2013503 62.6355422,19.4790611 61.3638554,22.7188202" id="Fill-157" fill="#FFFFFE"></path>
                    <path d="M84.2174699,78.5591816 C82.6626506,71.1929166 77.8704819,45.693519 87.0957831,44.4146033 C94.413253,43.4007479 95.4301205,71.1627961 95.8963855,77.3140009 C96.6108434,86.7248443 96.5686747,97.0826756 94.3771084,98.0989407 C90.7759036,99.7682178 87.3680723,99.1224346 86.0090361,97.9838804 C84.586747,96.7911093 85.9463855,92.4073744 85.8253012,90.5091816 C85.5668675,86.4652057 85.0554217,82.5386997 84.2174699,78.5591816" id="Fill-158" fill="#C6C1BB"></path>
                    <path d="M29.4090361,59.6146033 C29.4090361,59.6146033 22.4915663,78.130266 31.3138554,101.841712 L17.310241,104.56882 C17.310241,104.56882 6.81084337,75.2320732 22.0656627,51.4778563 L29.4090361,59.6146033" id="Fill-159" fill="#C6C1BB"></path>
                    <path d="M34.6512048,104.285688 C35.3343373,108.266411 31.4861446,111.792314 26.0554217,112.164001 C20.6289157,112.534483 15.6728916,109.609784 14.9873494,105.627254 C14.3060241,101.650748 18.1512048,98.1212298 23.5807229,97.7501455 C29.0108434,97.3796635 33.9674699,100.304362 34.6512048,104.285688" id="Fill-160" fill="#C6C1BB"></path>
                    <path d="M82.1162651,28.1844828 C76.5638554,22.7417117 71.3987952,21.9862901 63.5542169,22.309784 C55.8204819,22.6290611 48.0656627,24.193519 41.2271084,27.5664105 C33.9879518,31.1362901 31.0753012,39.0411093 29.3975904,45.9633985 C27.6036145,53.3621937 27.396988,61.5495431 30.6662651,68.6477358 C33.7307229,75.3049648 39.4698795,78.1447238 45.7855422,79.9019527 C50.2084337,81.1320732 54.7307229,81.8754467 59.2686747,82.1441214 L59.2686747,82.2374949 C59.6259036,82.2284587 59.9831325,82.2091816 60.3409639,82.193519 C60.6981928,82.2091816 61.0560241,82.2284587 61.413253,82.2374949 L61.413253,82.1441214 C65.9512048,81.8754467 70.4728916,81.1320732 74.8957831,79.9019527 C81.2120482,78.1447238 86.9512048,75.3049648 90.0156627,68.6477358 C96.1746988,55.2748443 90.110241,36.0194226 82.1162651,28.1844828" id="Fill-161" fill="#FFFFFE"></path>
                    <path d="M58.0674699,72.873037 C54.9885542,73.0525551 51.9,73.0296635 48.8246988,72.8007479 C43.6114458,72.4127961 38.9295181,70.7344828 34.5554217,67.6561696 C31.2337349,65.3182178 28.126506,61.980266 27.6307229,57.7549648 C27.213253,62.4356876 27.2909639,67.2983382 28.9548193,71.6483382 C31.4277108,78.1176154 37,80.5688202 42.839759,82.433278 C47.7319277,83.9959286 52.946988,84.1320732 58.010241,84.2380973 C64.7759036,84.3784587 71.4421687,83.4133985 77.4066265,80.1658081 C82.2548193,77.5260491 87.8204819,75.2453262 91.1090361,70.5736395 C94.8445783,65.2676154 93.7710843,55.9838804 92.189759,50.0658081 C92.086747,56.206772 89.1578313,62.5368925 84.1885542,66.296531 C77.5355422,71.3290611 65.9512048,72.4115913 58.0674699,72.873037" id="Fill-162" fill="#C6C1BB"></path>
                    <path d="M69.063253,59.833278 C69.063253,59.833278 75.9801205,78.3489407 67.1584337,102.061591 L81.1620482,104.787495 C81.1620482,104.787495 91.6614458,75.4507479 76.4060241,51.6971334 L69.063253,59.833278" id="Fill-163" fill="#FFFFFE"></path>
                    <path d="M63.8204819,104.504362 C63.1379518,108.48629 66.9855422,112.011591 72.4168675,112.382676 C77.8433735,112.75376 82.7987952,109.828459 83.4849398,105.846531 C84.1662651,101.869423 80.3204819,98.3411093 74.8915663,97.9694226 C69.4620482,97.5983382 64.5042169,100.523037 63.8204819,104.504362" id="Fill-164" fill="#FFFFFE"></path>
                    <g id="head" transform="translate(0.000000, 21.505567)">
                        <path d="M21.122183,22.3461798 C19.3927722,26.9742226 18.7140688,35.3039783 19.8044256,40.0552512 C20.8428884,44.579901 23.1413839,48.650102 25.3046051,51.5986083 C30.0852657,58.1213895 36.3930088,61.3884908 42.6057102,62.3953711 C51.7163117,63.8747338 61.256059,64.5005024 69.4343179,55.1073609 C73.5141182,50.4186047 77.0172538,45.5435005 78.2732049,37.2029246 C81.5658491,15.3124444 71.6307746,9.12508956 61.4945381,5.16068608 C51.9518754,1.43072042 35.8350027,-0.305321615 26.9436387,12.0206971 C24.9436795,14.7924733 22.4615143,18.762888 21.122183,22.3461798" id="Fill-165" fill="#F26200"></path>
                        <path d="M75.4975131,22.2902059 C73.4361466,11.6963728 59.3901858,7.79442854 50.3873766,6.34189752 C48.7670683,6.08152682 46.842662,5.98509323 44.7453144,6.0381317 C42.6468062,5.98509323 40.7218196,6.08152682 39.1032523,6.34189752 C33.0474079,7.31889037 24.7143107,9.40788311 19.2771084,13.8926479 C24.0393757,20.8461128 36.4383325,21.5850352 41.5470626,27.6489001 C47.977226,35.2804137 44.7859382,47.0917208 37.3227702,52.3750764 C34.8377558,54.1349895 31.8321767,54.3845114 29.2316746,55.85874 C27.7547102,56.6965068 25.4594668,58.5365803 23.4514916,60.220552 C26.1256968,69.9850561 34.094921,76.0217991 43.845788,75.9018598 C44.1417612,75.8982435 44.4435378,75.8879975 44.7453144,75.8759433 C45.0459304,75.8879975 45.3471267,75.8982435 45.6454213,75.9018598 C55.6969042,76.0254153 63.8547388,69.6065542 66.2701125,59.3050355 C67.1278545,55.6544213 68.5879891,51.8651838 70.1177644,48.0030183 C73.4669046,39.5463948 77.144517,30.7438158 75.4975131,22.2902059" id="Fill-166" fill="#FFFFFE"></path>
                        <path d="M38.8960137,51.1824642 C44.8257268,45.2630919 47.7163642,34.1174953 41.9879454,27.2902155 C36.8943004,21.2188063 23.6754295,20.8175376 18.9272243,13.8554217 C16.2886896,16.0405497 14.3300405,18.7911195 13.6570984,22.2634273 C12.0172723,30.7275547 15.6817109,39.5410853 19.0215404,48.0082299 C20.5467986,51.8752004 23.3687481,59.9182186 23.4514916,60.220552 C25.4535377,58.5344852 27.6992943,56.8629055 29.1718976,56.0240964 C31.7647208,54.5480337 34.4419241,54.1478301 36.9196007,52.3857274 C37.7120432,51.822377 38.1892643,51.8879812 38.8960137,51.1824642 Z" id="Fill-167" fill="#D27352"></path>
                        <path d="M38.7706577,57.3116443 C40.0637898,56.4399099 42.2663007,55.9975648 44.5699829,56.0253271 L44.5880077,56.0253271 C46.8916899,55.9975648 49.091875,56.4399099 50.3855885,57.3116443 C56.5430834,61.4685773 50.7425953,67.5725688 44.5880077,68.0704383 L44.5880077,68.0722892 L44.5699829,68.0722892 L44.5699829,68.0704383 C38.4153953,67.5725688 32.6131628,61.4685773 38.7706577,57.3116443" id="Fill-168" fill="#4D3422"></path>
                        <path d="M88.9887304,22.4821202 C88.5988085,26.3406445 86.8464879,29.3020888 82.5777163,28.8745648 C75.8838634,28.2026556 59.1649444,13.8397705 57.6652001,12.4851439 C55.7778618,10.7786506 53.8433837,8.93105041 55.7609846,6.07708749 C57.9329076,2.84603881 63.5827011,1.62531366 67.0803585,0.747448363 C81.9474396,-2.98377939 90.4797451,7.720533 88.9887304,22.4821202 M0.168018163,22.4821202 C0.559103988,26.3406445 2.31084258,29.3020888 6.58077814,28.8745648 C13.2746311,28.2026556 29.9929681,13.8397705 31.4932944,12.4851439 C33.3800507,10.7786506 35.3122009,8.93105041 33.395182,6.07708749 C31.2250048,2.84603881 25.5757934,1.62531366 22.075808,0.747448363 C7.20872696,-2.98377939 -1.32357852,7.720533 0.168018163,22.4821202" id="Combined-Shape" fill="#A5775D"></path>
                        <path d="M65.8135915,39.2346972 C67.1941447,39.2997106 66.9967545,40.6156081 66.4688092,41.5589285 C65.7411169,42.8623234 64.5143512,43.8243977 63.1031583,44.1038305 C61.2535823,44.4707815 59.6178948,44.9427543 57.7748003,44.1332116 C56.5456778,43.5937249 55.5363361,42.5335053 55.0578857,41.2313607 C54.7267415,40.3311742 54.5216913,38.6108179 55.9817899,39.3265912 C56.8391116,39.7473033 57.411838,40.7856433 58.199042,41.2838715 C59.5012284,42.1090424 61.0815287,42.0096468 62.4090518,41.3082516 C63.6069454,40.6737452 64.3470115,39.1659329 65.8135915,39.2346972" id="Fill-172" fill="#0F0F0D"></path>
                        <path d="M23.3599847,39.1574445 C21.9785474,39.1965904 22.1540989,40.5082892 22.6654369,41.4546262 C23.3711776,42.7638396 24.5811871,43.7431089 25.9873666,44.0463344 C27.8300685,44.4458713 29.4577493,44.9454477 31.3134114,44.1749567 C32.5511086,43.6610889 33.5779083,42.6258969 34.0774643,41.341538 C34.4238545,40.4529879 34.658316,38.7473444 33.1861574,39.4314659 C32.321949,39.8334882 31.7322608,40.8550102 30.9369771,41.3353244 C29.6215188,42.13067 28.0433224,42.002669 26.7272751,41.2806444 C25.5414186,40.6282124 24.8262523,39.1164345 23.3599847,39.1574445" id="Fill-173" fill="#0F0F0D"></path>
                        <path d="M58.9568472,60.8433735 C60.3091139,62.5263181 60.6229091,65.0477341 59.7572273,67.2732544 C59.0637571,69.0576318 57.5132735,70.4254745 56.021157,71.5952531 C54.4631608,72.8160481 52.534158,73.4426509 50.6964622,73.7811605 C48.7275849,74.144278 46.7159437,74.2481116 44.8626448,73.7991663 C43.0099238,73.3490206 41.321324,72.3082838 40.3614458,70.702164 C43.0018333,70.8978274 45.721392,70.6673528 48.3941414,70.0365486 C50.6074669,69.5143796 53.6454439,68.7587351 55.5519089,67.287659 C57.5722185,65.7283544 58.7863691,63.2609559 58.9568472,60.8433735" id="Fill-174" fill="#AC3C4A"></path>
                    </g>
                    <path d="M46.0716867,93.2640009 C46.5548193,93.2640009 46.946988,92.8718322 46.946988,92.3893021 L46.946988,84.7188202 C46.946988,84.2350852 46.5548193,83.8429166 46.0716867,83.8429166 C45.5873494,83.8429166 45.1957831,84.2350852 45.1957831,84.7188202 L45.1957831,92.3893021 C45.1957831,92.8718322 45.5873494,93.2640009 46.0716867,93.2640009" id="Fill-171" fill="#4D3422"></path>
                    <path d="M47.9656627,128.568218 C47.3740964,128.568218 46.776506,128.563398 46.176506,128.554362 C27.9150602,128.279664 13.1740964,123.880868 13.2515014,118.729061 C13.2915663,116.065206 17.2873494,113.720627 23.6620482,112.116411 C24.1421687,112.16882 24.6319277,112.195929 25.1271084,112.195929 C25.4343373,112.195929 25.7439759,112.185085 26.0554217,112.164001 C27.9493976,112.034483 29.6512048,111.52123 31.0349398,110.7387 C31.7409639,110.644121 32.4614458,110.557374 33.1957831,110.477856 C39.8108434,112.692314 48.386747,114.062796 57.7638554,114.132073 C58.0108434,114.13388 58.2590361,114.134483 58.5054217,114.134483 C62.8578313,114.134483 67.0331325,113.851953 70.913253,113.330868 C76.2096386,115.066411 79.4180723,117.312796 79.3822299,119.723639 C79.3072289,124.70617 65.4,128.568218 47.9656627,128.568218" id="Fill-175" fill-opacity="0.249950489" fill="#000000"></path>
                    <path d="M58.5054217,114.134483 C58.2590361,114.134483 58.0108434,114.13388 57.7638554,114.132073 C48.386747,114.062796 39.8108434,112.692314 33.1957831,110.477856 C36.7421687,110.093519 40.6090361,109.884483 44.6674699,109.884483 C45.2596386,109.884483 45.8572289,109.8887 46.4572289,109.897736 C56.1728916,110.044121 64.8921687,111.357374 70.913253,113.330868 C67.0331325,113.851953 62.8578313,114.134483 58.5054217,114.134483" id="Fill-176" fill="#569870"></path>
                    <path d="M25.1271084,112.195929 C24.6319277,112.195929 24.1421687,112.16882 23.6620482,112.116411 C25.8590361,111.563398 28.3379518,111.098338 31.0349398,110.7387 C29.6512048,111.52123 27.9493976,112.034483 26.0554217,112.164001 C25.7439759,112.185085 25.4343373,112.195929 25.1271084,112.195929" id="Fill-177" fill="#A19D99"></path>
                    <polyline id="Fill-178" fill="#066DFF" points="73.5246988 101.38388 18.9831325 102.142917 15.9921687 117.447133 76.863253 116.034483 73.5246988 101.38388"></polyline>
                    <path d="M15.9919277,117.447133 C16.0584337,122.629061 29.7753012,126.656772 46.6301205,126.441712 C63.4855422,126.226651 77.0957831,121.85135 77.029759,116.66882 C76.963253,111.48629 63.2457831,107.459182 46.3909639,107.673639 C29.5361446,107.8887 15.9259036,112.264001 15.9919277,117.447133" id="Fill-179" fill="#066DFF"></path>
                    <path d="M18.9829604,102.142917 C19.0355422,106.264001 31.3156627,109.448941 46.4114458,109.256772 C61.5072289,109.064603 73.7018072,105.567615 73.6495659,101.446531 C73.596988,97.3248443 61.3168675,94.1405069 46.2210843,94.333278 C31.1253012,94.5254467 18.9301205,98.0224346 18.9829604,102.142917" id="Fill-180" fill="#79ADF7"></path>
                    <path d="M23.0932595,102.090507 C23.1331325,105.212796 33.5626506,107.611591 46.3879518,107.447736 C59.2138554,107.284483 69.5789157,104.62123 69.5392706,101.498941 C69.4993976,98.3766515 59.0698795,95.9784587 46.2439759,96.1417117 C33.4186747,96.3055672 23.0536145,98.9688202 23.0932595,102.090507" id="Fill-181" fill="#2A2B2B"></path>
                    <path d="M25.873494,98.6549648 L25.8945783,98.5362901 C25.9054217,98.2127961 25.5295181,98.0103864 25.436747,97.7001455 C25.0524096,96.4236395 27.3409639,97.0585792 27.7481928,96.723037 C28.3108434,96.259784 27.9915663,95.4874949 28.1951807,94.8507479 C28.7801205,93.0218322 29.9512048,93.7784587 31.0933735,92.630266 C31.163253,92.5603864 31.223494,92.4772539 31.25,92.3814708 C31.2819277,92.2633985 31.2596386,92.1380973 31.2548193,92.0152057 C31.2277108,91.3362901 31.853012,90.7031575 32.5319277,90.7218322 C32.7819277,90.7284587 33.023494,90.8103864 33.2692771,90.8573744 C34.0638554,91.009784 34.9228916,90.7808684 35.5361446,90.2531575 C34.9915663,89.7001455 35.2090361,88.6152057 35.9246988,88.3146033 C36.6903614,87.9929166 37.5861446,88.5188202 38.3879518,88.3025551 C39.7740964,87.9272539 39.9927711,87.3121937 41.463253,88.0013503 C42.1114458,88.3049648 42.8307229,88.7537599 43.4831325,88.4609888 C44.0710843,88.1971334 44.3421687,87.4091816 44.9716867,87.273037 C46.0277108,87.0453262 46.460241,88.7417117 47.4813253,89.0947238 C48.1843373,89.3380973 48.9096386,88.8688202 49.560241,88.5079768 C50.2108434,88.146531 51.1379518,87.9242419 51.610241,88.4989407 C51.7939759,88.7218322 51.8650602,89.0284587 52.0746988,89.2260491 C52.989759,90.0856876 54.5144578,87.8537599 55.5078313,88.6218322 C55.896988,88.9224346 55.8855422,89.496531 55.9475904,89.9850852 C56.010241,90.4724346 56.3578313,91.0525551 56.8361446,90.9393021 C57.2198795,90.8477358 57.3572289,90.3808684 57.6295181,90.0953262 C58.2560241,89.4393021 59.3487952,89.883278 60.1216867,90.3591816 C60.5740964,90.6368925 61.0789157,90.9995431 61.0993976,91.530266 C61.1072289,91.7507479 61.0271084,91.9670129 61.0289157,92.1874949 C61.036747,93.0170129 62.0674699,93.3603864 62.873494,93.556772 C66.0771084,94.3386997 62.426506,98.2941214 64.8933735,99.3862901 C65.1759036,99.5115913 65.4933735,99.5603864 65.7590361,99.7206274 C66.0246988,99.8808684 66.2295181,100.215808 66.1,100.497133 C66.05,100.605567 65.9524096,100.709784 65.9807229,100.825447 C65.996988,100.891712 66.0518072,100.940507 66.103012,100.985688 C66.553012,101.374242 67.3355422,101.829664 67.5873494,102.370627 C67.6590361,102.525447 67.8289157,103.848941 67.5180723,103.847133 C63.903012,105.856772 55.8126506,107.327856 46.3879518,107.447736 C36.723494,107.570627 28.4216867,106.2387 24.8987952,104.239302 C24.3849398,103.947736 26.3096386,101.2887 25.6168675,100.526049 C25.3409639,100.223037 24.963253,99.870025 25.1018072,99.4844828 C25.2307229,99.1248443 25.7590361,98.9880973 25.873494,98.6549648" id="Fill-188" fill="#66462C"></path>
                    <path d="M61.0475904,91.9784587 C61.036747,92.0483382 61.0283133,92.1176154 61.0289157,92.1874949 C61.0301205,92.2911093 61.046988,92.3868925 61.0777108,92.4766515 L61.1054217,92.5417117 L61.1325301,92.6049648 L61.1650602,92.6561696 L61.2072289,92.7236395 L61.2463855,92.7712298 L61.2975904,92.8326756 L61.3481928,92.8808684 L61.4036145,92.933278 L61.5066265,93.0133985 L61.5216867,93.0254467 L61.6277108,93.0941214 L61.6518072,93.1091816 L61.7518072,93.1646033 L61.7903614,93.1856876 C62.0192771,93.3031575 62.276506,93.3929166 62.5295181,93.4658081 L62.5626506,93.4754467 L62.6704819,93.5049648 L62.7192771,93.5182178 L62.8722892,93.5561696 C63.1584337,93.6266515 63.5560241,93.880266 63.9487952,94.1929166 C64.5451807,94.9682178 64.2445783,96.2121937 64.1192771,97.3025551 C64.0975904,97.4923141 64.0993976,97.6983382 64.1421687,97.8862901 C64.0536145,97.9380973 63.9680723,97.9941214 63.8909639,98.0615913 C63.3512048,98.5350852 63.3180723,99.3429166 63.1331325,100.036892 C62.9475904,100.730868 62.3144578,101.477856 61.6421687,101.225447 C60.9813253,100.977856 60.7819277,99.9055672 60.076506,99.9013503 C59.1054217,99.8959286 59.0560241,101.881471 58.0921687,101.766411 C57.1819277,101.658579 57.0355422,99.7043623 56.2108434,100.104362 C55.7819277,100.311591 55.8891566,100.970627 55.6114458,101.357374 C55.2,101.929061 54.2891566,101.591712 53.7542169,101.13388 C53.2204819,100.674844 52.5710843,100.094724 51.9138554,100.347133 C51.4024096,100.542917 51.2006024,101.145326 50.8349398,101.552555 C50.3584337,102.083278 49.5337349,102.266411 48.8771084,101.987495 C48.2204819,101.708579 47.7801205,100.987495 47.8313253,100.276049 C47.3457831,100.748941 46.7945783,101.25135 46.1168675,101.277254 C45.439759,101.302555 44.7554217,100.520025 45.1349398,99.9585792 C45.3295181,99.6718322 44.3542169,99.7049648 44.2933735,99.7188202 C43.7590361,99.8417117 43.8783133,100.406772 43.5771084,100.60135 C42.9403614,101.012194 41.6144578,101.657977 41.5180723,100.063398 C41.5036145,99.8308684 41.5566265,99.5977358 41.5403614,99.3652057 C41.4843373,98.5868925 40.4987952,98.0453262 39.8120482,98.4158081 C39.5259036,98.7170129 39.3481928,99.1194226 39.3198795,99.533278 C39.3078313,99.7007479 39.3150602,99.8826756 39.2150602,100.017615 C39.1361446,100.124844 39.0054217,100.177856 38.8801205,100.221832 C38.4873494,100.359182 38.0650602,100.455567 37.6560241,100.377254 C37.2475904,100.298941 36.8572289,100.012194 36.7608434,99.6073744 C36.6692771,99.2218322 36.8506024,98.8091816 36.7548193,98.4242419 C36.6228916,97.8989407 35.9945783,97.6212298 35.460241,97.7091816 C34.9259036,97.7977358 34.4771084,98.1549648 34.0873494,98.5314708 C33.2650602,99.3266515 32.2240964,100.48629 31.0144578,99.5977358 C30.4656627,99.1941214 30.1753012,98.5140009 30.0879518,97.8386997 C29.8054217,97.4001455 29.0963855,97.6380973 28.7644578,98.0393021 C28.4319277,98.4411093 28.210241,98.9814708 27.7289157,99.1820732 C27.3614458,99.3350852 26.9325301,99.2393021 26.5813253,99.0525551 C26.3114458,98.9091816 26.0801205,98.7073744 25.8879518,98.473037 C25.7174699,98.2646033 25.276506,97.6748443 25.2385542,97.4133985 C25.2066265,97.1886997 25.2686747,96.9621937 25.3421687,96.7471334 C25.4451807,96.4459286 25.5819277,96.1405069 25.8325301,95.943519 C26.1156627,95.7212298 26.496988,95.6742419 26.8192771,95.5140009 C27.4475904,95.1995431 27.7753012,94.5031575 28.289759,94.0248443 C28.9801205,93.3814708 29.8698795,93.4766515 30.6271084,93.0025551 L30.7259036,92.9356876 L30.8240964,92.8640009 C30.9138554,92.7953262 31.0036145,92.7206274 31.0933735,92.630266 C31.163253,92.5603864 31.223494,92.4772539 31.25,92.3814708 C31.2813253,92.2658081 31.2608434,92.1429166 31.2548193,92.0152057 C31.2481928,91.8459286 31.2819277,91.6784587 31.3475904,91.5236395 C31.8156627,90.4188202 32.7198795,90.9923141 33.523494,90.5513503 C33.9921687,90.293519 34.2090361,89.7477358 34.5572289,89.3405069 C35.0542169,88.759784 36.0487952,88.1423141 36.8289157,88.2266515 C36.9331325,88.2374949 37.0373494,88.2531575 37.1427711,88.2688202 C37.5626506,88.3338804 37.986747,88.4109888 38.3879518,88.3019527 C39.1674699,88.0911093 39.5783133,87.8043623 40.0493976,87.7164105 C40.1018072,87.706772 40.1548193,87.6995431 40.2096386,87.6947238 C40.3186747,87.6856876 40.4331325,87.6880973 40.5572289,87.7055672 C40.6192771,87.7133985 40.6843373,87.7254467 40.7518072,87.7411093 C40.9560241,87.7886997 41.1879518,87.8724346 41.463253,88.0013503 C41.8680723,88.1911093 42.3012048,88.4374949 42.7283133,88.5242419 C42.8138554,88.5411093 42.8987952,88.5525551 42.9837349,88.5555672 C43.153012,88.5609888 43.3204819,88.5344828 43.4831325,88.4609888 C43.7771084,88.3290611 43.9915663,88.0658081 44.2120482,87.8188202 C44.3216867,87.6959286 44.4331325,87.5760491 44.5566265,87.4790611 C44.6795181,87.3814708 44.8144578,87.306772 44.9716867,87.273037 C45.1493976,87.2344828 45.3078313,87.2543623 45.4560241,87.3091816 C46.3722892,87.6489407 46.9120482,88.3640009 48.0048193,88.1531575 C48.3198795,88.0917117 48.6192771,87.9670129 48.9319277,87.8959286 C49.65,87.733278 50.3126506,87.9043623 50.963253,88.2079768 C51.5843373,88.4971334 51.5891566,88.7688202 52.0746988,89.2260491 C52.7608434,89.8706274 53.7903614,88.7766515 54.6813253,88.5127961 C54.7554217,88.4911093 54.8289157,88.4748443 54.9006024,88.4658081 C55.1162651,88.4386997 55.3216867,88.4778563 55.5078313,88.6218322 C55.5879518,88.6844828 55.6487952,88.7609888 55.6993976,88.8429166 C55.739759,88.9103864 55.7753012,88.980266 55.8018072,89.056772 C55.8210843,89.1133985 55.836747,89.1724346 55.85,89.233278 C55.8771084,89.3543623 55.8933735,89.4814708 55.9072289,89.6085792 C55.9138554,89.6718322 55.9204819,89.7356876 55.926506,89.7983382 C55.9331325,89.8615913 55.939759,89.9236395 55.9475904,89.9850852 C55.9626506,90.106772 55.9963855,90.2344828 56.0451807,90.3555672 C56.1427711,90.5983382 56.3024096,90.8146033 56.5042169,90.906772 C56.6048193,90.9525551 56.7162651,90.9676154 56.8361446,90.9393021 C56.9801205,90.9049648 57.089759,90.8182178 57.1843373,90.7073744 C57.2789157,90.596531 57.3590361,90.4633985 57.4445783,90.3350852 C57.5018072,90.2495431 57.5614458,90.1670129 57.6295181,90.0953262 C57.7078313,90.0133985 57.7939759,89.9483382 57.8849398,89.8983382 C58.0216867,89.8242419 58.1716867,89.783278 58.3295181,89.7694226 C58.9072289,89.7194226 59.589759,90.0320732 60.1216867,90.3591816 C60.1783133,90.393519 60.2355422,90.4296635 60.2927711,90.4676154 C60.6927711,90.730266 61.0813253,91.0664105 61.0993976,91.530266 C61.1012048,91.5850852 61.0981928,91.6405069 61.0915663,91.6953262 C61.0807229,91.7899045 61.0614458,91.8838804 61.0475904,91.9784587" id="Fill-189" fill="#8C5C3A"></path>
                    <path d="M34.7018072,94.9368925 C34.7584337,94.6856876 34.9433735,94.4712298 35.2385542,94.4646033 C35.6795181,94.4555672 36.0903614,94.5272539 36.4819277,94.7374949 C36.6120482,94.8085792 36.7006024,94.9049648 36.7560241,95.0121937 C36.9650602,95.0911093 37.1704819,95.1838804 37.3686747,95.3001455 C37.9698795,95.6543623 37.760241,96.6176154 37,96.5140009 C36.5246988,96.4489407 36.0746988,96.2953262 35.6548193,96.0790611 C35.4698795,96.0495431 35.2855422,96.0194226 35.1012048,95.9899045 C34.6012048,95.9091816 34.4596386,95.2754467 34.7018072,94.9368925" id="Fill-190" fill="#66462C"></path>
                    <path d="M31.3084337,95.5133985 L31.4144578,95.5019527 C31.746988,95.4670129 32.0963855,95.7260491 32.1168675,96.0712298 C32.1373494,96.4176154 31.9036145,96.7368925 31.5475904,96.7736395 L31.4409639,96.7850852 C31.1084337,96.8194226 30.7596386,96.5603864 30.7391566,96.2158081 C30.7186747,95.8688202 30.9518072,95.5501455 31.3084337,95.5133985" id="Fill-191" fill="#66462C"></path>
                    <path d="M32.4933735,92.496531 L32.5993976,92.4850852 C32.9319277,92.4507479 33.2813253,92.709784 33.3018072,93.0543623 C33.3222892,93.4013503 33.0885542,93.720025 32.7319277,93.7573744 L32.626506,93.7682178 C32.2933735,93.8031575 31.9445783,93.543519 31.9240964,93.1989407 C31.903012,92.8525551 32.136747,92.533278 32.4933735,92.496531" id="Fill-192" fill="#66462C"></path>
                    <path d="M55.1084337,97.4091816 C55.7018072,97.3718322 56.2963855,97.3923141 56.8855422,97.4712298 C56.9554217,97.480266 57.0192771,97.506772 57.0801205,97.5405069 C57.8313253,97.5380973 57.8945783,98.6615913 57.1295181,98.8140009 C56.3771084,98.9633985 55.6313253,98.8790611 54.9114458,98.6278563 C54.3078313,98.4170129 54.4975904,97.4471334 55.1084337,97.4091816" id="Fill-193" fill="#66462C"></path>
                    <path d="M60.3289157,96.6350852 L60.4240964,96.5182178 C60.6415663,96.2495431 61.0554217,96.206772 61.323494,96.4242419 C61.5927711,96.6429166 61.6355422,97.0543623 61.4174699,97.3236395 L61.3222892,97.4411093 C61.1054217,97.7091816 60.6909639,97.7519527 60.423494,97.5344828 C60.1536145,97.3164105 60.1108434,96.9043623 60.3289157,96.6350852" id="Fill-194" fill="#66462C"></path>
                    <path d="M42.1271084,97.7856876 L42.2222892,97.6688202 C42.439759,97.4001455 42.8536145,97.3573744 43.1216867,97.5748443 C43.3909639,97.793519 43.4337349,98.2049648 43.2156627,98.4742419 L43.1204819,98.5911093 C42.903012,98.8591816 42.4891566,98.9025551 42.2210843,98.6850852 C41.9524096,98.4670129 41.9090361,98.0549648 42.1271084,97.7856876" id="Fill-195" fill="#66462C"></path>
                </g>
            </g>
        </g>
    </g>
</svg>