<?xml version="1.0" encoding="UTF-8"?>
<svg width="160px" height="214px" viewBox="0 0 160 214" version="1.1" xmlns="http://www.w3.org/2000/svg" xmlns:xlink="http://www.w3.org/1999/xlink">
    <title>eating</title>
    <g id="Dog-states" stroke="none" stroke-width="1" fill="none" fill-rule="evenodd">
        <g id="for-markdown-descriptions" transform="translate(-59.000000, -32.000000)">
            <g id="eating" transform="translate(59.000000, 32.000000)">
                <path d="M117.716,188.129241 C107.721,184.853241 93.247,182.673241 77.119,182.430241 C76.123,182.415241 75.131,182.408241 74.148,182.408241 C67.411,182.408241 60.992,182.755241 55.105,183.393241 C54.457,183.176241 53.822,182.955241 53.197,182.728241 C56.428,180.287241 58.157,176.819241 57.521,173.114241 C56.451,166.883241 49.079,162.213241 40.686,162.213241 C40.175,162.213241 39.66,162.230241 39.144,162.265241 C36.909,162.418241 34.836,162.893241 32.999,163.622241 C34.522,150.859241 61.633,140.841241 95.015,140.841241 C95.424,140.841241 95.835,140.842241 96.246,140.845241 C131.115,141.102241 159.302,152.193241 159.20326,165.618241 C159.126,176.090241 141.86,184.888241 117.716,188.129241 L117.716,188.129241 Z" id="Clip-155" fill-opacity="0.249950489" fill="#000000"></path>
                <path d="M101.864,37.7132415 C100.635,40.8402415 99.092,49.7232415 101.379,53.8912415 C104.602,59.7642415 110.019,55.2262415 111.973,52.4772415 C119.61,41.6942415 121.197,19.6042415 118.029,6.22424149 C117.353,3.36624149 115.647,-0.100758511 112.915,0.00224148868 C110.242,0.101241489 109.245,3.50824149 108.906,6.28824149 C108.179,12.2592415 107.849,18.2952415 107.201,24.2752415 C106.559,30.2142415 103.975,32.3352415 101.864,37.7132415" id="Fill-157" fill="#FFFFFE"></path>
                <path d="M139.801,130.408241 C137.22,118.180241 129.265,75.8512415 144.579,73.7282415 C156.726,72.0452415 158.414,118.130241 159.188,128.341241 C160.374,143.963241 160.304,161.157241 156.666,162.844241 C150.688,165.615241 145.031,164.543241 142.775,162.653241 C140.414,160.673241 142.671,153.396241 142.47,150.245241 C142.041,143.532241 141.192,137.014241 139.801,130.408241" id="Fill-158" fill="#C6C1BB"></path>
                <path d="M48.819,98.9602415 C48.819,98.9602415 37.336,129.696241 51.981,169.057241 L28.735,173.584241 C28.735,173.584241 11.306,124.885241 36.629,85.4532415 L48.819,98.9602415" id="Fill-159" fill="#C6C1BB"></path>
                <path d="M57.521,173.114241 C58.655,179.722241 52.267,185.575241 43.252,186.192241 C34.244,186.807241 26.017,181.952241 24.879,175.341241 C23.748,168.740241 30.131,162.881241 39.144,162.265241 C48.158,161.650241 56.386,166.505241 57.521,173.114241" id="Fill-160" fill="#C6C1BB"></path>
                <path d="M136.313,46.7862415 C127.096,37.7512415 118.522,36.4972415 105.5,37.0342415 C92.662,37.5642415 79.789,40.1612415 68.437,45.7602415 C56.42,51.6862415 51.585,64.8082415 48.8,76.2992415 C45.822,88.5812415 45.479,102.172241 50.906,113.955241 C55.993,125.006241 65.52,129.720241 76.004,132.637241 C83.346,134.679241 90.853,135.913241 98.386,136.359241 L98.386,136.514241 C98.979,136.499241 99.572,136.467241 100.16599,136.441241 C100.759,136.467241 101.353,136.499241 101.946,136.514241 L101.946,136.359241 C109.479,135.913241 116.985,134.679241 124.327,132.637241 C134.812,129.720241 144.339,125.006241 149.426,113.955241 C159.65,91.7562415 149.583,59.7922415 136.313,46.7862415" id="Fill-161" fill="#FFFFFE"></path>
                <path d="M96.392,120.969241 C91.281,121.267241 86.154,121.229241 81.049,120.849241 C72.395,120.205241 64.623,117.419241 57.362,112.309241 C51.848,108.428241 46.69,102.887241 45.867,95.8732415 C45.174,103.643241 45.303,111.715241 48.065,118.936241 C52.17,129.675241 61.42,133.744241 71.114,136.839241 C79.235,139.433241 87.892,139.659241 96.297,139.835241 C107.528,140.068241 118.594,138.466241 128.495,133.075241 C136.543,128.693241 145.782,124.907241 151.241,117.152241 C157.442,108.344241 155.66,92.9332415 153.035,83.1092415 C152.864,93.3032415 148.002,103.811241 139.753,110.052241 C128.709,118.406241 109.479,120.203241 96.392,120.969241" id="Fill-162" fill="#C6C1BB"></path>
                <path d="M114.645,99.3232415 C114.645,99.3232415 126.127,130.059241 111.483,169.422241 L134.729,173.947241 C134.729,173.947241 152.158,125.248241 126.834,85.8172415 L114.645,99.3232415" id="Fill-163" fill="#FFFFFE"></path>
                <path d="M105.942,173.477241 C104.809,180.087241 111.196,185.939241 120.212,186.555241 C129.22,187.171241 137.446,182.315241 138.585,175.705241 C139.716,169.103241 133.332,163.246241 124.32,162.629241 C115.307,162.013241 107.077,166.868241 105.942,173.477241" id="Fill-164" fill="#FFFFFE"></path>
                <g id="head" transform="translate(0.000000, 35.699241)">
                    <path d="M35.0628238,37.0946584 C32.1920019,44.7772095 31.0653543,58.604604 32.8753466,66.4917171 C34.5991948,74.0026356 38.4146972,80.7591693 42.0056444,85.6536898 C49.941541,96.4815066 60.4123947,101.904895 70.7254789,103.576316 C85.8490774,106.032058 101.685058,107.070834 115.260968,91.478219 C122.033436,83.6948837 127.848641,75.6022108 129.93352,61.7568548 C135.39931,25.4186576 118.907086,15.1476487 102.080933,8.5667389 C86.2401132,2.3749959 59.4861045,-0.506833881 44.7264403,19.9543571 C41.406508,24.5555057 37.2861138,31.1463941 35.0628238,37.0946584" id="Fill-165" fill="#F26200"></path>
                    <path d="M125.325872,37.0017417 C121.904003,19.4159789 98.5877084,12.9387514 83.6430452,10.5275499 C80.9533334,10.0953345 77.7588189,9.93525476 74.277222,10.0232986 C70.7936983,9.93525476 67.5982205,10.0953345 64.9113988,10.5275499 C54.8586971,12.149358 41.0257558,15.617086 32,23.0617956 C39.9053636,34.6045472 60.487632,35.8311584 68.9681239,45.8971742 C79.6421952,58.5654867 74.3446574,78.1722566 61.9557985,86.9426268 C57.8306746,89.8640825 52.8414132,90.2782889 48.5245799,92.7255083 C46.0728189,94.1162013 42.262715,97.1707234 38.9294761,99.9661163 C43.3686566,116.175193 56.5975688,126.196186 72.784008,125.997087 C73.2753236,125.991084 73.7762728,125.974076 74.277222,125.954066 C74.7762444,125.974076 75.2762303,125.991084 75.7713993,125.997087 C92.4568609,126.202189 105.998866,115.54688 110.008387,98.446359 C111.432238,92.3863393 113.856062,86.096205 116.395489,79.6850104 C121.955062,65.6470154 128.059898,51.0347342 125.325872,37.0017417" id="Fill-166" fill="#FFFFFE"></path>
                    <path d="M64.5673828,84.9628906 C74.4107065,75.1367325 79.2091645,56.6350422 69.6999893,45.3017578 C61.2445387,35.2232185 39.301213,34.5571124 31.4191924,23 C27.0392248,26.6273125 23.7878673,31.1932584 22.6707834,36.9572893 C19.948672,51.0077407 26.0316401,65.6382015 31.575757,79.6936617 C34.1076856,86.1128327 38.7921218,99.4642429 38.9294761,99.9661163 C42.2528725,97.1672455 45.9808286,94.3924232 48.42535,93 C52.7294365,90.5497359 57.1735939,89.885398 61.2865372,86.9603075 C62.6019917,86.0251458 63.3941788,86.1340488 64.5673828,84.9628906 Z" id="Fill-167" fill="#D27352"></path>
                    <path d="M64.3592918,95.1373295 C66.505891,93.6902504 70.1620592,92.9559576 73.9861716,93.0020429 L74.0160928,93.0020429 C77.8402052,92.9559576 81.4925126,93.6902504 83.640077,95.1373295 C93.8615185,102.037838 84.2327083,112.170464 74.0160928,112.996928 L74.0160928,113 L73.9861716,113 L73.9861716,112.996928 C63.7695561,112.170464 54.1378503,102.037838 64.3592918,95.1373295" id="Fill-168" fill="#4D3422"></path>
                    <path d="M147.721292,37.3203196 C147.074022,43.7254698 144.16517,48.6414675 137.079009,47.9317776 C125.967213,46.8164083 98.2138077,22.9740191 95.7242321,20.7253389 C92.5912506,17.89256 89.3800169,14.8255437 92.5632344,10.0879652 C96.1686267,4.72442442 105.547284,2.69802068 111.353395,1.24076428 C136.03275,-4.95307379 150.196377,12.8160848 147.721292,37.3203196 M0.278910151,37.3203196 C0.92811262,43.7254698 3.83599868,48.6414675 10.9240917,47.9317776 C22.0358876,46.8164083 49.788327,22.9740191 52.2788687,20.7253389 C55.4108841,17.89256 58.6182535,14.8255437 55.4360021,10.0879652 C51.833508,4.72442442 42.455817,2.69802068 36.6458413,1.24076428 C11.9664867,-4.95307379 -2.19714034,12.8160848 0.278910151,37.3203196" id="Combined-Shape" fill="#A5775D"></path>
                    <path d="M109.250562,65.1295973 C111.54228,65.2375196 111.214612,67.4219095 110.338223,68.9878213 C109.130254,71.1514569 107.093823,72.7485001 104.751243,73.2123587 C101.680947,73.8214973 98.9657054,74.6049721 95.9061685,73.2611313 C93.8658251,72.3655833 92.1903179,70.6056188 91.3960902,68.4440587 C90.8463908,66.9497492 90.5060076,64.0939578 92.9297712,65.2821414 C94.3529253,65.9805235 95.303651,67.704168 96.6104097,68.5312267 C98.7720391,69.9010104 101.395338,69.7360137 103.599026,68.5716976 C105.587529,67.518417 106.816039,65.0154486 109.250562,65.1295973" id="Fill-172" fill="#0F0F0D"></path>
                    <path d="M38.7775746,65.0013578 C36.4843886,65.06634 36.7758042,67.2437601 37.6246253,68.8146795 C38.7961548,70.9879738 40.8047706,72.6135607 43.1390286,73.1169151 C46.1979138,73.7801463 48.8998638,74.6094432 51.9802629,73.3304281 C54.0348402,72.4774075 55.7393277,70.7589888 56.5685907,68.6269531 C57.1435985,67.1519599 57.5328045,64.3205917 55.0890212,65.4562334 C53.6544354,66.1235904 52.675553,67.8193169 51.355382,68.6166385 C49.1717213,69.9369121 46.5519152,69.7244306 44.3672766,68.5258697 C42.3987549,67.4428327 41.2115789,64.9332812 38.7775746,65.0013578" id="Fill-173" fill="#0F0F0D"></path>
                    <path d="M97.8683663,101 C100.113129,103.793688 100.634029,107.979239 99.1969973,111.673602 C98.0458369,114.635669 95.472034,116.906288 92.9951206,118.84812 C90.4088469,120.87464 87.2067023,121.914801 84.1561273,122.476726 C80.887791,123.079501 77.5484665,123.251865 74.4719903,122.506616 C71.3964735,121.759374 68.5933979,120.031751 67,117.365592 C71.3830432,117.690393 75.8975106,117.307806 80.3342747,116.260671 C84.008395,115.39387 89.0514369,114.1395 92.2161687,111.697514 C95.5698827,109.109068 97.5853727,105.013187 97.8683663,101" id="Fill-174" fill="#AC3C4A"></path>
                </g>
                <path d="M76.479,154.818241 C77.281,154.818241 77.932,154.167241 77.932,153.366241 L77.932,140.633241 C77.932,139.830241 77.281,139.179241 76.479,139.179241 C75.675,139.179241 75.025,139.830241 75.025,140.633241 L75.025,153.366241 C75.025,154.167241 75.675,154.818241 76.479,154.818241" id="Fill-171" fill="#4D3422"></path>
                <path d="M79.623,213.423241 C78.641,213.423241 77.649,213.415241 76.653,213.400241 C46.339,212.944241 21.869,205.642241 21.9974923,197.090241 C22.064,192.668241 28.697,188.776241 39.279,186.113241 C40.076,186.200241 40.889,186.245241 41.711,186.245241 C42.221,186.245241 42.735,186.227241 43.252,186.192241 C46.396,185.977241 49.221,185.125241 51.518,183.826241 C52.69,183.669241 53.886,183.525241 55.105,183.393241 C66.086,187.069241 80.322,189.344241 95.888,189.459241 C96.298,189.462241 96.71,189.463241 97.119,189.463241 C104.344,189.463241 111.275,188.994241 117.716,188.129241 C126.508,191.010241 131.834,194.739241 131.774502,198.741241 C131.65,207.012241 108.564,213.423241 79.623,213.423241" id="Fill-175" fill-opacity="0.249950489" fill="#000000"></path>
                <path d="M97.119,189.463241 C96.71,189.463241 96.298,189.462241 95.888,189.459241 C80.322,189.344241 66.086,187.069241 55.105,183.393241 C60.992,182.755241 67.411,182.408241 74.148,182.408241 C75.131,182.408241 76.123,182.415241 77.119,182.430241 C93.247,182.673241 107.721,184.853241 117.716,188.129241 C111.275,188.994241 104.344,189.463241 97.119,189.463241" id="Fill-176" fill="#569870"></path>
                <path d="M41.711,186.245241 C40.889,186.245241 40.076,186.200241 39.279,186.113241 C42.926,185.195241 47.041,184.423241 51.518,183.826241 C49.221,185.125241 46.396,185.977241 43.252,186.192241 C42.735,186.227241 42.221,186.245241 41.711,186.245241" id="Fill-177" fill="#A19D99"></path>
                <polyline id="Fill-178" fill="#066DFF" points="122.051 168.297241 31.512 169.557241 26.547 194.962241 127.593 192.617241 122.051 168.297241"></polyline>
                <path d="M26.5466,194.962241 C26.657,203.564241 49.427,210.250241 77.406,209.893241 C105.386,209.536241 127.979,202.273241 127.8694,193.670241 C127.759,185.067241 104.988,178.382241 77.009,178.738241 C49.03,179.095241 26.437,186.358241 26.5466,194.962241" id="Fill-179" fill="#066DFF"></path>
                <path d="M31.5117142,169.557241 C31.599,176.398241 51.984,181.685241 77.043,181.366241 C102.102,181.047241 122.345,175.242241 122.258279,168.401241 C122.171,161.559241 101.786,156.273241 76.727,156.593241 C51.668,156.912241 31.424,162.717241 31.5117142,169.557241" id="Fill-180" fill="#79ADF7"></path>
                <path d="M38.3348108,169.470241 C38.401,174.653241 55.714,178.635241 77.004,178.363241 C98.295,178.092241 115.501,173.671241 115.435189,168.488241 C115.369,163.305241 98.056,159.324241 76.765,159.595241 C55.475,159.867241 38.269,164.288241 38.3348108,169.470241" id="Fill-181" fill="#2A2B2B"></path>
                <path d="M42.95,163.767241 L42.985,163.570241 C43.003,163.033241 42.379,162.697241 42.225,162.182241 C41.587,160.063241 45.386,161.117241 46.062,160.560241 C46.996,159.791241 46.466,158.509241 46.804,157.452241 C47.775,154.416241 49.719,155.672241 51.615,153.766241 C51.731,153.650241 51.831,153.512241 51.875,153.353241 C51.928,153.157241 51.891,152.949241 51.883,152.745241 C51.838,151.618241 52.876,150.567241 54.003,150.598241 C54.418,150.609241 54.819,150.745241 55.227,150.823241 C56.546,151.076241 57.972,150.696241 58.99,149.820241 C58.086,148.902241 58.447,147.101241 59.635,146.602241 C60.906,146.068241 62.393,146.941241 63.724,146.582241 C66.025,145.959241 66.388,144.938241 68.829,146.082241 C69.905,146.586241 71.099,147.331241 72.182,146.845241 C73.158,146.407241 73.608,145.099241 74.653,144.873241 C76.406,144.495241 77.124,147.311241 78.819,147.897241 C79.986,148.301241 81.19,147.522241 82.27,146.923241 C83.35,146.323241 84.889,145.954241 85.673,146.908241 C85.978,147.278241 86.096,147.787241 86.444,148.115241 C87.963,149.542241 90.494,145.837241 92.143,147.112241 C92.789,147.611241 92.77,148.564241 92.873,149.375241 C92.977,150.184241 93.554,151.147241 94.348,150.959241 C94.985,150.807241 95.213,150.032241 95.665,149.558241 C96.705,148.469241 98.519,149.206241 99.802,149.996241 C100.553,150.457241 101.391,151.059241 101.425,151.940241 C101.438,152.306241 101.305,152.665241 101.308,153.031241 C101.321,154.408241 103.032,154.978241 104.37,155.304241 C109.688,156.602241 103.628,163.168241 107.723,164.981241 C108.192,165.189241 108.719,165.270241 109.16,165.536241 C109.601,165.802241 109.941,166.358241 109.726,166.825241 C109.643,167.005241 109.481,167.178241 109.528,167.370241 C109.555,167.480241 109.646,167.561241 109.731,167.636241 C110.478,168.281241 111.777,169.037241 112.195,169.935241 C112.314,170.192241 112.596,172.389241 112.08,172.386241 C106.079,175.722241 92.649,178.164241 77.004,178.363241 C60.961,178.567241 47.18,176.356241 41.332,173.037241 C40.479,172.553241 43.674,168.139241 42.524,166.873241 C42.066,166.370241 41.439,165.784241 41.669,165.144241 C41.883,164.547241 42.76,164.320241 42.95,163.767241" id="Fill-188" fill="#66462C"></path>
                <path d="M101.339,152.684241 C101.321,152.800241 101.307,152.915241 101.308,153.031241 C101.31,153.203241 101.338,153.362241 101.389,153.511241 L101.435,153.619241 L101.48,153.724241 L101.534,153.809241 L101.604,153.921241 L101.669,154.000241 L101.754,154.102241 L101.838,154.182241 L101.93,154.269241 L102.101,154.402241 L102.126,154.422241 L102.302,154.536241 L102.342,154.561241 L102.508,154.653241 L102.572,154.688241 C102.952,154.883241 103.379,155.032241 103.799,155.153241 L103.854,155.169241 L104.033,155.218241 L104.114,155.240241 L104.368,155.303241 C104.843,155.420241 105.503,155.841241 106.155,156.360241 C107.145,157.647241 106.646,159.712241 106.438,161.522241 C106.402,161.837241 106.405,162.179241 106.476,162.491241 C106.329,162.577241 106.187,162.670241 106.059,162.782241 C105.163,163.568241 105.108,164.909241 104.801,166.061241 C104.493,167.213241 103.442,168.453241 102.326,168.034241 C101.229,167.623241 100.898,165.843241 99.727,165.836241 C98.115,165.827241 98.033,169.123241 96.433,168.932241 C94.922,168.753241 94.679,165.509241 93.31,166.173241 C92.598,166.517241 92.776,167.611241 92.315,168.253241 C91.632,169.202241 90.12,168.642241 89.232,167.882241 C88.346,167.120241 87.268,166.157241 86.177,166.576241 C85.328,166.901241 84.993,167.901241 84.386,168.577241 C83.595,169.458241 82.226,169.762241 81.136,169.299241 C80.046,168.836241 79.315,167.639241 79.4,166.458241 C78.594,167.243241 77.679,168.077241 76.554,168.120241 C75.43,168.162241 74.294,166.863241 74.924,165.931241 C75.247,165.455241 73.628,165.510241 73.527,165.533241 C72.64,165.737241 72.838,166.675241 72.338,166.998241 C71.281,167.680241 69.08,168.752241 68.92,166.105241 C68.896,165.719241 68.984,165.332241 68.957,164.946241 C68.864,163.654241 67.228,162.755241 66.088,163.370241 C65.613,163.870241 65.318,164.538241 65.271,165.225241 C65.251,165.503241 65.263,165.805241 65.097,166.029241 C64.966,166.207241 64.749,166.295241 64.541,166.368241 C63.889,166.596241 63.188,166.756241 62.509,166.626241 C61.831,166.496241 61.183,166.020241 61.023,165.348241 C60.871,164.708241 61.172,164.023241 61.013,163.384241 C60.794,162.512241 59.751,162.051241 58.864,162.197241 C57.977,162.344241 57.232,162.937241 56.585,163.562241 C55.22,164.882241 53.492,166.807241 51.484,165.332241 C50.573,164.662241 50.091,163.533241 49.946,162.412241 C49.477,161.684241 48.3,162.079241 47.749,162.745241 C47.197,163.412241 46.829,164.309241 46.03,164.642241 C45.42,164.896241 44.708,164.737241 44.125,164.427241 C43.677,164.189241 43.293,163.854241 42.974,163.465241 C42.691,163.119241 41.959,162.140241 41.896,161.706241 C41.843,161.333241 41.946,160.957241 42.068,160.600241 C42.239,160.100241 42.466,159.593241 42.882,159.266241 C43.352,158.897241 43.985,158.819241 44.52,158.553241 C45.563,158.031241 46.107,156.875241 46.961,156.081241 C48.107,155.013241 49.584,155.171241 50.841,154.384241 L51.005,154.273241 L51.168,154.154241 C51.317,154.040241 51.466,153.916241 51.615,153.766241 C51.731,153.650241 51.831,153.512241 51.875,153.353241 C51.927,153.161241 51.893,152.957241 51.883,152.745241 C51.872,152.464241 51.928,152.186241 52.037,151.929241 C52.814,150.095241 54.315,151.047241 55.649,150.315241 C56.427,149.887241 56.787,148.981241 57.365,148.305241 C58.19,147.341241 59.841,146.316241 61.136,146.456241 C61.309,146.474241 61.482,146.500241 61.657,146.526241 C62.354,146.634241 63.058,146.762241 63.724,146.581241 C65.018,146.231241 65.7,145.755241 66.482,145.609241 C66.569,145.593241 66.657,145.581241 66.748,145.573241 C66.929,145.558241 67.119,145.562241 67.325,145.591241 C67.428,145.604241 67.536,145.624241 67.648,145.650241 C67.987,145.729241 68.372,145.868241 68.829,146.082241 C69.501,146.397241 70.22,146.806241 70.929,146.950241 C71.071,146.978241 71.212,146.997241 71.353,147.002241 C71.634,147.011241 71.912,146.967241 72.182,146.845241 C72.67,146.626241 73.026,146.189241 73.392,145.779241 C73.574,145.575241 73.759,145.376241 73.964,145.215241 C74.168,145.053241 74.392,144.929241 74.653,144.873241 C74.948,144.809241 75.211,144.842241 75.457,144.933241 C76.978,145.497241 77.874,146.684241 79.688,146.334241 C80.211,146.232241 80.708,146.025241 81.227,145.907241 C82.419,145.637241 83.519,145.921241 84.599,146.425241 C85.63,146.905241 85.638,147.356241 86.444,148.115241 C87.583,149.185241 89.292,147.369241 90.771,146.931241 C90.894,146.895241 91.016,146.868241 91.135,146.853241 C91.493,146.808241 91.834,146.873241 92.143,147.112241 C92.276,147.216241 92.377,147.343241 92.461,147.479241 C92.528,147.591241 92.587,147.707241 92.631,147.834241 C92.663,147.928241 92.689,148.026241 92.711,148.127241 C92.756,148.328241 92.783,148.539241 92.806,148.750241 C92.817,148.855241 92.828,148.961241 92.838,149.065241 C92.849,149.170241 92.86,149.273241 92.873,149.375241 C92.898,149.577241 92.954,149.789241 93.035,149.990241 C93.197,150.393241 93.462,150.752241 93.797,150.905241 C93.964,150.981241 94.149,151.006241 94.348,150.959241 C94.587,150.902241 94.769,150.758241 94.926,150.574241 C95.083,150.390241 95.216,150.169241 95.358,149.956241 C95.453,149.814241 95.552,149.677241 95.665,149.558241 C95.795,149.422241 95.938,149.314241 96.089,149.231241 C96.316,149.108241 96.565,149.040241 96.827,149.017241 C97.786,148.934241 98.919,149.453241 99.802,149.996241 C99.896,150.053241 99.991,150.113241 100.086,150.176241 C100.75,150.612241 101.395,151.170241 101.425,151.940241 C101.428,152.031241 101.423,152.123241 101.412,152.214241 C101.394,152.371241 101.362,152.527241 101.339,152.684241" id="Fill-189" fill="#8C5C3A"></path>
                <path d="M57.605,157.595241 C57.699,157.178241 58.006,156.822241 58.496,156.811241 C59.228,156.796241 59.91,156.915241 60.56,157.264241 C60.776,157.382241 60.923,157.542241 61.015,157.720241 C61.362,157.851241 61.703,158.005241 62.032,158.198241 C63.03,158.786241 62.682,160.385241 61.42,160.213241 C60.631,160.105241 59.884,159.850241 59.187,159.491241 C58.88,159.442241 58.574,159.392241 58.268,159.343241 C57.438,159.209241 57.203,158.157241 57.605,157.595241" id="Fill-190" fill="#66462C"></path>
                <path d="M51.972,158.552241 L52.148,158.533241 C52.7,158.475241 53.28,158.905241 53.314,159.478241 C53.348,160.053241 52.96,160.583241 52.369,160.644241 L52.192,160.663241 C51.64,160.720241 51.061,160.290241 51.027,159.718241 C50.993,159.142241 51.38,158.613241 51.972,158.552241" id="Fill-191" fill="#66462C"></path>
                <path d="M53.939,153.544241 L54.115,153.525241 C54.667,153.468241 55.247,153.898241 55.281,154.470241 C55.315,155.046241 54.927,155.575241 54.335,155.637241 L54.16,155.655241 C53.607,155.713241 53.028,155.282241 52.994,154.710241 C52.959,154.135241 53.347,153.605241 53.939,153.544241" id="Fill-192" fill="#66462C"></path>
                <path d="M91.48,161.699241 C92.465,161.637241 93.452,161.671241 94.43,161.802241 C94.546,161.817241 94.652,161.861241 94.753,161.917241 C96,161.913241 96.105,163.778241 94.835,164.031241 C93.586,164.279241 92.348,164.139241 91.153,163.722241 C90.151,163.372241 90.466,161.762241 91.48,161.699241" id="Fill-193" fill="#66462C"></path>
                <path d="M100.146,160.414241 L100.304,160.220241 C100.665,159.774241 101.352,159.703241 101.797,160.064241 C102.244,160.427241 102.315,161.110241 101.953,161.557241 L101.795,161.752241 C101.435,162.197241 100.747,162.268241 100.303,161.907241 C99.855,161.545241 99.784,160.861241 100.146,160.414241" id="Fill-194" fill="#66462C"></path>
                <path d="M69.931,162.324241 L70.089,162.130241 C70.45,161.684241 71.137,161.613241 71.582,161.974241 C72.029,162.337241 72.1,163.020241 71.738,163.467241 L71.58,163.661241 C71.219,164.106241 70.532,164.178241 70.087,163.817241 C69.641,163.455241 69.569,162.771241 69.931,162.324241" id="Fill-195" fill="#66462C"></path>
            </g>
        </g>
    </g>
</svg>