<?xml version="1.0" encoding="UTF-8"?>
<svg width="234px" height="192px" viewBox="0 0 234 192" version="1.1" xmlns="http://www.w3.org/2000/svg" xmlns:xlink="http://www.w3.org/1999/xlink">
    <title>running</title>
    <g id="Dog-states" stroke="none" stroke-width="1" fill="none" fill-rule="evenodd">
        <g id="for-markdown-descriptions" transform="translate(-22.000000, -54.000000)">
            <g id="running" transform="translate(22.000000, 54.000000)">
                <path d="M51.8310245,137.562 C47.6510245,143.372 39.9010245,145.499 34.5190245,142.316 C29.1410245,139.135 28.1650245,131.847 32.3450245,126.034 C36.5210245,120.231 44.2710245,118.097 49.6510245,121.279 C55.0330245,124.462 56.0110245,131.75 51.8310245,137.562" id="Fill-112" fill="#C6C1BB"></path>
                <path d="M100.033024,79.629 C104.687024,81.09 108.651024,84.576 110.981024,91.061 C116.083024,105.267 106.968024,115.712 95.3910245,118.674 C89.4080245,120.204 83.2210245,120.761 77.0930245,120.333 C75.6420245,120.233 62.3810245,117.137 62.5070245,116.911 C57.7810245,125.423 55.0950245,138.973 45.7420245,141.911 C42.1810245,143.03 37.5330245,140 34.4430245,137.745 C32.1020245,136.036 30.8980245,131.823 32.1030245,128.959 C33.5430245,125.537 38.1510245,127.257 40.5610245,125.411 C43.8640245,122.878 45.2560245,116.284 47.3050245,112.579 C51.6660245,104.696 55.3030245,96.003 61.8870245,90.006 C67.1110245,85.248 73.7060245,83.697 79.8700245,81.212 C86.3670245,78.594 93.2340245,77.494 100.033024,79.629" id="Fill-113" fill="#C6C1BB"></path>
                <path d="M133.750024,115.44 C133.977024,117.147 134.353024,118.824 135.023024,120.398 C137.698024,126.683 143.373024,128.714 149.492024,128.746 C161.279024,128.808 170.634024,133.206 174.000024,145.078 C175.037024,148.733 174.414024,153.808 176.840024,156.712 C179.506024,159.904 184.409024,160.813 188.122024,158.985 C191.835024,157.158 194.139024,152.866 193.868024,148.694 C193.756024,146.965 193.251024,145.289 192.724024,143.641 C190.521024,136.756 188.062024,129.416 184.296024,123.241 C181.031024,117.889 174.331024,116.211 168.313024,114.895 C160.382024,113.16 151.705024,110.358 148.909024,101.543 C147.847024,98.191 147.300024,93.88 144.065024,92.701 C141.690024,91.835 139.061024,93.318 137.399024,95.266 C133.603024,99.715 133.139024,106.166 133.457024,112.069 C133.518024,113.192 133.602024,114.323 133.750024,115.44" id="Fill-114" fill="#C6C1BB"></path>
                <path d="M48.7500245,56.744 C50.3140245,58.449 52.8730245,59.766 52.4380245,63.061 C51.8230245,67.703 47.2220245,66.176 45.2870245,64.906 C37.7150245,59.913 31.2260245,46.023 29.9450245,36.535 C29.6730245,34.508 29.9080245,31.819 31.6880245,31.173 C33.4280245,30.542 34.9110245,32.488 35.8180245,34.2 C37.7630245,37.876 39.4700245,41.698 41.3660245,45.402 C43.2490245,49.079 46.0640245,53.812 48.7500245,56.744" id="Fill-115" fill="#FFFFFE"></path>
                <path d="M51.5120245,54.575 C59.7500245,51.093 69.4060245,49.506 76.8160245,48.552 C91.2150245,46.698 105.909024,47.171 120.159024,49.979 C132.173024,52.346 147.849024,55.492 154.854024,66.891 C161.227024,77.263 153.181024,84.415 149.140024,93.339 C147.569024,103.892 140.980024,113.149 129.195024,117.941 C114.210024,124.035 99.0220245,117.39 85.4750245,111.091 C79.6380245,108.375 78.6830245,105.779 72.3240245,104.417 C66.4140245,103.153 58.7760245,104.801 52.9840245,103.037 C42.7140245,99.91 36.3380245,91.738 34.6100245,80.405 C32.5360245,66.783 40.8320245,59.087 51.5120245,54.575" id="Fill-116" fill="#FFFFFE"></path>
                <path d="M101.760024,191.187 C63.3240245,191.187 35.1770245,187.161 35.1770245,182.193 C35.1770245,177.222 63.3240245,173.192 101.760024,173.192 C140.195024,173.192 171.350024,177.222 171.350024,182.193 C171.350024,187.161 140.195024,191.187 101.760024,191.187" id="Fill-117" fill-opacity="0.249950489" fill="#000000"></path>
                <path d="M56.9090245,87.384 C61.5820245,87.644 66.2120245,88.716 70.5230245,90.554 C78.4280245,93.925 85.3280245,100.7 94.2490245,101.454 C102.540024,102.155 111.204024,101.21 119.371024,99.875 C124.187024,99.087 128.183024,99.832 132.902024,100.353 C138.638024,100.985 144.444024,101.17 150.211024,101.042 C149.810024,101.051 147.344024,105.223 146.896024,105.761 C145.561024,107.363 144.084024,108.846 142.493024,110.194 C139.170024,113.009 135.386024,115.153 131.310024,116.669 C127.087024,118.24 123.616024,119.932 118.965024,120.228 C113.665024,120.565 108.337024,119.721 103.257024,118.236 C99.3490245,117.094 95.5110245,115.577 91.6660245,114.393 C86.6930245,112.861 82.5060245,109.454 77.6530245,107.613 C71.1260245,105.135 63.9480245,105.456 56.9930245,104.988 C51.7600245,104.635 28.7030245,98.894 40.8060245,90.333 C42.3250245,89.258 44.1410245,88.703 45.9490245,88.292 C49.5390245,87.474 53.2370245,87.179 56.9090245,87.384" id="Fill-118" fill="#C6C1BB"></path>
                <path d="M82.5830245,64.836 C89.9080245,80.333 81.2180245,95.842 68.9150245,103.115 C62.5580245,106.873 55.8570245,109.524 49.1000245,110.967 C47.4990245,111.309 30.7220245,112.169 30.8310245,111.856 C28.8090245,117.629 28.2120245,123.125 26.8610245,129.011 C26.4860245,130.647 26.0630245,132.283 25.4300245,133.823 C23.6490245,138.152 20.2410245,141.45 16.5680245,142.894 C10.9550245,145.1 3.33202448,143.49 2.37302448,135.399 C1.47702448,127.84 6.61102448,127.453 9.53302448,122.578 C11.5390245,119.231 9.87702448,92.926 24.5790245,75.911 C34.2280245,64.744 44.8100245,57.609 52.3800245,54.744 C69.5520245,48.244 79.2380245,57.761 82.5830245,64.836" id="Fill-119" fill="#FFFFFE"></path>
                <path d="M107.125024,113.724 C108.985024,119.482 112.487024,124.197 119.068024,125.802 C124.068024,127.023 136.495024,125.932 136.429024,133.754 C136.420024,134.781 136.005024,135.753 135.613024,136.701 C133.956024,140.715 132.675024,145.555 135.005024,149.212 C137.936024,153.814 145.216024,153.506 149.284024,149.899 C153.353024,146.29 154.918024,140.631 155.890024,135.246 C156.763024,130.404 157.230024,125.055 154.647024,120.883 C151.524024,115.839 145.117024,114.255 139.363024,113.011 C136.230024,112.333 131.418024,110.524 130.007024,107.223 C127.931024,102.368 131.964024,97.664 129.026024,92.425 C126.879024,88.599 122.972024,85.765 118.558024,85.515 C112.619024,85.177 106.769024,89.654 105.471024,95.528 C105.083024,97.283 105.064024,99.099 105.143024,100.895 C105.331024,105.212 105.831024,109.72 107.125024,113.724" id="Fill-120" fill="#FFFFFE"></path>
                <path d="M125.788024,44.557 C122.234024,45.245 117.454024,48.561 115.708024,51.716 C114.045024,54.719 113.454024,58.587 113.358024,61.815 C113.138024,68.951 115.626024,75.87 119.225024,81.65 C124.501024,90.127 130.507024,98.572 140.817024,101.166 C145.961024,102.459 150.820024,103.172 155.989024,100.344 C169.554024,92.918 164.784024,80.096 160.119024,69.579 C155.726024,59.68 147.594024,45.481 135.019024,44.702 C132.313024,44.534 128.540024,44.025 125.788024,44.557" id="Fill-121" fill="#DF5431"></path>
                <path d="M231.224024,56.081 C229.562024,61.692 226.109024,65.578 219.833024,63.706 C209.993024,60.772 188.965024,34.619 187.098024,32.174 C184.747024,29.097 182.366024,25.794 186.036024,22.116 C190.193024,17.953 198.997024,17.779 204.483024,17.489 C227.796024,16.263 237.584024,34.614 231.224024,56.081" id="Fill-122" fill="#A5775D"></path>
                <path d="M214.443024,78.26 C211.715024,71.391 210.120024,68.074 210.220024,60.819 C210.305024,54.616 211.215024,46.761 208.901024,40.917 C204.280024,29.253 195.346024,24.692 184.569024,20.909 C170.152024,15.847 155.116024,14.204 140.693024,20.371 C136.319024,22.241 132.752024,24.474 130.055024,27.474 C133.056024,27.44 136.068024,27.558 139.002024,27.706 C148.850024,28.2 157.894024,29.849 167.172024,33.441 C177.271024,37.467 183.682024,49.49 185.958024,59.591 C186.787024,63.267 187.006024,67.203 185.444024,70.576 C182.727024,76.447 176.691024,78.722 170.289024,80.83 C161.100024,83.857 154.719024,91.71 146.217024,95.85 C144.525024,96.674 142.744024,97.274 140.921024,97.698 C147.920024,106.691 157.136024,114.602 168.876024,118.62 C178.908024,122.053 187.928024,124.72 201.092024,121.65 C208.876024,119.834 217.010024,111.12 219.930024,101.963 C222.193024,94.866 217.041024,84.8 214.443024,78.26" id="Fill-123" fill="#FFFFFE"></path>
                <path d="M170.289024,80.83 C176.691024,78.722 182.727024,76.447 185.444024,70.576 C187.006024,67.203 186.787024,63.267 185.958024,59.591 C183.682024,49.49 177.271024,37.467 167.172024,33.441 C157.894024,29.849 148.850024,28.2 139.002024,27.706 C136.068024,27.558 133.056024,27.44 130.055024,27.474 C127.483024,30.335 125.702024,33.893 124.794024,38.517 C123.721024,43.971 123.170024,49.573 123.117428,55.141 C123.052024,62.249 128.463024,81.693 140.921024,97.698 C142.744024,97.274 144.525024,96.674 146.217024,95.85 C154.719024,91.71 161.100024,83.857 170.289024,80.83" id="Fill-124" fill="#D27352"></path>
                <path d="M161.663024,61.437 C161.308024,67.538 163.754024,72.641 167.131024,72.835 C170.507024,73.031 173.530024,68.243 173.887024,62.142 C174.242024,56.042 171.796024,50.939 168.419024,50.745 C165.044024,50.55 162.020024,55.338 161.663024,61.437" id="Fill-125" fill="#0F0F0D"></path>
                <path d="M197.312024,67.449 C197.639024,73.31 200.168024,77.921 202.959024,77.751 C205.751024,77.578 207.748024,72.688 207.421024,66.827 C207.092024,60.967 204.564024,56.356 201.773024,56.526 C198.981024,56.698 196.984024,61.59 197.312024,67.449" id="Fill-126" fill="#0F0F0D"></path>
                <path d="M196.107024,92.083 C197.853024,91.187 200.658024,90.978 203.508024,91.379 L203.519024,91.38 L203.530024,91.382 C206.391024,91.712 209.046024,92.621 210.503024,93.929 C217.445024,100.159 209.238024,106.954 201.527024,106.605 L201.528024,106.608 L201.518024,106.606 L201.503024,106.605 L201.504024,106.602 C193.958024,104.996 187.781024,96.359 196.107024,92.083" id="Fill-127" fill="#4D3422"></path>
                <path d="M206.111024,115.54 C206.035024,115.386 205.917024,115.244 205.750024,115.12 C205.198024,114.714 204.606024,115.091 204.038024,115.24 C203.249024,115.444 202.372024,115.548 201.563024,115.506 C198.961024,115.37 197.219024,114.235 195.476024,112.559 L195.501024,112.457 L195.396024,112.484 L195.316024,112.41 L195.290024,112.512 C192.970024,113.145 190.903024,113.303 188.553024,112.169 C186.928024,111.385 184.014024,108.722 183.470024,106.79 C183.277024,106.109 182.587024,105.728 181.930024,105.935 C181.271024,106.144 180.894024,106.864 181.084024,107.544 C181.926024,110.532 185.637024,113.619 187.478024,114.507 C188.192024,114.853 188.883024,115.103 189.555024,115.276 C191.404024,115.75 193.099024,115.62 194.694024,115.287 C195.942024,116.349 197.368024,117.28 199.219024,117.754 C199.892024,117.927 200.617024,118.039 201.406024,118.079 C202.543024,118.139 204.217024,118.094 205.246024,117.54 C205.934024,117.17 206.460024,116.241 206.111024,115.54" id="Fill-128" fill="#4D3422"></path>
                <path d="M194.473024,115.182 C194.123024,115.114 193.803024,114.904 193.597024,114.569 C193.203024,113.926 193.389024,113.066 194.012024,112.647 C194.079024,112.6 197.174024,110.406 200.114024,104.294 C200.448024,103.604 201.257024,103.314 201.918024,103.65 C202.581024,103.987 202.848024,104.821 202.516024,105.512 C199.187024,112.431 195.601024,114.878 195.449024,114.98 C195.148024,115.181 194.797024,115.244 194.473024,115.182" id="Fill-129" fill="#4D3422"></path>
                <path d="M103.981024,30.847 C103.445024,36.996 105.266024,42.147 111.955024,42.747 C122.444024,43.689 152.379024,26.204 155.084024,24.531 C158.488024,22.426 162.001024,20.11 159.896024,15.079 C157.512024,9.38200003 149.187024,5.79400003 144.066024,3.38000003 C122.309024,-6.87399997 106.037024,7.32500003 103.981024,30.847" id="Fill-130" fill="#A5775D"></path>
                <path d="M155.020024,138.866 C154.449024,147.172 148.125024,154.645 140.891024,155.563 C133.662024,156.48 128.259024,150.493 128.826024,142.183 C129.396024,133.886 135.718024,126.407 142.950024,125.489 C150.183024,124.573 155.588024,130.558 155.020024,138.866" id="Fill-131" fill="#FFFFFE"></path>
                <path d="M25.7420245,132.699 C25.1830245,141.006 18.9780245,148.478 11.8790245,149.397 C4.78602448,150.313 -0.515975524,144.326 0.0400244756,136.016 C0.600024476,127.719 6.80302448,120.241 13.9000245,119.322 C20.9970245,118.406 26.3000245,124.391 25.7420245,132.699" id="Fill-132" fill="#FFFFFE"></path>
                <path d="M187.347024,141.193 C193.958024,143.863 197.438024,151.78 195.122024,158.882 C192.810024,165.978 185.576024,169.572 178.961024,166.905 C172.359024,164.238 168.873024,156.321 171.186024,149.221 C173.501024,142.121 180.734024,138.525 187.347024,141.193" id="Fill-133" fill="#C6C1BB"></path>
            </g>
        </g>
    </g>
</svg>