<?xml version="1.0" encoding="UTF-8"?>
<svg width="142px" height="116px" viewBox="0 0 142 116" version="1.1" xmlns="http://www.w3.org/2000/svg" xmlns:xlink="http://www.w3.org/1999/xlink">
    <title>running</title>
    <g id="Dog-states" stroke="none" stroke-width="1" fill="none" fill-rule="evenodd">
        <g id="for-markdown-descriptions" transform="translate(-18.000000, -40.000000)">
            <g id="Group" transform="translate(14.000000, 19.000000)">
                <g id="running" transform="translate(4.819277, 21.084337)">
                    <path d="M31.2235087,82.8686747 C28.7054364,86.3686747 24.0367617,87.65 20.7945931,85.7325301 C17.554834,83.8162651 16.9668822,79.4259036 19.4849545,75.9240964 C22.0006172,72.4283133 26.6692919,71.1427711 29.9102557,73.0596386 C33.1524244,74.9771084 33.741581,79.3674699 31.2235087,82.8686747" id="Fill-112" fill="#AA9A89"></path>
                    <path d="M60.2608581,47.9692771 C63.0644726,48.8493976 65.4524244,50.9493976 66.8560388,54.8560241 C69.9295328,63.4138554 64.438569,69.7060241 57.4644726,71.4903615 C53.8602557,72.4120482 50.1331473,72.7475904 46.441581,72.4897591 C45.5674846,72.4295181 37.5789304,70.5644578 37.654834,70.4283133 C34.8078461,75.5560241 33.1897738,83.7186747 27.5554364,85.4885542 C25.4102557,86.1626506 22.6102557,84.3373494 20.7488099,82.9789157 C19.338569,81.9493976 18.6132678,79.4114458 19.3391714,77.6861446 C20.2066413,75.6246988 22.9825449,76.6608434 24.4343521,75.5487952 C26.4241111,74.0228916 27.2626653,70.0506024 28.4970027,67.8186747 C31.1241111,63.0698795 33.315075,57.8331325 37.28134,54.2204819 C40.428328,51.3542169 44.4012196,50.4198795 48.1144726,48.9228916 C52.028328,47.3457831 56.165075,46.6831325 60.2608581,47.9692771" id="Fill-113" fill="#AA9A89"></path>
                    <path d="M80.5723039,69.5421687 C80.7090509,70.5704819 80.9355569,71.5807229 81.3391714,72.5289157 C82.9506172,76.3150603 86.3692919,77.5385542 90.0554364,77.5578313 C97.1560388,77.5951807 102.791581,80.2445783 104.819292,87.3963856 C105.443991,89.5981928 105.068689,92.6554217 106.530135,94.4048193 C108.136159,96.3277109 111.089774,96.8753012 113.326521,95.7740964 C115.563268,94.673494 116.95122,92.0879518 116.787967,89.5746988 C116.720497,88.5331325 116.41628,87.523494 116.09881,86.5307229 C114.771701,82.3831325 113.290376,77.9614458 111.021701,74.2415663 C109.054834,71.0174699 105.018689,70.0066265 101.393388,69.2138554 C96.6156774,68.1686747 91.388569,66.4807229 89.7042316,61.1704819 C89.0644726,59.1512048 88.7349545,56.5542169 86.7861593,55.8439759 C85.3554364,55.3222892 83.7717015,56.2156627 82.7704967,57.3891566 C80.4837497,60.0692771 80.2042316,63.9554217 80.3957979,67.5114458 C80.4325449,68.1879518 80.4831473,68.8692771 80.5723039,69.5421687" id="Fill-114" fill="#AA9A89"></path>
                    <path d="M29.3674846,34.1831325 C30.3096533,35.210241 31.8512196,36.0036145 31.5891714,37.9885542 C31.2186894,40.7849398 28.4470027,39.8650603 27.28134,39.1 C22.7198943,36.0921687 18.8108581,27.7246988 18.0391714,22.0090362 C17.8753159,20.7879518 18.0168822,19.1680723 19.0891714,18.7789157 C20.1373641,18.3987952 21.0307376,19.5710844 21.5771232,20.6024097 C22.7488099,22.8168675 23.7771232,25.1192771 24.9192919,27.3506024 C26.0536292,29.5656627 27.7494123,32.4168675 29.3674846,34.1831325" id="Fill-115" fill="#E4DCCC"></path>
                    <path d="M31.03134,32.876506 C35.9939906,30.7789157 41.8108581,29.8228916 46.2747135,29.2481928 C54.9488099,28.1313253 63.8006172,28.4162651 72.3849545,30.1078313 C79.6223039,31.533735 89.0656774,33.4289157 93.2855569,40.2957831 C97.1247135,46.5439759 92.2777256,50.8524097 89.8433882,56.2283133 C88.8970027,62.5855422 84.9277256,68.1620482 77.828328,71.0487952 C68.8012196,74.7198795 59.651822,70.7168675 51.4909786,66.9222892 C47.9747135,65.2861446 47.3994123,63.7222892 43.5686894,62.9018072 C40.0084485,62.1403615 35.4072437,63.1331325 31.918087,62.0704819 C25.73134,60.186747 21.8903762,55.2638554 20.8494123,48.436747 C19.6000147,40.2307229 24.5976051,35.5945783 31.03134,32.876506" id="Fill-116" fill="#E4DCCC"></path>
                    <path d="M61.3012196,115.172892 C38.1470027,115.172892 21.1909786,112.74759 21.1909786,109.754819 C21.1909786,106.760241 38.1470027,104.33253 61.3012196,104.33253 C84.454834,104.33253 103.222906,106.760241 103.222906,109.754819 C103.222906,112.74759 84.454834,115.172892 61.3012196,115.172892" id="Fill-117" fill-opacity="0.249950489" fill="#000000"></path>
                    <path d="M34.2825449,52.6409639 C37.0976051,52.7975904 39.8867617,53.4433735 42.4837497,54.5506024 C47.2457979,56.5813253 51.4024244,60.6626506 56.7765208,61.1168675 C61.7710991,61.5391566 66.9903762,60.9698795 71.9102557,60.1656627 C74.8114605,59.6909639 77.2186894,60.1397591 80.0614605,60.4536145 C83.5168822,60.8343374 87.0144726,60.9457831 90.488569,60.8686747 C90.2470027,60.8740964 88.7614605,63.3873494 88.491581,63.7114458 C87.6873641,64.676506 86.7976051,65.5698795 85.8391714,66.3819277 C83.8373641,68.0777109 81.5578461,69.3692771 79.1024244,70.2825301 C76.5584485,71.2289157 74.4674846,72.2481928 71.6656774,72.426506 C68.4729063,72.6295181 65.2632678,72.1210844 62.2030268,71.226506 C59.8488099,70.5385542 57.5367617,69.6246988 55.2204967,68.9114458 C52.2247135,67.9885542 49.7024244,65.9361446 46.7789304,64.8271084 C42.8470027,63.3343374 38.5229063,63.5277109 34.3331473,63.2457831 C31.1807376,63.0331325 17.2909786,59.5746988 24.5819425,54.4174699 C25.4970027,53.7698795 26.5909786,53.4355422 27.6801352,53.1879518 C29.8427858,52.6951807 32.0704967,52.5174699 34.2825449,52.6409639" id="Fill-118" fill="#AA9A89"></path>
                    <path d="M49.7488099,39.0578313 C54.1614605,48.3933735 48.9265208,57.7361446 41.515075,62.1174699 C37.6855569,64.3813253 33.6488099,65.9783133 29.578328,66.8475904 C28.6138702,67.0536145 18.5072437,67.5716868 18.5729063,67.3831325 C17.354834,70.8608434 16.9951955,74.1716868 16.18134,77.7174699 C15.9554364,78.7030121 15.7006172,79.6885542 15.3192919,80.6162651 C14.2464003,83.2240964 12.1933882,85.2108434 9.98073764,86.0807229 C6.59941233,87.4096386 2.00724366,86.4397591 1.42953282,81.5656627 C0.88977378,77.0120482 3.98254486,76.7789157 5.74278583,73.8421687 C6.95121956,71.8259036 5.95001474,55.9795181 14.8066413,45.7295181 C20.6192919,39.0024097 26.9939906,34.7042169 31.5542316,32.9783133 C41.8988099,29.0626506 47.7337497,34.7957831 49.7488099,39.0578313" id="Fill-119" fill="#E4DCCC"></path>
                    <path d="M64.5331473,68.5084338 C65.6536292,71.9771084 67.7632678,74.8174699 71.7277256,75.7843374 C74.7397738,76.5198795 82.2259184,75.8626506 82.1861593,80.5746988 C82.1807376,81.1933735 81.9307376,81.7789157 81.6945931,82.35 C80.6964003,84.7680723 79.9247135,87.683735 81.328328,89.886747 C83.0939906,92.6590362 87.4795328,92.473494 89.9301352,90.3006024 C92.38134,88.126506 93.3241111,84.7174699 93.9096533,81.473494 C94.4355569,78.5566265 94.7168822,75.3343374 93.1608581,72.8210844 C91.2795328,69.7825301 87.4198943,68.8283133 83.9536292,68.0789157 C82.0662798,67.6704819 79.1674846,66.5807229 78.3174846,64.5921687 C77.0668822,61.6674699 79.4964003,58.833735 77.7265208,55.6777109 C76.4331473,53.3728916 74.0795328,51.6656627 71.4204967,51.5150603 C67.8427858,51.3114458 64.3186894,54.0084338 63.5367617,57.546988 C63.3030268,58.6042169 63.291581,59.6981928 63.3391714,60.7801205 C63.4524244,63.3807229 63.7536292,66.0963856 64.5331473,68.5084338" id="Fill-120" fill="#E4DCCC"></path>
                    <path d="M75.7759184,26.8415663 C73.6349545,27.2560241 70.7554364,29.2536145 69.7036292,31.1542169 C68.701822,32.963253 68.3457979,35.2933735 68.2879666,37.2379518 C68.1554364,41.536747 69.6542316,45.7048193 71.8223039,49.186747 C75.0006172,54.2933735 78.6186894,59.3807229 84.8295328,60.9433735 C87.928328,61.7222892 90.8554364,62.1518072 93.9692919,60.4481928 C102.140979,55.9746988 99.2674846,48.2506024 96.4572437,41.9150603 C93.8108581,35.9518072 88.9120629,27.3981928 81.3367617,26.9289157 C79.7066413,26.8277109 77.4337497,26.5210844 75.7759184,26.8415663" id="Fill-121" fill="#DF5431"></path>
                    <path d="M139.291581,33.783735 C138.290376,37.1638554 136.210256,39.5048193 132.429533,38.3771084 C126.501822,36.6096386 113.834352,20.8548193 112.709653,19.3819277 C111.293388,17.5283133 109.859051,15.5385542 112.069894,13.3228916 C114.574111,10.8150603 119.877726,10.710241 123.182545,10.5355422 C137.226521,9.79698797 143.122906,20.8518072 139.291581,33.783735" id="Fill-122" fill="#A5775D"></path>
                    <path d="M129.182545,47.1445783 C127.539171,43.0066265 126.578328,41.0084338 126.638569,36.6379518 C126.689774,32.9012048 127.237967,28.1692771 125.843991,24.6487952 C123.060256,17.6222892 117.678328,14.8746988 111.186159,12.5957831 C102.50122,9.54638556 93.4433882,8.55662652 84.754834,12.2716868 C82.1198943,13.3981928 79.9710991,14.7433735 78.3464003,16.5506024 C80.1542316,16.5301205 81.9686894,16.6012048 83.7361593,16.6903615 C89.6686894,16.9879518 95.1168822,17.9813253 100.706039,20.1451807 C106.789774,22.5704819 110.651822,29.813253 112.022906,35.8981928 C112.522304,38.1126506 112.654232,40.483735 111.713268,42.5156627 C110.076521,46.0524097 106.440376,47.4228916 102.58375,48.6927711 C97.0482075,50.5162651 93.2042316,55.246988 88.0825449,57.7409639 C87.0632678,58.2373494 85.9903762,58.5987952 84.8921834,58.8542169 C89.1084485,64.2716868 94.6602557,69.0373494 101.732545,71.4578313 C107.775918,73.5259036 113.209653,75.1325301 121.139774,73.2831325 C125.82893,72.1891566 130.72893,66.9397591 132.487967,61.423494 C133.85122,57.1481928 130.747605,51.0843374 129.182545,47.1445783" id="Fill-123" fill="#E4DCCC"></path>
                    <path d="M102.58375,48.6927711 C106.440376,47.4228916 110.076521,46.0524097 111.713268,42.5156627 C112.654232,40.483735 112.522304,38.1126506 112.022906,35.8981928 C110.651822,29.813253 106.789774,22.5704819 100.706039,20.1451807 C95.1168822,17.9813253 89.6686894,16.9879518 83.7361593,16.6903615 C81.9686894,16.6012048 80.1542316,16.5301205 78.3464003,16.5506024 C76.7970027,18.2740964 75.7241111,20.4174699 75.1771232,23.2030121 C74.5307376,26.4885542 74.1988099,29.863253 74.1671255,33.2174699 C74.1277256,37.4993976 77.3873641,49.2126506 84.8921834,58.8542169 C85.9903762,58.5987952 87.0632678,58.2373494 88.0825449,57.7409639 C93.2042316,55.246988 97.0482075,50.5162651 102.58375,48.6927711" id="Fill-124" fill="#D27352"></path>
                    <path d="M97.3873641,37.010241 C97.1735087,40.6855422 98.6470027,43.7596386 100.68134,43.876506 C102.715075,43.9945783 104.536159,41.110241 104.75122,37.4349398 C104.965075,33.760241 103.491581,30.6861446 101.457244,30.5692771 C99.4241111,30.4518072 97.6024244,33.3361446 97.3873641,37.010241" id="Fill-125" fill="#0F0F0D"></path>
                    <path d="M118.862665,40.6319277 C119.059653,44.1626506 120.583147,46.9403615 122.264473,46.8379518 C123.9464,46.733735 125.149412,43.7879518 124.952424,40.2572289 C124.754232,36.7271084 123.23134,33.9493976 121.550015,34.0518072 C119.868087,34.1554217 118.665075,37.1024097 118.862665,40.6319277" id="Fill-126" fill="#0F0F0D"></path>
                    <path d="M118.136762,55.4716868 C119.188569,54.9319277 120.878328,54.8060241 122.595195,55.0475904 L122.601822,55.0481928 L122.608448,55.0493976 C124.331942,55.2481928 125.93134,55.7957831 126.809051,56.583735 C130.990979,60.336747 126.047003,64.4301205 121.401822,64.2198795 L121.402424,64.2216868 L121.3964,64.2204819 L121.387364,64.2198795 L121.387967,64.2180723 C116.842183,63.2506024 113.121099,58.0475904 118.136762,55.4716868" id="Fill-127" fill="#4D3422"></path>
                    <path d="M124.163268,69.6024097 C124.117485,69.5096386 124.0464,69.4240964 123.945798,69.3493976 C123.613268,69.1048193 123.256641,69.3319277 122.914473,69.4216868 C122.439171,69.5445783 121.910858,69.6072289 121.423509,69.5819277 C119.856039,69.5 118.806641,68.8162651 117.756641,67.8066265 L117.771701,67.7451807 L117.708448,67.7614458 L117.660256,67.7168675 L117.644593,67.7783133 C116.247003,68.1596386 115.001822,68.2548193 113.586159,67.5716868 C112.607244,67.0993976 110.851822,65.4951807 110.524111,64.3313253 C110.407846,63.9210844 109.992183,63.6915663 109.5964,63.8162651 C109.199412,63.9421687 108.972304,64.3759036 109.086762,64.7855422 C109.593991,66.5855422 111.829533,68.4451807 112.938569,68.9801205 C113.368689,69.1885542 113.784955,69.3391566 114.189774,69.4433735 C115.303629,69.7289157 116.324714,69.6506024 117.285557,69.45 C118.037364,70.0897591 118.8964,70.6506024 120.011461,70.9361446 C120.416882,71.0403615 120.853629,71.1078313 121.32893,71.1319277 C122.01387,71.1680723 123.022304,71.1409639 123.642183,70.8072289 C124.056641,70.5843374 124.373509,70.0246988 124.163268,69.6024097" id="Fill-128" fill="#4D3422"></path>
                    <path d="M117.152424,69.386747 C116.941581,69.3457831 116.74881,69.2192771 116.624714,69.0174699 C116.387364,68.6301205 116.499412,68.1120482 116.874714,67.8596386 C116.915075,67.8313253 118.779533,66.5096386 120.550617,62.8277109 C120.751822,62.4120482 121.239171,62.2373494 121.637364,62.4397591 C122.036762,62.6427711 122.197605,63.1451807 121.997605,63.5614458 C119.992183,67.7295181 117.831942,69.2036145 117.740376,69.2650603 C117.559051,69.3861446 117.347605,69.4240964 117.152424,69.386747" id="Fill-129" fill="#4D3422"></path>
                    <path d="M62.6391714,18.5825301 C62.3162798,22.286747 63.4132678,25.3897591 67.4427858,25.7512048 C73.7614605,26.3186747 91.7945931,15.7855422 93.4241111,14.7777109 C95.4747135,13.5096386 97.5909786,12.1144578 96.3229063,9.08373496 C94.8867617,5.65180724 89.8717015,3.49036146 86.7867617,2.03614459 C73.6801352,-4.14096384 63.8777256,4.41265062 62.6391714,18.5825301" id="Fill-130" fill="#A5775D"></path>
                    <path d="M93.3855569,83.6542169 C93.041581,88.6578313 89.2319425,93.1596386 84.8741111,93.7126506 C80.5192919,94.2650603 77.2644726,90.6584338 77.6060388,85.6524097 C77.9494123,80.6542169 81.7578461,76.1487952 86.1144726,75.5957831 C90.4717015,75.0439759 93.7277256,78.6493976 93.3855569,83.6542169" id="Fill-131" fill="#E4DCCC"></path>
                    <path d="M15.5072437,79.9391566 C15.1704967,84.9433735 11.4325449,89.4445783 7.15603884,89.9981928 C2.88314727,90.55 -0.310828629,86.9433735 0.0241111299,81.9373494 C0.361460527,76.9391566 4.09820752,72.4343374 8.37350872,71.8807229 C12.6488099,71.3289157 15.8433882,74.9343374 15.5072437,79.9391566" id="Fill-132" fill="#E4DCCC"></path>
                    <path d="M112.859653,85.0560241 C116.842183,86.6644578 118.938569,91.433735 117.543388,95.7120482 C116.150617,99.986747 111.792786,102.151807 107.807846,100.545181 C103.830738,98.9385542 101.730738,94.1692771 103.124111,89.8921687 C104.518689,85.6150603 108.875918,83.4487952 112.859653,85.0560241" id="Fill-133" fill="#AA9A89"></path>
                </g>
            </g>
        </g>
    </g>
</svg>