<?xml version="1.0" encoding="UTF-8"?>
<svg width="249px" height="155px" viewBox="0 0 249 155" version="1.1" xmlns="http://www.w3.org/2000/svg" xmlns:xlink="http://www.w3.org/1999/xlink">
    <title>sniffing</title>
    <g id="Dog-states" stroke="none" stroke-width="1" fill="none" fill-rule="evenodd">
        <g id="for-markdown-descriptions" transform="translate(-14.000000, -90.000000)">
            <g id="sniffing" transform="translate(14.000000, 90.000000)">
                <path d="M139.614621,155 C100.787705,155 71.5595686,148.210512 71.0079518,138.113519 C70.3613402,126.292333 109.231436,114.428881 157.837408,111.606882 C164.901558,111.196153 171.787593,111 178.391882,111 C217.210163,111 246.439378,117.790572 246.992075,127.892983 C247.637607,139.707667 208.76751,151.571119 160.175572,154.393118 C153.109263,154.803847 146.21999,155 139.614621,155" id="Fill-134" fill-opacity="0.249950489" fill="#000000"></path>
                <path d="M104.731316,110.249876 C97.8058282,115.194398 91.7032782,117.121427 81.5707219,120.195342 C78.6969539,121.067713 87.2205476,137.539688 94.9602876,134.66325 C99.8067176,132.861001 111.378872,128.08249 116.061366,125.87118 C123.397237,122.405566 131.087036,117.795236 133.875036,110.016593 C136.618524,102.365984 133.825095,93.9146162 131.033838,86.2813679 C127.635692,76.9890952 119.496425,58.1235247 106.595411,64.1726163 C88.3018747,72.7520184 106.689864,84.0733138 110.127095,93.7388399 C112.54271,100.532268 112.331004,104.824682 104.731316,110.249876" id="Fill-135" fill="#C6C1BB"></path>
                <path d="M210.439645,31.765203 C210.457297,34.4030607 211.043101,40.4854735 213.972126,42.8637291 C218.10034,46.2149562 220.76349,41.3350804 221.393423,38.7648051 C223.848067,28.6843054 218.468812,12.1083896 212.155138,3.26475444 C210.805911,1.3745937 208.515646,-0.660386386 206.524351,0.205311522 C204.574977,1.05277292 204.847471,3.82686807 205.422243,5.95410345 C206.65453,10.5196676 208.201231,15.0197949 209.4964,19.5703408 C210.78164,24.0887046 210.406549,27.2307482 210.439645,31.765203" id="Fill-136" fill="#FFFFFE"></path>
                <path d="M214.493159,28.1003202 C208.846869,26.9619422 188.027391,35.8551154 185.015027,37.4082345 C179.741768,40.126733 176.85483,39.8534791 171.090683,41.009138 C167.925863,41.6431303 164.558849,41.4573608 161.368079,41.3331545 C149.235367,40.8590103 140.169081,34.2177519 127.451413,39.1665641 C118.62084,42.6043792 111.349431,49.5350924 106.469747,57.6830275 C103.336283,62.9169742 101.069982,69.1035294 102.377214,74.9855091 C104.062884,82.5739757 111.610012,86.9503587 114.103376,94.1273244 C117.968846,105.254051 127.115144,113.842649 141.096794,116.402379 C158.877959,119.657665 174.311728,109.009403 188.00036,99.1074581 C193.898581,94.8380006 194.429475,91.7976457 201.176478,88.8858173 C207.449894,86.1791994 216.217754,86.2537232 222.257619,83.029759 C232.969568,77.3151878 238.361764,66.9898617 237.981164,54.2722137 C237.647058,43.1087649 224.957502,30.215068 214.493159,28.1003202" id="Fill-137" fill="#FFFFFE"></path>
                <path d="M216.514737,73.8593611 C210.436527,71.8022279 205.397189,73.7283061 199.918619,76.5782144 C195.090285,79.0886689 191.496756,83.1782282 186.96878,86.0463983 C182.224417,89.0520686 176.493933,90.9265843 171.017516,91.8611565 C167.084873,92.5325447 163.032733,92.7119396 159.280951,94.1062784 C156.158951,95.2675113 153.531089,97.2569686 150.613634,98.8736712 C139.96008,104.776516 125.00032,104.017041 113,92.4390874 C116.688266,111.362564 131.597428,116.719705 141.43065,118.472833 C159.104396,121.625672 174.790829,110.013343 188.437196,100.213225 C194.316244,95.9893878 194.85452,92.9923112 201.574355,90.1005083 C207.821583,87.4149558 216.541651,87.4600731 222.559574,84.2664141 C223.052635,84.0053784 223.529547,83.731452 224,83.4532288 C223.475719,79.1713839 221.256947,75.463173 216.514737,73.8593611" id="Fill-138" fill="#C6C1BB"></path>
                <path d="M147.208209,35.9417135 C150.8096,37.744 154.843888,42.8082852 155.660389,46.802833 C156.438315,50.6067026 155.767541,55.0493981 154.779596,58.6399666 C152.601188,66.5784302 147.577884,73.4827066 141.739151,78.803384 C133.178747,86.6093423 123.843631,94.1632176 111.843635,93.9973167 C105.85596,93.9122117 100.374044,93.2712312 95.7547045,88.6313936 C83.6346982,76.4516855 93.1176843,63.7020972 101.708091,53.4679536 C109.797025,43.8338541 123.373232,30.5542448 137.202319,33.388564 C140.179012,34.000458 144.420104,34.5466381 147.208209,35.9417135" id="Fill-139" fill="#F26200"></path>
                <path d="M69.184961,125.813226 C67.8744575,132.408657 73.6678017,138.283561 82.1280971,138.940231 C90.5807351,139.595836 98.5006392,134.783098 99.8155183,128.184474 C101.123834,121.597557 95.3337714,115.717331 86.8778517,115.059598 C78.4197442,114.405057 70.4976523,119.216731 69.184961,125.813226" id="Fill-140" fill="#C6C1BB"></path>
                <path d="M138.453294,131.162219 C136.406462,137.601868 141.484263,144.088529 149.79597,145.657038 C158.101131,147.22341 166.49685,143.276495 168.548046,136.83364 C170.590514,130.40254 165.518168,123.911604 157.209734,122.343095 C148.899118,120.776723 140.501216,124.721502 138.453294,131.162219" id="Fill-141" fill="#FFFFFE"></path>
                <path d="M165.389178,111.996731 C158.590287,120.695358 147.301867,124.948887 145.471604,134.725508 C144.921448,137.65752 142.855403,139.034235 144.851467,141.065754 C151.862453,148.200426 160.957787,144.310558 167.362633,139.776708 C171.373063,136.937775 176.321235,131.791331 180.102344,128.591985 C186.025938,123.580831 191.903237,115.897422 192.865741,107.736708 C193.809941,99.7080384 189.604642,92.1555904 185.561912,85.3943204 C180.641733,77.1643384 169.534187,60.7346794 159.107067,69.5058228 C144.322844,81.9427932 163.167023,88.7538501 168.197018,97.3366693 C171.732656,103.369536 169.926078,106.190069 165.389178,111.996731" id="Fill-142" fill="#FFFFFE"></path>
                <path d="M223.589093,90.4967649 C225.428642,92.1860325 226.947103,94.2086085 227.958694,96.76253 C228.843568,98.9993757 229.274193,101.399629 229.557696,103.799882 C229.943217,107.069118 230.457604,110.91948 229.263454,114.07617 C227.83842,117.844286 224.186168,118.81824 221.972909,121.918657 C220.932324,123.375258 228.385023,128.307789 231.313483,128.60214 C245.090239,129.992728 247.958562,128.782862 248.971227,107.492247 C249.355674,99.4062716 245.80544,91.1763678 243.232433,83.2343212 C241.328451,77.3538086 241.26724,67.3545566 240.460759,61.390717 C238.418247,46.2825397 230.817352,41.4333354 219.030489,36.6057744 C209.466549,32.6883185 198.972632,36.0895792 195.757448,45.1614115 C193.13719,52.5526335 192.643207,68.3772074 199.998184,76.0963269 C206.272842,82.6813322 216.995494,84.4441874 223.589093,90.4967649" id="Fill-152" fill="#FFFFFE"></path>
                <path d="M219.1764,120.598651 C217.93861,126.625613 223.346815,132.134069 231.258559,132.909133 C239.163851,133.68312 246.580909,129.427272 247.824075,123.398154 C249.059714,117.379816 243.654736,111.864892 235.746218,111.090906 C227.835549,110.316919 220.41634,114.570611 219.1764,120.598651" id="Fill-153" fill="#FFFFFE"></path>
                <g id="head" transform="translate(79.500000, 77.000000) scale(-1, 1) translate(-79.500000, -77.000000) translate(0.000000, 15.000000)">
                    <path d="M130.03485,20.7191555 C123.62207,3.02748221 97.5563833,0.0815756445 81.1195842,0 C78.1615002,-0.0136630688 74.7024852,0.338070816 70.9746515,0.993919228 C67.2165893,1.4647015 63.8072355,2.14868863 60.9873393,3.0328935 C50.4343206,6.34243879 36.1070457,12.1790567 27.563149,21.363099 C23.4045579,25.832825 20.6094923,31.0915171 20.2996492,37.246319 C19.5482527,52.2464163 28.3771619,66.417504 36.535644,80.0820948 C40.2613185,86.3223951 43.8466459,92.4544695 46.3156744,98.5118681 C46.5240358,99.0237762 46.7421135,99.5281085 46.9677484,100.024865 C54.2593176,116.123454 73.9510886,126.566163 92.6863405,123.450342 C111.421592,120.334521 123.54218,107.458896 121.455327,86.4728289 C120.808651,79.9608819 125.340781,73.5073768 127.073528,66.4456427 C130.866137,50.9812566 135.155359,34.8339657 130.03485,20.7191555" id="Fill-139" fill="#FFFFFE"></path>
                    <path d="M39.8456753,42.8740611 C35.7648148,36.7387399 34.5243628,36.7289996 29.7504038,38.7236013 C26.4889543,40.0872465 23.4110354,41.9303321 20.6278454,44.1706064 C22.2968958,56.6317262 29.6435242,68.5398121 36.535644,80.0820948 C40.2613185,86.3223951 43.8466459,92.4544695 46.3156744,98.5118681 C46.5240358,99.0237762 46.7421135,99.5281085 46.9677484,100.024865 C47.3736753,100.920975 47.8238654,101.797604 48.3053638,102.656917 C57.4624691,92.293213 83.964311,90.0269645 84.7135484,74.9976462 C85.5793817,57.6306504 49.6127505,57.5603036 39.8456753,42.8740611" id="Fill-140" fill="#D27352"></path>
                    <path d="M85.2716978,108.609336 C87.1879749,107.229457 90.6426715,106.155857 94.3467541,105.632044 L94.3607888,105.630962 L94.3759031,105.628797 C98.0691898,105.037884 101.683666,105.046543 103.920582,105.801959 C114.569685,109.402631 106.377735,118.281477 96.586909,120.377811 L96.586909,120.381058 L96.5750335,120.38214 L96.55776,120.385387 L96.55776,120.38214 C86.5844825,121.262016 76.1480598,115.189466 85.2716978,108.609336" id="Fill-141" fill="#4D3422"></path>
                    <path d="M118.095635,67.9694621 C120.512843,68.7411121 117.76312,76.799606 111.552223,77.7000447 C105.340247,78.6004835 98.7137067,72.8168962 100.800559,70.7032461 C102.886332,68.5906782 105.439569,74.6545704 110.745767,73.5095413 C116.051966,72.3645123 115.678427,67.1988943 118.095635,67.9694621" id="Fill-142" fill="#0F0F0D"></path>
                    <path d="M92.6150874,123.30099 L92.4434322,123.501208 C92.4293975,123.6603 92.685261,123.730646 92.883906,123.732811 C93.9807722,123.742551 95.0161016,123.234972 95.7286328,122.558561 C96.441164,121.883232 96.878399,121.052058 97.2594953,120.223048 C97.9234448,118.783645 96.4087762,117.233851 95.6595389,119.102911 C94.9999077,120.742532 94.2884561,122.112671 92.6150874,123.30099" id="Fill-143" fill="#4D3422"></path>
                    <path d="M74.7359525,74.0138736 C77.3993078,74.8504591 74.3753686,83.5896933 67.5339896,84.5637256 C60.6926105,85.5366757 53.391325,79.2606609 55.6886983,76.9695205 C57.984992,74.6783801 60.8005698,81.2574271 66.6444052,80.0193238 C72.4882405,78.7790561 72.0736769,73.1751236 74.7359525,74.0138736" id="Fill-144" fill="#0F0F0D"></path>
                    <path d="M158.235971,45.7896645 C157.160697,52.4769373 153.966182,57.4553246 147.051391,56.2518536 C136.210121,54.3643955 110.58059,27.5200654 108.288614,24.9973218 C105.405022,21.8187297 102.462053,18.3879715 105.91459,13.6152133 C109.823795,8.21258079 119.177386,6.68876138 124.982357,5.53074521 C149.654289,0.615128891 162.349219,20.2007538 158.235971,45.7896645" id="Fill-145" fill="#A5775D"></path>
                    <path d="M1.74468931,60.7237441 C3.53681321,67.8309331 7.54750013,72.8883252 15.1834594,70.9196977 C27.1539834,67.8352621 53.4960455,36.4054044 55.8409209,33.4627447 C58.7903682,29.7560106 61.78084,25.7722186 57.4991753,20.960499 C52.6528836,15.5145762 43.1988902,13.4009262 36.5961012,12.716939 C8.5450438,9.80782924 -5.10100808,33.5330914 1.74468931,60.7237441" id="Fill-146" fill="#A5775D"></path>
                </g>
            </g>
        </g>
    </g>
</svg>