<?xml version="1.0" encoding="UTF-8"?>
<svg width="150px" height="95px" viewBox="0 0 150 95" version="1.1" xmlns="http://www.w3.org/2000/svg" xmlns:xlink="http://www.w3.org/1999/xlink">
    <title>sniffing</title>
    <g id="Dog-states" stroke="none" stroke-width="1" fill="none" fill-rule="evenodd">
        <g id="for-markdown-descriptions" transform="translate(-14.000000, -61.000000)">
            <g id="Group" transform="translate(14.000000, 19.000000)">
                <g id="sniffing" transform="translate(0.000000, 42.771084)">
                    <path d="M84.1051936,93.373494 C60.7154847,93.373494 43.1081739,89.283441 42.7758746,83.2009153 C42.3863495,76.0797185 65.8020701,68.9330609 95.0827758,67.2330612 C99.3382878,66.9856342 103.486502,66.8674699 107.464989,66.8674699 C130.849496,66.8674699 148.457457,70.9581757 148.790406,77.0439656 C149.179281,84.1612454 125.763561,91.307903 96.4913086,93.0079026 C92.2344961,93.2553296 88.0843314,93.373494 84.1051936,93.373494" id="Fill-134" fill-opacity="0.249950489" fill="#000000"></path>
                    <path d="M63.0911541,66.415588 C58.9191736,69.3942157 55.2429387,70.5550766 49.1389891,72.4068326 C47.4078036,72.9323575 52.5424985,82.8552338 57.2049925,81.1224399 C60.1245287,80.0367474 67.0957061,77.1581262 69.9164855,75.8260123 C74.3356848,73.7382929 78.968094,70.9609857 80.6476121,66.2750558 C82.3003155,61.6662553 80.6175273,56.57507 78.9360471,51.9767276 C76.8889709,46.378973 71.9857983,35.0141715 64.214103,38.6582026 C53.1939004,43.8265171 64.2710025,50.6465746 66.3416234,56.4691806 C67.7968133,60.5616073 67.6692798,63.1473987 63.0911541,66.415588" id="Fill-135" fill="#AA9A89"></path>
                    <path d="M126.770871,19.1356645 C126.781504,20.7247354 127.134398,24.3888395 128.898871,25.8215236 C131.385747,27.8403351 132.990054,24.9006508 133.369532,23.3522922 C134.848233,17.279702 131.607718,7.29421058 127.8043,1.96671954 C126.991513,0.828068495 125.611835,-0.397823124 124.412259,0.12368164 C123.237938,0.634200553 123.402091,2.30534221 123.748339,3.58680931 C124.49068,6.33714918 125.422428,9.04806923 126.202651,11.7893619 C126.976892,14.5112678 126.750933,16.4040652 126.770871,19.1356645" id="Fill-136" fill="#E4DCCC"></path>
                    <path d="M129.212747,16.9279038 C125.811367,16.2421339 113.269513,21.5994671 111.454836,22.535081 C108.278174,24.1727307 106.539054,24.0081199 103.066677,24.7043 C101.160158,25.0862231 99.1318367,24.9743137 97.209686,24.8994906 C89.9008234,24.6138616 84.4392057,20.6131036 76.7779597,23.5943157 C71.4583375,25.6652887 67.0779703,29.8404171 64.1384019,34.7488118 C62.250773,37.9017917 60.8855315,41.6286322 61.6730205,45.1719934 C62.6884841,49.7433589 67.234947,52.3797342 68.7369733,56.7032075 C71.06557,63.406055 76.5753881,68.579909 84.9980689,70.1219153 C95.7096138,72.0829308 105.007065,65.6683148 113.253229,59.703288 C116.806374,57.1313257 117.12619,55.2997866 121.19065,53.5456731 C124.969815,51.9151804 130.251659,51.9600742 133.890132,50.0179271 C140.343113,46.5754143 143.591424,40.3553384 143.362147,32.6941047 C143.160878,25.9691355 135.516567,18.2018482 129.212747,16.9279038" id="Fill-137" fill="#E4DCCC"></path>
                    <path d="M130.430565,44.493591 C126.768992,43.2543542 123.733247,44.4146422 120.432903,46.1314545 C117.524268,47.6437764 115.359491,50.1073664 112.631795,51.8351797 C109.773745,53.6458245 106.321647,54.7750508 103.0226,55.3380461 C100.653538,55.7424968 98.2124898,55.850566 95.95238,56.6905292 C94.0716575,57.3900671 92.4886079,58.5885353 90.731105,59.5624525 C84.3133014,63.1183829 75.3013976,62.6608683 68.0722892,55.6861972 C70.2941359,67.0858822 79.275559,70.313075 85.1991866,71.3691766 C95.8460219,73.268477 105.29568,66.2730981 113.516383,60.3694125 C117.057978,57.8249324 117.382241,56.0194646 121.430334,54.2774146 C125.193725,52.6596119 130.446778,52.686791 134.072033,50.7629001 C134.369057,50.6056496 134.656354,50.4406338 134.939759,50.2730294 C134.623927,47.6936048 133.287317,45.4597428 130.430565,44.493591" id="Fill-138" fill="#AA9A89"></path>
                    <path d="M88.6796437,21.6516346 C90.8491568,22.7373494 93.2794504,25.7881236 93.7713186,28.1944777 C94.2399489,30.4859654 93.8358682,33.162288 93.2407206,35.3252811 C91.9284266,40.1074881 88.90234,44.2666907 85.3850306,47.4719181 C80.2281607,52.1743026 74.6045969,56.7248299 67.3756839,56.6248896 C63.7686506,56.5736215 60.4662915,56.1874886 57.6835569,53.3924058 C50.3823483,46.0552322 56.0949906,38.3747574 61.2699344,32.2096106 C66.1427859,26.4059362 74.3212241,18.4061716 82.6519993,20.1135928 C84.445188,20.4822036 87.0000624,20.8112278 88.6796437,21.6516346" id="Fill-139" fill="#F26200"></path>
                    <path d="M41.6776873,75.7911001 C40.8882274,79.7642514 44.3781938,83.3033502 49.4747573,83.6989342 C54.5667079,84.0938772 59.3377344,81.1946372 60.1298303,77.2195624 C60.9179722,73.2515402 57.4299828,69.7092357 52.3360553,69.3130105 C47.2408098,68.9187088 42.4684652,71.8173076 41.6776873,75.7911001" id="Fill-140" fill="#AA9A89"></path>
                    <path d="M83.4055987,79.0133851 C82.1725676,82.8926916 85.2314837,86.8003188 90.2385363,87.7452038 C95.2416454,88.6888015 100.299308,86.3111413 101.534968,82.4299039 C102.76537,78.5557467 99.7097399,74.6455448 94.704659,73.7006598 C89.6982637,72.7570622 84.639287,75.133435 83.4055987,79.0133851" id="Fill-141" fill="#E4DCCC"></path>
                    <path d="M99.6320349,67.46791 C95.5363175,72.7080472 88.7360646,75.2704136 87.6334962,81.1599445 C87.3020771,82.9262169 86.0574719,83.755563 87.2599201,84.9793701 C91.4834057,89.2773649 96.9625221,86.934071 100.820863,84.2028361 C103.236785,82.4926358 106.217611,79.392368 108.495388,77.4650512 C112.063818,74.4462836 115.60436,69.8177239 116.184181,64.9016315 C116.752977,60.0650834 114.219664,55.5154159 111.784285,51.4423617 C108.820321,46.4845412 102.129028,36.5871563 95.8476309,41.8709776 C86.9414724,49.3631284 98.2933871,53.4661748 101.323505,58.6365478 C103.453407,62.2708049 102.365107,63.9699212 99.6320349,67.46791" id="Fill-142" fill="#E4DCCC"></path>
                    <path d="M134.692225,54.5161234 C135.800387,55.5337545 136.715122,56.7521738 137.324515,58.2906807 C137.857571,59.6381781 138.116983,61.0841139 138.287769,62.5300496 C138.52001,64.4994689 138.829882,66.8189637 138.110514,68.7205843 C137.25206,70.990534 135.051908,71.5772527 133.71862,73.4449741 C133.091761,74.3224446 137.581339,77.2938491 139.345472,77.4711685 C147.644722,78.3088725 149.372628,77.5800374 149.982667,64.7543656 C150.214262,59.8832962 148.075566,54.9255228 146.525562,50.1411573 C145.378585,46.5986799 145.341711,40.5750341 144.855879,36.9823596 C143.62545,27.881048 139.046598,24.9598406 131.946078,22.0516713 C126.184668,19.6917581 119.863032,21.7407104 117.926173,27.2056696 C116.347705,31.6582129 116.050125,41.1910888 120.480834,45.8411608 C124.260748,49.8080315 130.720177,50.8699924 134.692225,54.5161234" id="Fill-152" fill="#E4DCCC"></path>
                    <path d="M132.033976,72.6497898 C131.28832,76.2804897 134.546274,79.5988365 139.312385,80.0657429 C144.074609,80.5319998 148.542716,77.968236 149.291612,74.3362372 C150.035972,70.7107323 146.779961,67.3884892 142.015794,66.9222323 C137.250331,66.4559753 132.780928,69.0184404 132.033976,72.6497898" id="Fill-153" fill="#E4DCCC"></path>
                    <g id="head" transform="translate(47.891566, 46.385542) scale(-1, 1) translate(-47.891566, -46.385542) translate(0.000000, 9.036145)">
                        <path d="M78.3342472,12.481419 C74.4711263,1.82378446 58.7689056,0.0491419545 48.8672194,0 C47.0852411,-0.00823076433 45.0014971,0.203657118 42.7558142,0.598746523 C40.4919213,0.882350303 38.4380937,1.29439074 36.7393611,1.82704428 C30.3821208,3.82074626 21.7512324,7.33678117 16.6043066,12.8693368 C14.0991313,15.5619428 12.4153568,18.7298296 12.2287044,22.4375416 C11.7760559,31.4737448 17.0946758,40.0105446 22.0094241,48.2422258 C24.2538063,52.0014428 26.4136421,55.6954635 27.9010087,59.3444989 C28.0265276,59.6528772 28.1578997,59.9566918 28.2938243,60.2559427 C32.6863359,69.9538881 44.5488486,76.2446763 55.8351449,74.3676757 C67.1214412,72.490675 74.4229999,64.7342746 73.1658597,52.0920656 C72.7762958,48.169206 75.5064948,44.2815523 76.5503178,40.0274956 C78.8350222,30.7116004 81.4188907,20.9843167 78.3342472,12.481419" id="Fill-139" fill="#E4DCCC"></path>
                        <path d="M24.0034188,25.8277477 C21.5450692,22.131771 20.7978089,22.1259034 17.92193,23.3274707 C15.9572014,24.1489437 14.1030334,25.2592362 12.4264129,26.608799 C13.4318649,34.1154977 17.8575447,41.2890434 22.0094241,48.2422258 C24.2538063,52.0014428 26.4136421,55.6954635 27.9010087,59.3444989 C28.0265276,59.6528772 28.1578997,59.9566918 28.2938243,60.2559427 C28.5383586,60.7957679 28.8095575,61.3238577 29.0996167,61.841516 C34.6159453,55.5983211 50.5809103,54.2331112 51.0322581,45.179305 C51.5538444,34.7172593 29.8871991,34.6748817 24.0034188,25.8277477" id="Fill-140" fill="#D27352"></path>
                        <path d="M51.3684927,65.427311 C52.5228764,64.5960585 54.604019,63.9493115 56.8353941,63.6337616 L56.8438487,63.6331096 L56.8529537,63.6318057 C59.0778252,63.275834 61.2552206,63.2810497 62.6027604,63.7361197 C69.0178824,65.9051996 64.0829731,71.2539018 58.1848849,72.5167535 L58.1848849,72.5187094 L58.177731,72.5193614 L58.1673253,72.5213173 L58.1673253,72.5193614 C52.1593268,73.0494071 45.8723252,69.3912443 51.3684927,65.427311" id="Fill-141" fill="#4D3422"></path>
                        <path d="M71.1419486,40.9454591 C72.598098,41.4103085 70.9416386,46.2648229 67.2001344,46.8072559 C63.4579799,47.3496888 59.4660883,43.8656001 60.7232285,42.5923169 C61.9797184,41.3196857 63.5178128,44.9726328 66.7143177,44.2828562 C69.9108227,43.5930797 69.6857991,40.4812616 71.1419486,40.9454591" id="Fill-142" fill="#0F0F0D"></path>
                        <path d="M55.7922213,74.2777048 L55.6888146,74.3983179 C55.6803599,74.4941564 55.8344945,74.536534 55.9541602,74.5378379 C56.614923,74.5437056 57.2386154,74.2379351 57.6678511,73.8304584 C58.0970867,73.4236337 58.3604814,72.9229263 58.5900574,72.4235229 C58.990027,71.5564125 58.077576,70.6228018 57.6262282,71.7487415 C57.2288601,72.736465 56.8002748,73.5618498 55.7922213,74.2777048" id="Fill-143" fill="#4D3422"></path>
                        <path d="M45.0216582,44.5866709 C46.626089,45.090638 44.8044389,50.3552369 40.6831262,50.9420034 C36.5618136,51.5281179 32.1634488,47.7473861 33.5474086,46.367181 C34.9307181,44.986976 36.6268493,48.9502573 40.147232,48.204412 C43.6676148,47.4572627 43.4178777,44.0813997 45.0216582,44.5866709" id="Fill-144" fill="#0F0F0D"></path>
                        <path d="M95.3228742,27.5841352 C94.6751186,31.6126128 92.7507121,34.6116413 88.5851751,33.8866588 C82.0542896,32.7496358 66.6148131,16.5783526 65.2341051,15.0586276 C63.4970014,13.1438131 61.724128,11.0770913 63.8039699,8.2019357 C66.1589128,4.94733783 71.7936063,4.02937433 75.2905762,3.33177422 C90.153186,0.370559573 97.8007346,12.1691288 95.3228742,27.5841352" id="Fill-145" fill="#A5775D"></path>
                        <path d="M1.05101765,36.5805687 C2.13061037,40.8620079 4.54668683,43.9086296 9.14666228,42.7227095 C16.3578213,40.8646157 32.2265334,21.9309665 33.639109,20.1582799 C35.4158844,17.9253076 37.2173735,15.5254329 34.6380574,12.6268066 C31.7186046,9.34613026 26.0234279,8.07284708 22.0458441,7.66080664 C5.14761674,5.90833087 -3.07289643,20.2006575 1.05101765,36.5805687" id="Fill-146" fill="#A5775D"></path>
                    </g>
                </g>
            </g>
        </g>
    </g>
</svg>