<?xml version="1.0" encoding="UTF-8"?>
<svg width="164px" height="110px" viewBox="0 0 164 110" version="1.1" xmlns="http://www.w3.org/2000/svg" xmlns:xlink="http://www.w3.org/1999/xlink">
    <title>wagging</title>
    <g id="Dog-states" stroke="none" stroke-width="1" fill="none" fill-rule="evenodd">
        <g id="for-markdown-descriptions" transform="translate(-14.000000, -46.000000)">
            <g id="svgs" transform="translate(14.000000, 19.000000)">
                <g id="wagging" transform="translate(0.000000, 27.282003)">
                    <path d="M84.1051936,108.862575 C60.7154847,108.862575 43.1081739,104.772522 42.7758746,98.6899967 C42.3863495,91.5687999 65.8020701,84.4221423 95.0827758,82.7221426 C99.3382878,82.4747156 103.486502,82.3565513 107.464989,82.3565513 C130.849496,82.3565513 148.457457,86.4472571 148.790406,92.533047 C149.179281,99.6503267 125.763561,106.796984 96.4913086,108.496984 C92.2344961,108.744411 88.0843314,108.862575 84.1051936,108.862575" id="Fill-134" fill-opacity="0.249950489" fill="#000000"></path>
                    <path d="M63.0911541,81.9046694 C58.9191736,84.8832971 55.2429387,86.0441579 49.1389891,87.895914 C47.4078036,88.4214388 52.5424985,98.3443152 57.2049925,96.6115212 C60.1245287,95.5258288 67.0957061,92.6472076 69.9164855,91.3150937 C74.3356848,89.2273743 78.968094,86.4500671 80.6476121,81.7641372 C82.3003155,77.1553367 80.6175273,72.0641514 78.9360471,67.465809 C76.8889709,61.8680544 71.9857983,50.5032529 64.214103,54.147284 C53.1939004,59.3155985 64.2710025,66.135656 66.3416234,71.958262 C67.7968133,76.0506887 67.6692798,78.6364801 63.0911541,81.9046694" id="Fill-135" fill="#AA9A89"></path>
                    <path d="M126.770871,34.6247459 C126.781504,36.2138168 127.134398,39.8779209 128.898871,41.3106049 C131.385747,43.3294164 132.990054,40.3897322 133.369532,38.8413736 C134.848233,32.7687834 131.607718,22.783292 127.8043,17.4558009 C126.991513,16.3171499 125.611835,15.0912583 124.412259,15.612763 C123.237938,16.1232819 123.402091,17.7944236 123.748339,19.0758907 C124.49068,21.8262306 125.422428,24.5371506 126.202651,27.2784433 C126.976892,30.0003492 126.750933,31.8931466 126.770871,34.6247459" id="Fill-136" fill="#E4DCCC"></path>
                    <path d="M133.32245,41.7533896 C135.809326,43.7722011 137.413634,40.8325169 137.793111,39.2841583 C139.271812,33.2115681 136.031297,23.2260766 132.227879,17.8985856 C131.415092,16.7599346 130.035414,15.5340429 128.835839,16.0555477 C127.661517,16.5660666 127.82567,18.2372083 128.171919,19.5186754 C128.91426,22.2690152 129.846007,24.9799353 130.62623,27.721228 C131.400471,30.4431339 131.174512,32.3359312 131.19445,35.0675305 C131.205083,36.6566014 131.557978,40.3207055 133.32245,41.7533896 Z" id="Fill-136" fill="#E4DCCC" opacity="0.800013951" transform="translate(133.038037, 29.184878) rotate(30.000000) translate(-133.038037, -29.184878) "></path>
                    <path d="M136.847204,45.2781435 C139.33408,47.296955 140.938387,44.3572708 141.317865,42.8089121 C142.796566,36.736322 139.556051,26.7508305 135.752633,21.4233395 C134.939846,20.2846884 133.560168,19.0587968 132.360593,19.5803016 C131.186271,20.0908205 131.350424,21.7619621 131.696672,23.0434292 C132.439014,25.7937691 133.370761,28.5046892 134.150984,31.2459819 C134.925225,33.9678878 134.699266,35.8606851 134.719204,38.5922844 C134.729837,40.1813553 135.082732,43.8454594 136.847204,45.2781435 Z" id="Fill-136" fill="#E4DCCC" opacity="0.603771391" transform="translate(136.562791, 32.709632) rotate(60.000000) translate(-136.562791, -32.709632) "></path>
                    <path d="M138.144377,50.1192592 C140.631253,52.1380707 142.235561,49.1983865 142.615038,47.6500279 C144.093739,41.5774377 140.853224,31.5919463 137.049806,26.2644552 C136.237019,25.1258042 134.857341,23.8999125 133.657766,24.4214173 C132.483444,24.9319362 132.647597,26.6030779 132.993845,27.884545 C133.736187,30.6348848 134.667934,33.3458049 135.448157,36.0870976 C136.222398,38.8090035 135.996439,40.7018008 136.016377,43.4334001 C136.02701,45.022471 136.379905,48.6865751 138.144377,50.1192592 Z" id="Fill-136" fill="#E4DCCC" opacity="0.401994978" transform="translate(137.859964, 37.550748) rotate(90.000000) translate(-137.859964, -37.550748) "></path>
                    <path d="M111.454836,38.0241624 C108.278174,39.6618121 106.539054,39.4972013 103.066677,40.1933814 C101.160158,40.5753044 99.1318367,40.4633951 97.209686,40.388572 C89.9008234,40.102943 84.4392057,36.102185 76.7779597,39.0833971 C71.4583375,41.1543701 67.0779703,45.3294985 64.1384019,50.2378931 C62.250773,53.3908731 60.8855315,57.1177136 61.6730205,60.6610748 C62.6884841,65.2324403 67.234947,67.8688156 68.7369733,72.1922888 C71.06557,78.8951364 76.5753881,84.0689904 84.9980689,85.6109966 C95.7096138,87.5720122 105.007065,81.1573962 113.253229,75.1923694 C116.806374,72.620407 117.12619,70.7888679 121.19065,69.0347545 C124.969815,67.4042618 130.251659,67.4491556 133.890132,65.5070085 C140.343113,62.0644957 143.591424,55.8444198 143.362147,48.183186 C143.160878,41.4582169 135.516567,33.6909296 129.212747,32.4169851 C125.811367,31.7312153 113.269513,37.0885485 111.454836,38.0241624 Z" id="Fill-137" fill="#E4DCCC"></path>
                    <path d="M130.430565,59.9826724 C126.768992,58.7434355 123.733247,59.9037236 120.432903,61.6205359 C117.524268,63.1328578 115.359491,65.5964478 112.631795,67.3242611 C109.773745,69.1349059 106.321647,70.2641321 103.0226,70.8271275 C100.653538,71.2315782 98.2124898,71.3396474 95.95238,72.1796105 C94.0716575,72.8791484 92.4886079,74.0776167 90.731105,75.0515339 C84.3133014,78.6074642 75.3013976,78.1499496 68.0722892,71.1752786 C70.2941359,82.5749636 79.275559,85.8021564 85.1991866,86.858258 C95.8460219,88.7575584 105.29568,81.7621795 113.516383,75.8584939 C117.057978,73.3140138 117.382241,71.508546 121.430334,69.766496 C125.193725,68.1486933 130.446778,68.1758724 134.072033,66.2519814 C134.369057,66.094731 134.656354,65.9297151 134.939759,65.7621108 C134.623927,63.1826862 133.287317,60.9488242 130.430565,59.9826724" id="Fill-138" fill="#AA9A89"></path>
                    <path d="M88.6796437,37.140716 C90.8491568,38.2264308 93.2794504,41.277205 93.7713186,43.6835591 C94.2399489,45.9750468 93.8358682,48.6513694 93.2407206,50.8143625 C91.9284266,55.5965694 88.90234,59.7557721 85.3850306,62.9609995 C80.2281607,67.663384 74.6045969,72.2139112 67.3756839,72.113971 C63.7686506,72.0627029 60.4662915,71.67657 57.6835569,68.8814872 C50.3823483,61.5443136 56.0949906,53.8638387 61.2699344,47.698692 C66.1427859,41.8950176 74.3212241,33.895253 82.6519993,35.6026741 C84.445188,35.971285 87.0000624,36.3003092 88.6796437,37.140716" id="Fill-139" fill="#F26200"></path>
                    <path d="M41.6776873,91.2801815 C40.8882274,95.2533328 44.3781938,98.7924316 49.4747573,99.1880156 C54.5667079,99.5829585 59.3377344,96.6837185 60.1298303,92.7086438 C60.9179722,88.7406216 57.4299828,85.1983171 52.3360553,84.8020919 C47.2408098,84.4077902 42.4684652,87.306389 41.6776873,91.2801815" id="Fill-140" fill="#AA9A89"></path>
                    <path d="M83.4055987,94.5024665 C82.1725676,98.3817729 85.2314837,102.2894 90.2385363,103.234285 C95.2416454,104.177883 100.299308,101.800223 101.534968,97.9189853 C102.76537,94.0448281 99.7097399,90.1346262 94.704659,89.1897412 C89.6982637,88.2461436 84.639287,90.6225164 83.4055987,94.5024665" id="Fill-141" fill="#E4DCCC"></path>
                    <path d="M99.6320349,82.9569914 C95.5363175,88.1971286 88.7360646,90.759495 87.6334962,96.6490258 C87.3020771,98.4152983 86.0574719,99.2446444 87.2599201,100.468451 C91.4834057,104.766446 96.9625221,102.423152 100.820863,99.6919175 C103.236785,97.9817172 106.217611,94.8814494 108.495388,92.9541325 C112.063818,89.9353649 115.60436,85.3068053 116.184181,80.3907129 C116.752977,75.5541647 114.219664,71.0044973 111.784285,66.931443 C108.820321,61.9736226 102.129028,52.0762377 95.8476309,57.360059 C86.9414724,64.8522098 98.2933871,68.9552561 101.323505,74.1256292 C103.453407,77.7598863 102.365107,79.4590026 99.6320349,82.9569914" id="Fill-142" fill="#E4DCCC"></path>
                    <path d="M134.692225,70.0052048 C135.800387,71.0228359 136.715122,72.2412552 137.324515,73.7797621 C137.857571,75.1272595 138.116983,76.5731953 138.287769,78.019131 C138.52001,79.9885503 138.829882,82.3080451 138.110514,84.2096657 C137.25206,86.4796154 135.051908,87.0663341 133.71862,88.9340555 C133.091761,89.8115259 137.581339,92.7829304 139.345472,92.9602499 C147.644722,93.7979539 149.372628,93.0691188 149.982667,80.243447 C150.214262,75.3723776 148.075566,70.4146041 146.525562,65.6302387 C145.378585,62.0877613 145.341711,56.0641155 144.855879,52.471441 C143.62545,43.3701294 139.046598,40.448922 131.946078,37.5407527 C126.184668,35.1808395 119.863032,37.2297918 117.926173,42.6947509 C116.347705,47.1472943 116.050125,56.6801702 120.480834,61.3302422 C124.260748,65.2971128 130.720177,66.3590738 134.692225,70.0052048" id="Fill-152" fill="#E4DCCC"></path>
                    <path d="M132.033976,88.1388711 C131.28832,91.7695711 134.546274,95.0879179 139.312385,95.5548242 C144.074609,96.0210812 148.542716,93.4573174 149.291612,89.8253186 C150.035972,86.1998137 146.779961,82.8775706 142.015794,82.4113137 C137.250331,81.9450567 132.780928,84.5075218 132.033976,88.1388711" id="Fill-153" fill="#E4DCCC"></path>
                    <g id="head" transform="translate(47.891566, 61.874624) scale(-1, 1) translate(-47.891566, -61.874624) translate(0.000000, 24.525226)">
                        <path d="M78.3342472,12.481419 C74.4711263,1.82378446 58.7689056,0.0491419545 48.8672194,0 C47.0852411,-0.00823076433 45.0014971,0.203657118 42.7558142,0.598746523 C40.4919213,0.882350303 38.4380937,1.29439074 36.7393611,1.82704428 C30.3821208,3.82074626 21.7512324,7.33678117 16.6043066,12.8693368 C14.0991313,15.5619428 12.4153568,18.7298296 12.2287044,22.4375416 C11.7760559,31.4737448 17.0946758,40.0105446 22.0094241,48.2422258 C24.2538063,52.0014428 26.4136421,55.6954635 27.9010087,59.3444989 C28.0265276,59.6528772 28.1578997,59.9566918 28.2938243,60.2559427 C32.6863359,69.9538881 44.5488486,76.2446763 55.8351449,74.3676757 C67.1214412,72.490675 74.4229999,64.7342746 73.1658597,52.0920656 C72.7762958,48.169206 75.5064948,44.2815523 76.5503178,40.0274956 C78.8350222,30.7116004 81.4188907,20.9843167 78.3342472,12.481419" id="Fill-139" fill="#E4DCCC"></path>
                        <path d="M24.0034188,25.8277477 C21.5450692,22.131771 20.7978089,22.1259034 17.92193,23.3274707 C15.9572014,24.1489437 14.1030334,25.2592362 12.4264129,26.608799 C13.4318649,34.1154977 17.8575447,41.2890434 22.0094241,48.2422258 C24.2538063,52.0014428 26.4136421,55.6954635 27.9010087,59.3444989 C28.0265276,59.6528772 28.1578997,59.9566918 28.2938243,60.2559427 C28.5383586,60.7957679 28.8095575,61.3238577 29.0996167,61.841516 C34.6159453,55.5983211 50.5809103,54.2331112 51.0322581,45.179305 C51.5538444,34.7172593 29.8871991,34.6748817 24.0034188,25.8277477" id="Fill-140" fill="#D27352"></path>
                        <path d="M51.3684927,65.427311 C52.5228764,64.5960585 54.604019,63.9493115 56.8353941,63.6337616 L56.8438487,63.6331096 L56.8529537,63.6318057 C59.0778252,63.275834 61.2552206,63.2810497 62.6027604,63.7361197 C69.0178824,65.9051996 64.0829731,71.2539018 58.1848849,72.5167535 L58.1848849,72.5187094 L58.177731,72.5193614 L58.1673253,72.5213173 L58.1673253,72.5193614 C52.1593268,73.0494071 45.8723252,69.3912443 51.3684927,65.427311" id="Fill-141" fill="#4D3422"></path>
                        <path d="M71.1419486,40.9454591 C72.598098,41.4103085 70.9416386,46.2648229 67.2001344,46.8072559 C63.4579799,47.3496888 59.4660883,43.8656001 60.7232285,42.5923169 C61.9797184,41.3196857 63.5178128,44.9726328 66.7143177,44.2828562 C69.9108227,43.5930797 69.6857991,40.4812616 71.1419486,40.9454591" id="Fill-142" fill="#0F0F0D"></path>
                        <path d="M55.7922213,74.2777048 L55.6888146,74.3983179 C55.6803599,74.4941564 55.8344945,74.536534 55.9541602,74.5378379 C56.614923,74.5437056 57.2386154,74.2379351 57.6678511,73.8304584 C58.0970867,73.4236337 58.3604814,72.9229263 58.5900574,72.4235229 C58.990027,71.5564125 58.077576,70.6228018 57.6262282,71.7487415 C57.2288601,72.736465 56.8002748,73.5618498 55.7922213,74.2777048" id="Fill-143" fill="#4D3422"></path>
                        <path d="M45.0216582,44.5866709 C46.626089,45.090638 44.8044389,50.3552369 40.6831262,50.9420034 C36.5618136,51.5281179 32.1634488,47.7473861 33.5474086,46.367181 C34.9307181,44.986976 36.6268493,48.9502573 40.147232,48.204412 C43.6676148,47.4572627 43.4178777,44.0813997 45.0216582,44.5866709" id="Fill-144" fill="#0F0F0D"></path>
                        <path d="M95.3228742,27.5841352 C94.6751186,31.6126128 92.7507121,34.6116413 88.5851751,33.8866588 C82.0542896,32.7496358 66.6148131,16.5783526 65.2341051,15.0586276 C63.4970014,13.1438131 61.724128,11.0770913 63.8039699,8.2019357 C66.1589128,4.94733783 71.7936063,4.02937433 75.2905762,3.33177422 C90.153186,0.370559573 97.8007346,12.1691288 95.3228742,27.5841352" id="Fill-145" fill="#A5775D"></path>
                        <path d="M1.05101765,36.5805687 C2.13061037,40.8620079 4.54668683,43.9086296 9.14666228,42.7227095 C16.3578213,40.8646157 32.2265334,21.9309665 33.639109,20.1582799 C35.4158844,17.9253076 37.2173735,15.5254329 34.6380574,12.6268066 C31.7186046,9.34613026 26.0234279,8.07284708 22.0458441,7.66080664 C5.14761674,5.90833087 -3.07289643,20.2006575 1.05101765,36.5805687" id="Fill-146" fill="#A5775D"></path>
                    </g>
                    <path d="M137.245118,0.268956467 C137.648864,0.645795179 137.670677,1.27858431 137.293838,1.68233056 L134.160921,5.03894062 C146.00699,5.82569629 154.479883,12.9777158 159.474151,26.3406533 L161.721444,22.0824232 C161.959426,21.6315775 162.493183,21.4376109 162.958044,21.6132153 L163.072613,21.664881 C163.561029,21.922695 163.747969,22.5276341 163.490155,23.0160503 L160.013544,29.6023221 C159.764067,30.0749453 159.187067,30.2678786 158.703484,30.040371 L152.326832,27.0403937 C151.827091,26.8052838 151.612564,26.2095689 151.847674,25.7098272 C152.082784,25.2100854 152.678499,24.9955589 153.178241,25.2306688 L157.720709,27.368 L157.680092,27.2545118 C152.975991,14.5023462 145.163818,7.81656432 134.13768,7.04217168 L137.328589,10.8425467 C137.656433,11.2329518 137.634836,11.8004494 137.296921,12.1647925 L137.205872,12.2514258 C136.782933,12.6065895 136.152156,12.5516468 135.796992,12.128708 L131.161912,6.60912456 C131.106937,6.54273199 131.064081,6.4766294 131.029352,6.40581859 C131.003394,6.35215956 130.983555,6.30056807 130.968135,6.24799882 C130.950795,6.18929276 130.938824,6.12839646 130.932624,6.0658032 C130.929819,6.0371048 130.928221,6.00887391 130.927814,5.98063536 C130.927744,5.9755583 130.927711,5.970805 130.927711,5.96604392 L130.927763,5.95575409 C130.928037,5.92937093 130.929349,5.90300177 130.9317,5.87671243 L130.927711,5.96604392 C130.927711,5.92031111 130.930781,5.87529533 130.936726,5.83119141 C130.939191,5.81362591 130.942145,5.79550719 130.945598,5.77746708 C130.949313,5.7573435 130.953679,5.73776481 130.958609,5.71841167 C130.962449,5.70394614 130.966478,5.68949851 130.970837,5.67513077 C130.977772,5.65178579 130.985694,5.62878821 130.994415,5.606187 C130.99912,5.59429354 131.0039,5.58255953 131.008911,5.57090216 C131.02003,5.54485924 131.032259,5.51950811 131.045497,5.4947784 C131.049887,5.4866376 131.054516,5.47826414 131.059273,5.46994488 C131.074221,5.4437958 131.090286,5.4184672 131.107422,5.3939428 C131.11395,5.38460385 131.120468,5.37560205 131.127154,5.36668717 C131.142749,5.34587854 131.159332,5.32547452 131.176679,5.30575908 C131.183162,5.29839806 131.189849,5.29101867 131.196664,5.28371708 L135.831744,0.317676868 C136.208582,-0.0860693773 136.841372,-0.107882244 137.245118,0.268956467 Z" id="wag-arrow" fill="#A4A4A4" fill-rule="nonzero"></path>
                </g>
            </g>
        </g>
    </g>
</svg>