<?xml version="1.0" encoding="UTF-8"?>
<svg width="185px" height="188px" viewBox="0 0 185 188" version="1.1" xmlns="http://www.w3.org/2000/svg" xmlns:xlink="http://www.w3.org/1999/xlink">
    <title>waiting</title>
    <g id="Dog-states" stroke="none" stroke-width="1" fill="none" fill-rule="evenodd">
        <g id="for-markdown-descriptions" transform="translate(-46.000000, -58.000000)">
            <g id="waiting" transform="translate(138.263992, 151.727052) scale(-1, 1) translate(-138.263992, -151.727052) translate(46.000000, 58.000000)">
                <path d="M60.4869107,187.454104 C40.4569107,187.454104 34.9699107,184.156104 34.9699107,180.533104 C34.9699107,178.264104 40.0699107,176.261104 47.8689107,175.050104 C40.5379107,173.556104 36.2579107,171.757104 36.2579107,169.820104 C36.2579107,164.637104 66.8849107,160.439104 104.674911,160.439104 C142.453911,160.439104 173.080911,164.637104 173.080911,169.820104 C173.080911,174.667104 151.199911,179.267104 112.850911,179.267104 C110.203911,179.267104 107.476911,179.245104 104.674911,179.200104 C101.334911,179.146104 98.0559107,179.166104 94.8439107,179.102104 C91.5329107,183.747104 78.4909107,187.336104 61.7669107,187.449104 C61.3329107,187.452104 60.9079107,187.454104 60.4869107,187.454104" id="Fill-71" fill-opacity="0.249950489" fill="#000000"></path>
                <path d="M50.1829107,138.259104 C47.0489107,147.447104 38.4709107,154.542104 37.4829107,164.202104 C37.2149107,166.833104 37.6119107,169.669104 39.2789107,171.719104 C41.5309107,174.488104 45.6599107,175.156104 49.0619107,174.099104 C52.4649107,173.042104 55.2469107,170.571104 57.6269107,167.912104 C64.1949107,160.570104 68.5509107,151.074104 68.9369107,141.216104 C69.1059107,136.906104 68.3039107,132.139104 65.0059107,129.371104 C62.1899107,127.006104 57.4699107,126.767104 54.2859107,128.616104 C51.1599107,130.432104 51.2299107,135.190104 50.1829107,138.259104" id="Fill-72" fill="#C6C1BB"></path>
                <path d="M157.089911,123.231104 C154.501911,127.102104 161.724911,127.177104 163.852911,126.261104 C172.184911,122.659104 181.343911,110.405104 184.205911,101.317104 C184.817911,99.3761045 184.634911,96.4381045 182.982911,95.5011045 C181.367911,94.5841045 179.572911,96.2391045 178.387911,97.7641045 C175.844911,101.037104 160.496911,118.135104 157.089911,123.231104" id="Fill-73" fill="#FFFFFE"></path>
                <path d="M163.058911,117.645104 C155.238911,110.812104 134.196911,112.127104 131.147911,112.320104 C125.810911,112.660104 104.166911,104.044104 101.599911,100.711104 C95.7809107,93.1551045 89.1239107,90.7101045 78.6519107,90.8571045 C71.0719107,90.9631045 63.5989107,94.4271045 58.6049107,100.149104 C56.1979107,102.907104 54.3689107,106.126104 52.8209107,109.446104 C50.9309107,113.496104 49.4259107,118.104104 49.6889107,122.632104 C49.9079107,126.400104 52.5919107,129.800104 52.3569107,133.558104 C51.6959107,144.159104 56.3159107,154.569104 67.0609107,161.747104 C80.7259107,170.874104 97.2839107,167.654104 112.128911,164.420104 C118.525911,163.025104 120.027911,160.703104 126.658911,160.736104 C132.822911,160.769104 140.094911,164.003104 146.244911,163.523104 C157.152911,162.675104 167.567911,168.950104 171.683911,158.296104 C175.296911,148.944104 170.369911,124.034104 163.058911,117.645104" id="Fill-74" fill="#FFFFFE"></path>
                <path d="M144.847911,152.563104 C140.488911,148.606104 135.601911,148.377104 130.021911,148.764104 C121.680911,149.341104 113.933911,154.274104 105.409911,153.173104 C96.9889107,152.084104 88.5429107,149.315104 80.6769107,146.272104 C80.6769107,146.272104 70.4519107,152.208104 54.0279107,145.635104 C56.2089107,151.752104 59.1469107,159.203104 65.7229107,163.594104 C74.6569107,169.561104 87.5139107,168.385104 97.9129107,169.242104 C109.753911,170.217104 121.678911,170.166104 133.509911,169.081104 C137.534911,168.712104 144.585911,168.226104 147.322911,164.665104 C149.929911,161.272104 147.659911,155.116104 144.847911,152.563104" id="Fill-75" fill="#C6C1BB"></path>
                <path d="M99.6199107,85.8061045 C102.532911,88.0241045 105.297911,93.1601045 105.372911,96.7841045 C105.443911,100.234104 106.577911,113.281104 87.7419107,122.127104 C67.8039107,131.491104 48.5329107,127.263104 45.1769107,122.391104 C36.3729107,109.604104 46.9029107,100.217104 56.2279107,92.8581045 C65.0069107,85.9311045 79.2709107,76.8201045 91.1249107,81.7801045 C93.6759107,82.8481045 97.3649107,84.0891045 99.6199107,85.8061045" id="Fill-76" fill="#F26200"></path>
                <path d="M25.4439107,36.3741045 C23.7779107,42.0511045 25.7609107,46.8461045 30.7519107,48.0611045 C38.5779107,49.9661045 66.6399107,37.2191045 69.0499107,35.9271045 C72.0809107,34.2981045 75.2439107,32.4861045 74.6609107,27.5901045 C73.9989107,22.0481045 65.3459107,16.5511045 61.6069107,14.3831045 C41.0429107,2.45910447 31.8199107,14.6571045 25.4439107,36.3741045" id="Fill-77" fill="#A5775D"></path>
                <path d="M2.43591069,76.7731045 C4.22191069,69.5301045 16.1469107,67.9501045 21.8469107,63.7571045 C27.8329107,59.3541045 28.8079107,53.1131045 32.5499107,46.8831045 C35.7499107,41.5561045 39.1059107,34.3861045 44.1919107,30.6351045 C54.3469107,23.1511045 64.4869107,24.0011045 75.8109107,26.4891045 C90.9609107,29.8161045 103.204911,33.9141045 112.436911,46.8051045 C117.904911,54.4411045 119.545911,76.5471045 105.021911,94.3181045 C97.9869107,102.926104 71.9779107,125.782104 37.8389107,118.002104 C27.3429107,115.611104 18.1279107,113.104104 8.35291069,103.515104 C2.57391069,97.8461045 0.131910694,86.1171045 2.43591069,76.7731045" id="Fill-78" fill="#FFFFFE"></path>
                <path d="M116.296891,73.1322737 C118.166852,69.7592737 117.904675,65.8232737 116.912231,62.1472737 C114.187498,52.0462737 100.646325,37.1997061 88.5562232,33.1737061 C77.4489886,29.5817061 66.8552604,33.6677061 55.0656456,33.1737061 C51.5531832,33.0257061 48.3335297,37.906 44.7408577,37.94 C41.6617666,40.801 37.4885349,42.4077988 34.8919395,49.9794782 C32.2267619,57.7511437 32.1473218,59.807 32.0850696,65.375 C32.0060571,72.483 37.1564275,92.7270522 57.502276,106.084 C59.0457824,106.908 57.7126371,106.908 59.7382289,106.084 C69.9164687,101.944 88.5562232,95 100.107295,90.8509081 C112.35999,86.5325839 113.044212,79.0032737 116.296891,73.1322737 Z" id="Fill-124" fill="#D27352" transform="translate(74.883134, 69.191759) scale(-1, 1) translate(-74.883134, -69.191759) "></path>
                <path d="M56.6639107,64.1891045 C54.6669107,69.5421045 50.6299107,72.9671045 47.6449107,71.8381045 C44.6599107,70.7111045 43.8599107,65.4581045 45.8549107,60.1061045 C47.8519107,54.7531045 51.8889107,51.3281045 54.8749107,52.4561045 C57.8589107,53.5841045 58.6599107,58.8371045 56.6639107,64.1891045" id="Fill-79" fill="#0F0F0D"></path>
                <path d="M136.118911,16.0191045 C139.929911,20.3351045 140.225911,28.2521045 136.245911,32.5661045 C134.649911,34.2971045 132.594911,35.5351045 130.487911,36.5801045 C128.465911,37.5831045 126.366911,38.4301045 124.215911,39.1121045 C121.488911,39.9771045 118.677911,40.5761045 115.992911,41.5631045 C110.221911,43.6851045 105.149911,47.5511045 99.2209107,49.1741045 C92.2349107,51.0861045 84.3959107,49.5451045 78.6459107,45.1291045 C77.0109107,43.8741045 76.3669107,42.2491045 75.8949107,40.2921045 C74.3969107,34.0591045 82.1169107,22.4421045 85.5359107,17.6401045 C104.341911,-8.77689553 119.928911,-2.31289553 136.118911,16.0191045" id="Fill-80" fill="#A5775D"></path>
                <path d="M17.3589107,74.2991045 C15.9659107,72.7801045 13.2749107,71.5351045 10.3109107,70.8631045 L10.2999107,70.8611045 L10.2869107,70.8581045 C7.33991069,70.1161045 5.97691069,70.5491045 4.11591069,71.4551045 C-2.20808931,74.5341045 -1.14108931,83.8351045 6.60391069,86.3641045 L6.60291069,86.3661045 L6.61291069,86.3681045 L6.62691069,86.3721045 L6.62791069,86.3691045 C14.6769107,87.6171045 23.9899107,81.5391045 17.3589107,74.2991045" id="Fill-81" fill="#4D3422"></path>
                <path d="M19.5329107,101.242104 C20.2729107,100.961104 20.8339107,100.064104 20.4739107,99.3571045 C20.2259107,98.8711045 19.6629107,98.6531045 19.1489107,98.4761045 C18.0929107,98.1131045 10.3109107,96.4861045 9.94791069,94.2801045 C9.72791069,92.9441045 9.75791069,91.5151045 9.66391069,90.1651045 C9.50191069,87.7991045 9.33891069,85.4331045 9.17591069,83.0671045 C9.12191069,82.3021045 8.46491069,81.7221045 7.69791069,81.7771045 C6.93491069,81.8301045 6.35891069,82.4941045 6.41091069,83.2591045 C6.58991069,85.8591045 6.76991069,88.4601045 6.94891069,91.0611045 C7.09591069,93.1971045 6.49991069,96.4521045 8.16691069,98.1501045 C9.89391069,99.9101045 18.7929107,101.523104 19.5329107,101.242104" id="Fill-82" fill="#4D3422"></path>
                <path d="M97.2209107,167.074104 C103.494911,157.939104 105.409911,130.494104 87.9489107,134.399104 C79.1329107,136.371104 79.0899107,144.753104 76.9009107,152.125104 C76.4739107,153.564104 76.0389107,155.021104 75.2679107,156.308104 C73.8579107,158.663104 71.4719107,160.226104 69.1669107,161.708104 C65.8399107,163.846104 62.4329107,166.020104 58.5929107,166.952104 C55.0509107,167.812104 51.3509107,167.564104 47.7059107,167.610104 C44.0619107,167.658104 40.2629107,168.058104 37.1859107,170.019104 C34.1109107,171.981104 32.0139107,175.902104 33.1819107,179.366104 C34.3139107,182.722104 38.0579107,184.556104 41.5819107,184.778104 C45.1069107,185.000104 48.5769107,183.991104 52.0689107,183.463104 C57.2249107,182.683104 62.4819107,182.950104 67.6709107,182.427104 C78.8969107,181.297104 90.8189107,176.395104 97.2209107,167.074104" id="Fill-83" fill="#FFFFFE"></path>
                <path d="M66.8029107,164.801104 C67.9359107,167.198104 68.0869107,170.207104 66.6479107,172.426104 C64.7879107,175.294104 60.8899107,176.053104 57.5599107,175.478104 C54.2299107,174.902104 51.1619107,173.294104 47.8959107,172.421104 C46.7599107,172.118104 41.1259107,168.972104 39.6709107,168.511104 C35.9299107,167.326104 45.2469107,163.176104 47.5029107,161.386104 C53.5539107,156.586104 63.1309107,157.030104 66.8029107,164.801104" id="Fill-84" fill="#C6C1BB"></path>
                <path d="M66.1549107,162.436104 C67.3469107,164.923104 67.5069107,168.046104 65.9919107,170.350104 C64.0349107,173.326104 59.9319107,174.113104 56.4279107,173.516104 C52.9229107,172.919104 49.6939107,171.250104 46.2559107,170.345104 C45.0609107,170.030104 43.7779107,169.776104 42.8699107,168.935104 C39.8539107,166.144104 43.4679107,160.749104 45.8429107,158.892104 C52.2109107,153.910104 62.2899107,154.372104 66.1549107,162.436104" id="Fill-85" fill="#FFFFFE"></path>
                <path d="M123.408911,136.722104 C121.669911,142.805104 122.585911,149.963104 126.131911,154.853104 C128.117911,157.594104 130.780911,159.528104 133.041911,161.960104 C132.910911,161.819104 127.962911,161.526104 125.583911,163.142104 C123.368911,164.647104 121.420911,166.819104 121.050911,169.461104 C119.990911,177.024104 130.565911,177.917104 134.535911,177.617104 C154.480911,176.109104 153.909911,168.496104 153.044911,168.299104 C158.287911,169.494104 163.157911,171.127104 167.619911,166.260104 C171.598911,161.921104 172.808911,154.861104 171.707911,148.627104 C170.013911,139.029104 164.138911,130.682104 156.598911,126.635104 C154.158911,125.325104 151.497911,124.112104 148.846911,123.544104 C144.069911,122.522104 139.049911,120.780104 134.307911,123.127104 C129.342911,125.585104 125.121911,130.728104 123.408911,136.722104" id="Fill-86" fill="#FFFFFE"></path>
                <path d="M123.676911,150.007104 C123.676911,150.007104 111.886911,123.873104 140.358911,121.981104 C140.358911,121.981104 112.370911,119.232104 120.975911,151.829104 L123.676911,150.007104" id="Fill-87" fill="#C6C1BB"></path>
                <path d="M99.2209107,49.1741045 C105.149911,47.5511045 110.221911,43.6851045 115.992911,41.5641045 C118.677911,40.5761045 121.487911,39.9771045 124.215911,39.1121045 C126.366911,38.4301045 128.465911,37.5831045 130.487911,36.5801045 C131.278911,36.1881045 132.052911,35.7531045 132.807911,35.2921045 C132.682911,34.8971045 132.543911,34.5051045 132.370911,34.1241045 C131.008911,31.1251045 128.265911,28.9461045 125.294911,27.5401045 C120.601911,25.3191045 115.212911,24.7971045 110.079911,25.5651045 C104.948911,26.3311045 100.057911,28.3371045 95.5669107,30.9461045 C90.4389107,33.9251045 85.7799107,37.7121045 81.7979107,42.1141045 C80.9089107,43.0971045 79.9409107,44.2101045 79.0369107,45.4111045 C84.7489107,49.6041045 92.3899107,51.0441045 99.2209107,49.1741045" id="Fill-88" fill="#A5775D"></path>
            </g>
        </g>
    </g>
</svg>