<?xml version="1.0" encoding="UTF-8"?>
<svg width="112px" height="114px" viewBox="0 0 112 114" version="1.1" xmlns="http://www.w3.org/2000/svg" xmlns:xlink="http://www.w3.org/1999/xlink">
    <title>waiting</title>
    <g id="Dog-states" stroke="none" stroke-width="1" fill="none" fill-rule="evenodd">
        <g id="for-markdown-descriptions" transform="translate(-33.000000, -42.000000)">
            <g id="Group" transform="translate(14.000000, 19.000000)">
                <g id="waiting" transform="translate(74.857827, 79.956056) scale(-1, 1) translate(-74.857827, -79.956056) translate(19.277108, 23.493976)">
                    <path d="M36.437898,112.924159 C24.3716329,112.924159 21.0662113,110.937412 21.0662113,108.754882 C21.0662113,107.388015 24.1385004,106.181388 28.8366932,105.45187 C24.4204281,104.55187 21.8421149,103.468135 21.8421149,102.301268 C21.8421149,99.1789786 40.2921149,96.6500629 63.0571751,96.6500629 C85.8156089,96.6500629 104.265609,99.1789786 104.265609,102.301268 C104.265609,105.221147 91.0842836,107.992232 67.9824763,107.992232 C66.387898,107.992232 64.7451269,107.978979 63.0571751,107.95187 C61.0451269,107.91934 59.0698257,107.931388 57.134886,107.892834 C55.1403076,110.691027 47.2836811,112.853075 37.2089823,112.921147 C36.9475366,112.922954 36.6915125,112.924159 36.437898,112.924159" id="Fill-71" fill-opacity="0.249950489" fill="#000000"></path>
                    <path d="M30.2306691,83.2886172 C28.3427173,88.8235569 23.1752474,93.0976533 22.5800667,98.9169304 C22.4186209,100.50187 22.6577775,102.210304 23.6619944,103.445244 C25.0186209,105.113316 27.5059703,105.515726 29.5553679,104.878979 C31.6053679,104.242232 33.2812715,102.753677 34.7150064,101.15187 C38.6716329,96.7289786 41.2957293,91.0084967 41.5282595,85.0699425 C41.6300667,82.4735569 41.1469342,79.6018702 39.1601872,77.9344003 C37.4638016,76.5097015 34.6204281,76.3657256 32.7023558,77.479581 C30.8192233,78.5735569 30.861392,81.439822 30.2306691,83.2886172" id="Fill-72" fill="#C6C1BB"></path>
                    <path d="M94.6324763,74.2356051 C93.0734402,76.5675328 97.424645,76.6127135 98.7065727,76.0609063 C103.72585,73.8910268 109.24332,66.5090991 110.967416,61.0344003 C111.336091,59.8651232 111.22585,58.0952437 110.230669,57.5307858 C109.257778,56.9783762 108.176452,57.9753641 107.462597,58.8940388 C105.930669,60.8657256 96.684886,71.1657256 94.6324763,74.2356051" id="Fill-73" fill="#FFFFFE"></path>
                    <path d="M98.2282595,70.8705449 C93.5174161,66.7542798 80.8415125,67.5464485 79.0047655,67.6627135 C75.7897052,67.8675328 62.751151,62.6771714 61.2047655,60.66934 C57.6993438,56.1175328 53.6891028,54.6446412 47.3806691,54.7331955 C42.814404,54.7970509 38.3125968,56.8837979 35.3041631,60.3307858 C33.8541631,61.9922316 32.7523558,63.9313882 31.8198257,65.9313882 C30.6812715,68.3711473 29.774645,71.1470509 29.9330787,73.8747617 C30.0650064,76.1446412 31.6818739,78.192834 31.5403076,80.4566894 C31.1421149,86.842834 33.9252474,93.1139184 40.398139,97.4380147 C48.6300667,102.936208 58.6047655,100.996448 67.5475366,99.0482557 C71.401151,98.2078943 72.3059703,96.8090991 76.3005486,96.8289786 C80.0138016,96.8488581 84.3945245,98.7970509 88.0993438,98.5078943 C94.6704281,97.9970509 100.944525,101.777171 103.424043,95.3590991 C105.600549,89.7253641 102.632476,74.71934 98.2282595,70.8705449" id="Fill-74" fill="#FFFFFE"></path>
                    <path d="M87.2577775,91.9054846 C84.6318739,89.5217497 81.687898,89.3837979 78.3264522,89.6169304 C73.3017534,89.9645208 68.634886,92.9362075 63.4999462,92.2729545 C58.4270546,91.6169304 53.3391028,89.9488581 48.6005486,88.1157256 C48.6005486,88.1157256 42.4409101,91.6916292 32.5469342,87.7319906 C33.8607896,91.4169304 35.6306691,95.9054846 39.5921149,98.5506653 C44.9740426,102.145244 52.7192233,101.43681 58.9836811,101.953075 C66.1168137,102.540424 73.3005486,102.509701 80.427657,101.856087 C82.8523558,101.633798 87.0999462,101.341027 88.7487414,99.1958461 C90.3192233,97.1518702 88.9517534,93.4434364 87.2577775,91.9054846" id="Fill-75" fill="#C6C1BB"></path>
                    <path d="M60.0119944,51.6904244 C61.7668137,53.026569 63.4324763,56.1205449 63.477657,58.3036774 C63.5204281,60.3819906 64.2035607,68.2416292 52.8565727,73.5705449 C40.8457293,79.2115087 29.2366932,76.6645208 27.2150064,73.729581 C21.911392,66.026569 28.2547655,60.3717497 33.8722354,55.9386172 C39.1607896,51.7657256 47.7535607,46.2771714 54.8945245,49.2651232 C56.4312715,49.9084967 58.6535607,50.656087 60.0119944,51.6904244" id="Fill-76" fill="#F26200"></path>
                    <path d="M15.327657,21.9121111 C14.3240426,25.3319906 15.5186209,28.2205449 18.5252474,28.9524726 C23.2397052,30.1000629 40.1445245,22.4211473 41.5963317,21.642834 C43.4222354,20.6615087 45.327657,19.5699425 44.9764522,16.6205449 C44.577657,13.2819906 39.3650064,9.97054486 37.1125968,8.66452076 C24.724645,1.48138823 19.1686209,8.82958101 15.327657,21.9121111" id="Fill-77" fill="#A5775D"></path>
                    <path d="M1.46741608,46.2488581 C2.5433197,41.8856051 9.72705464,40.9337979 13.1607896,38.4078943 C16.7668137,35.7554846 17.3541631,31.9958461 19.6083799,28.242834 C21.5360908,25.0337979 23.5577775,20.7145208 26.6216329,18.4548822 C32.7391028,13.9464485 38.8475366,14.4584967 45.6692233,15.9572918 C54.7957293,17.9615087 62.1716329,20.4301834 67.7330787,28.1958461 C71.0270546,32.7958461 72.0156089,46.1127135 63.2662113,56.8181352 C59.0282595,62.0036774 43.3601872,75.7723521 22.7945245,71.0856051 C16.4716329,69.6452437 10.9204281,68.1350027 5.03187391,62.3584967 C1.55054861,58.9434364 0.0794642737,51.8777738 1.46741608,46.2488581" id="Fill-78" fill="#FFFFFE"></path>
                    <path d="M70.0583682,44.0555866 C71.1848508,42.0236589 71.0269125,39.6525745 70.4290545,37.4381167 C68.7876496,31.3531769 60.6303161,22.4094615 53.3471224,19.9841603 C46.6560172,17.8203049 40.2742533,20.2817506 33.1720756,19.9841603 C31.0561344,19.8950036 29.1165842,22.8349398 26.9523239,22.8554217 C25.0974498,24.5789157 22.5834548,25.5468667 21.0192407,30.1081194 C19.413712,34.7898456 19.3658565,36.0283133 19.3283552,39.3825301 C19.2807573,43.6644578 22.3833901,55.85967 34.6399253,63.9060241 C35.5697485,64.4024096 34.7666488,64.4024096 35.9868849,63.9060241 C42.1183546,61.4120482 53.3471224,57.2289157 60.3055995,54.7294627 C67.6867408,52.1280626 68.0989229,47.5923336 70.0583682,44.0555866 Z" id="Fill-124" fill="#D27352" transform="translate(45.110322, 41.681782) scale(-1, 1) translate(-45.110322, -41.681782) "></path>
                    <path d="M34.134886,38.6681352 C32.9318739,41.892834 30.4999462,43.956087 28.7017534,43.2759665 C26.9035607,42.5970509 26.4216329,39.4325931 27.6234402,36.2084967 C28.8264522,32.9837979 31.2583799,30.9205449 33.0571751,31.6000629 C34.8547655,32.279581 35.3372956,35.4440388 34.134886,38.6681352" id="Fill-79" fill="#0F0F0D"></path>
                    <path d="M81.9993438,9.65006293 C84.2951269,12.2500629 84.4734402,17.01934 82.0758498,19.6181352 C81.114404,20.6609063 79.8764522,21.4066894 78.6071751,22.0362075 C77.3891028,22.6404244 76.124645,23.1506653 74.8288619,23.5615087 C73.1860908,24.0825931 71.4927173,24.4434364 69.8752474,25.0380147 C66.3987414,26.316328 63.3433197,28.6452437 59.7716329,29.6229545 C55.5631992,30.7747617 50.8409101,29.8464485 47.3770546,27.1862075 C46.3921149,26.4301834 46.0041631,25.4512678 45.7198257,24.2723521 C44.8174161,20.5175328 49.4680185,13.51934 51.527657,10.626569 C62.8565727,-5.28728646 72.2463317,-1.39331056 81.9993438,9.65006293" id="Fill-80" fill="#A5775D"></path>
                    <path d="M10.4571751,44.7584967 C9.61801849,43.8434364 7.99693415,43.0934364 6.21139198,42.6886172 L6.20476548,42.6874123 L6.19693415,42.6856051 C4.42163295,42.2386172 3.60054861,42.4994605 2.47946427,43.0452437 C-1.33017428,44.9000629 -0.687403196,50.503075 3.97825945,52.026569 L3.97765704,52.0277738 L3.98368114,52.0289786 L3.99211488,52.0313882 L3.99271729,52.029581 C8.84151247,52.7813882 14.4517534,49.1199425 10.4571751,44.7584967" id="Fill-81" fill="#4D3422"></path>
                    <path d="M11.7668137,60.9892196 C12.2125968,60.8199425 12.5505486,60.279581 12.3336811,59.8536774 C12.1842836,59.5609063 11.8451269,59.429581 11.5354884,59.3229545 C10.8993438,59.1042798 6.21139198,58.1241593 5.99271729,56.7952437 C5.86018717,55.9904244 5.87825945,55.129581 5.82163295,54.316328 C5.72404259,52.8910268 5.62584982,51.4657256 5.52765704,50.0404244 C5.49512692,49.579581 5.09934379,49.2301834 4.6372956,49.2633159 C4.17765704,49.2952437 3.83066909,49.6952437 3.86199439,50.156087 C3.96982572,51.7223521 4.07825945,53.2892196 4.18609078,54.856087 C4.274645,56.142834 3.91560885,58.1036774 4.91982572,59.126569 C5.96018717,60.1868099 11.3210305,61.1584967 11.7668137,60.9892196" id="Fill-82" fill="#4D3422"></path>
                    <path d="M58.5668137,100.647051 C62.3463317,95.1440388 63.4999462,78.6109063 52.9812715,80.9633159 C47.6704281,82.1512678 47.6445245,87.2006653 46.3258498,91.6416292 C46.0686209,92.5084967 45.8065727,93.3862075 45.3421149,94.1615087 C44.4927173,95.5801834 43.0553679,96.5217497 41.6668137,97.4145208 C39.6625968,98.7024726 37.6101872,100.012111 35.2969342,100.573557 C33.1631992,101.091629 30.9342836,100.942232 28.7385004,100.969942 C26.5433197,100.998858 24.2547655,101.239822 22.401151,102.421147 C20.5487414,103.603075 19.2854884,105.965123 19.9891028,108.05187 C20.6710305,110.073557 22.9264522,111.178376 25.0493438,111.312111 C27.1728378,111.445846 29.2631992,110.838015 31.3668137,110.519942 C34.4728378,110.050063 37.6397052,110.210906 40.7656089,109.895846 C47.5282595,109.215123 54.7101872,106.262111 58.5668137,100.647051" id="Fill-83" fill="#FFFFFE"></path>
                    <path d="M40.2427173,99.2777738 C40.9252474,100.72175 41.0162113,102.5344 40.1493438,103.871147 C39.0288619,105.598858 36.6806691,106.056087 34.674645,105.709701 C32.6686209,105.362714 30.8204281,104.394039 28.8529582,103.868135 C28.1686209,103.685605 24.774645,101.790424 23.898139,101.512714 C21.6445245,100.798858 27.2571751,98.2988581 28.6162113,97.2205449 C32.261392,94.3289786 38.0306691,94.5964485 40.2427173,99.2777738" id="Fill-84" fill="#C6C1BB"></path>
                    <path d="M39.8523558,97.853075 C40.5704281,99.3512678 40.6668137,101.232593 39.7541631,102.620545 C38.5752474,104.413316 36.1035607,104.887412 33.9927173,104.527774 C31.8812715,104.168135 29.9360908,103.162714 27.8650064,102.617533 C27.1451269,102.427774 26.3722354,102.274762 25.8252474,101.768135 C24.0083799,100.08681 26.1854884,96.8368099 27.6162113,95.7181352 C31.4523558,92.7169304 37.5240426,92.9952437 39.8523558,97.853075" id="Fill-85" fill="#FFFFFE"></path>
                    <path d="M74.3427173,82.3627135 C73.2951269,86.0271714 73.8469342,90.3392196 75.9830787,93.2850027 C77.1794643,94.9362075 78.7836811,96.1012678 80.1457293,97.566328 C80.0668137,97.4813882 77.0860908,97.3048822 75.6529582,98.2783762 C74.3186209,99.1850027 73.1451269,100.493436 72.9222354,102.085003 C72.2836811,106.641027 78.6541631,107.178979 81.0457293,106.998256 C93.0607896,106.089822 92.7168137,101.503677 92.1957293,101.385003 C95.3541631,102.104882 98.287898,103.088617 100.97585,100.156689 C103.372838,97.542834 104.101753,93.289822 103.4385,89.5344003 C102.418018,83.7524726 98.8788619,78.7241593 94.3366932,76.2862075 C92.8668137,75.4970509 91.2638016,74.766328 89.6668137,74.4241593 C86.7891028,73.8084967 83.7650064,72.7590991 80.9083799,74.1729545 C77.9174161,75.6536774 75.374645,78.7518702 74.3427173,82.3627135" id="Fill-86" fill="#FFFFFE"></path>
                    <path d="M74.5041631,90.3657256 C74.5041631,90.3657256 67.4017534,74.6223521 84.5535607,73.4825931 C84.5535607,73.4825931 67.6933197,71.826569 72.8770546,91.4633159 L74.5041631,90.3657256" id="Fill-87" fill="#C6C1BB"></path>
                    <path d="M59.7716329,29.6229545 C63.3433197,28.6452437 66.3987414,26.316328 69.8752474,25.0386172 C71.4927173,24.4434364 73.1854884,24.0825931 74.8288619,23.5615087 C76.124645,23.1506653 77.3891028,22.6404244 78.6071751,22.0362075 C79.0836811,21.8000629 79.5499462,21.5380147 80.0047655,21.2603039 C79.9294643,21.0223521 79.8457293,20.7862075 79.7415125,20.5566894 C78.9210305,18.7500629 77.2686209,17.4374123 75.4788619,16.5904244 C72.6517534,15.2524726 69.4053679,14.9380147 66.3131992,15.4006653 C63.2222354,15.8621111 60.2758498,17.0705449 57.5704281,18.6422316 C54.4812715,20.4368099 51.674645,22.7181352 49.2758498,25.3699425 C48.7403076,25.9621111 48.1571751,26.6325931 47.6125968,27.356087 C51.0535607,29.8819906 55.6565727,30.7494605 59.7716329,29.6229545" id="Fill-88" fill="#A5775D"></path>
                </g>
            </g>
        </g>
    </g>
</svg>