<?xml version="1.0" encoding="UTF-8"?>
<svg width="111px" height="126px" viewBox="0 0 111 126" version="1.1" xmlns="http://www.w3.org/2000/svg" xmlns:xlink="http://www.w3.org/1999/xlink">
    <title>walking</title>
    <g id="Dog-states" stroke="none" stroke-width="1" fill="none" fill-rule="evenodd">
        <g id="for-markdown-descriptions" transform="translate(-34.000000, -30.000000)">
            <g id="Group" transform="translate(14.000000, 19.000000)">
                <g id="walking" transform="translate(20.481928, 11.445783)">
                    <path d="M55.7771084,125.034669 C55.3090361,125.034669 54.8379518,125.031054 54.3572289,125.024428 C24.0331325,124.603946 0,112.736476 0,108.670813 C0,104.604548 7.4,103.558765 30.2307229,103.558765 C53.0560241,103.558765 73.9240964,112.004548 77.7228916,113.938283 C85.5578313,117.925632 77.5295181,125.034669 55.7771084,125.034669" id="Fill-4" fill-opacity="0.249950489" fill="#000000"></path>
                    <path d="M22.9036145,63.1123794 C25.7849398,65.1298493 19.3379518,65.9997288 17.7018072,65.3292469 C11.2921687,62.6937047 4.55722892,53.5388855 2.35481928,46.8912951 C1.88433735,45.4708132 1.71566265,43.5123794 2.98614458,42.8268373 C4.22891566,42.1557529 5.69819277,43.3063553 6.52108434,44.482259 C11.6728916,51.8431023 17.1078313,59.0527409 22.9036145,63.1123794" id="Fill-5" fill="#D7C8AC"></path>
                    <path d="M33.3373494,99.711777 C34.9018072,103.393102 37.1710843,108.465391 40.9066265,110.404548 C43.2018072,111.596114 45.9831325,111.080452 47.7307229,109.452741 C48.226506,108.991898 48.6584337,108.435271 48.8572289,107.762379 C49.0554217,107.089488 48.9927711,106.285271 48.5753012,105.661175 C48.0114458,104.819608 46.9584337,104.475632 46.2963855,103.709367 C44.8385542,102.02262 45.2572289,97.8364758 45.3650602,95.872018 C45.5295181,92.8810541 46.0427711,89.9581626 46.5156627,87.0370782 C46.8259036,85.1208132 47.1162651,83.182259 47.0186747,81.2003313 C46.7987952,76.7611746 44.6138554,72.4045481 41.6698795,68.8840662 C38.1524096,64.6774397 29.6981928,60.0533433 26.1879518,65.822018 C24.6524096,68.345512 25.7837349,71.9292469 26.3656627,74.7774397 C27.1710843,78.7196084 27.9975904,82.6623794 29.0036145,86.5756325 C30.1475904,91.0238252 31.5216867,95.4412951 33.3373494,99.711777" id="Fill-6" fill="#AA9A89"></path>
                    <path d="M72.0536145,73.0732228 C71.4566265,73.97503 71.0228916,75.0003313 70.7728916,76.0099698 C70.1512048,78.5214156 70.3096386,81.1021385 70.0825301,83.6575602 C69.473494,90.508765 66.1542169,95.1798493 65.5674699,95.7171987 C63.2060241,97.8768373 61.6572289,93.7804517 58.926506,95.1961144 C55.4108434,97.019006 56.4409639,105.653946 64.9885542,106.143705 C71.3090361,106.506958 77.0246988,97.5521385 79.2006024,91.9949096 C81.2620482,86.7304517 82.3379518,78.7310541 81.0614458,73.4515361 C80.4891566,71.0816566 78.5216867,69.7232228 75.6957831,70.3479216 C74.1692771,70.6858734 72.9343373,71.7443072 72.0536145,73.0732228" id="Fill-7" fill="#E4DCCC"></path>
                    <path d="M79.5192771,79.7184035 C81.2295181,76.5702108 81.6819277,72.1599698 79.8993976,68.8382831 C79.0554217,67.2665963 77.8006024,66.0647891 76.513253,65.0045481 C71.6289157,60.9828614 65.2355422,60.0039457 59.1337349,59.4196084 C52.9427711,58.8262349 45.9560241,57.6726204 39.7861446,56.785271 C28.9656627,55.2280421 18.6319277,58.9937047 17.4012048,61.1515361 C15.5168675,64.4557529 18.8698795,69.6280421 18.5126506,73.3214156 C18.0638554,77.9671987 17.4048193,83.7171987 22.9246988,85.4539457 C25.189759,86.1665963 27.6204819,86.0551505 29.9740964,86.372018 C32.2710843,86.682259 34.4138554,87.4497288 36.6066265,88.1581626 C38.5246988,88.7768373 40.5572289,88.6527409 42.473494,89.3196084 C48.2981928,91.3467168 56.4879518,91.6738252 62.7024096,91.1593674 C72.5728916,90.3431023 75.9090361,86.3647891 79.5192771,79.7184035" id="Fill-8" fill="#E4DCCC"></path>
                    <path d="M57.8096386,94.0503313 C56.1204819,94.6888855 54.8843373,96.2834638 54.4849398,98.0394879 C54.3771084,98.5123794 54.3240964,99.0021385 54.3891566,99.482259 C54.5240964,100.475632 55.1759036,101.363584 56.0349398,101.884066 C56.8939759,102.404548 57.9403614,102.575632 58.9391566,102.464187 C60.6222892,102.27503 62.2114458,101.254548 62.9963855,99.758765 C63.7114458,98.395512 63.8512048,96.1370782 62.6259036,95.0099698 C61.3584337,93.8449096 59.4192771,93.4424999 57.8096386,94.0503313" id="Fill-9" fill="#E4DCCC"></path>
                    <path d="M44.5668675,86.6503313 C40.4210843,85.7202108 36.3740964,84.3702108 32.2012048,83.5696084 C28.1704819,82.795512 23.7710843,82.6659939 19.6813253,83.2503313 C20.396988,84.2099698 21.4277108,84.9828614 22.9246988,85.4539457 C25.189759,86.1671987 27.6204819,86.0551505 29.9740964,86.372018 C32.2710843,86.6828614 34.4138554,87.4497288 36.6066265,88.1581626 C38.5246988,88.7768373 40.5572289,88.6527409 42.473494,89.3196084 C48.2981928,91.3467168 56.4879518,91.6738252 62.7024096,91.1599698 C69.0572289,90.6340662 72.7012048,88.7961144 75.4566265,85.7810541 C65.4451807,88.6262349 54.7222892,88.9280421 44.5668675,86.6503313" id="Fill-10" fill="#D7C8AC"></path>
                    <path d="M49.3981928,76.1412951 C49.3981928,76.1412951 50.1590361,91.2684035 59.2445783,115.702138 L48.7433735,119.079247 C48.7433735,119.079247 35.0849398,91.0292469 34.860241,68.6328614 L49.3981928,76.1412951" id="Fill-11" fill="#E4DCCC"></path>
                    <path d="M64.5445783,116.370211 C66.139759,120.990693 61.926506,122.622018 57.4668675,123.338283 C51.7168675,124.261777 49.8337349,122.767199 48.676506,119.9425 C47.523494,117.123223 50.136747,114.034066 54.5180723,113.046717 C58.9,112.060572 63.5560241,113.503946 64.5445783,116.370211" id="Fill-12" fill="#E4DCCC"></path>
                    <path d="M1.0560241,105.24491 C1.7626506,106.764187 2.86927711,108.202138 6.62228916,107.934066 C9.93554217,107.696717 10.3228916,105.896114 9.67951807,104.448524 C9.37710843,103.768404 8.94156627,103.750934 8.8746988,102.571416 C8.49939759,95.9214156 8.49096386,94.3599698 11.9493976,91.3214156 C12.9445783,90.4473192 14.9060241,91.1768373 16.1855422,91.2009337 C19.9873494,91.2744276 23.6433735,88.8424999 25.8463855,85.5943072 C28.3144578,81.9557529 29.8210843,77.4364758 30.3704819,73.032259 C30.8379518,69.285271 30.3373494,64.6533433 28.3650602,61.7412951 C26.2198795,58.5744276 21.2506024,58.722018 18.1837349,60.2943072 C15.4343373,61.7045481 13.0373494,64.07503 11.0072289,66.7461144 C0.00240963855,81.2244276 0.390361446,103.815391 1.0560241,105.24491" id="Fill-13" fill="#E4DCCC"></path>
                    <path d="M44.2831325,56.6304517 C43.3259036,59.2346686 43.2638554,63.822018 44.2373494,66.3780421 C45.1638554,68.811777 46.9289157,70.945512 48.546988,72.4702108 C52.1240964,75.8443072 56.5861446,77.3732228 60.8759036,77.6696084 C67.1644578,78.1057529 73.7060241,78.0557529 78.8349398,72.5786445 C81.3939759,69.8449096 83.55,67.0328614 84.0054217,62.4159939 C85.1987952,50.2991264 76.8686747,47.5678011 69.760241,45.8135843 C63.0668675,44.1641867 52.7927711,42.9792469 47.7590361,50.7400903 C46.6759036,52.4105722 45.0246988,54.6141867 44.2831325,56.6304517" id="Fill-14" fill="#F26200"></path>
                    <path d="M36.7638554,24.8774397 C38.0373494,14.8424999 51.386747,10.2015361 60.0144578,8.20575294 C61.5656627,7.84671679 63.4253012,7.61960836 65.4626506,7.52081318 C67.4921687,7.32141559 69.3644578,7.27442764 70.9536145,7.40274089 C79.7795181,8.11780113 93.6626506,10.7611746 96.386747,20.5033433 C98.5620482,28.2762349 95.6,36.7539457 92.9325301,44.8858734 C91.7138554,48.5991264 90.4301205,52.3497288 90.3355422,55.8653915 C90.053012,66.3063553 81.063253,73.1780421 71.3343373,73.2671987 C61.6054217,73.3569578 51.2903614,68.2141867 48.2427711,58.7714156 C47.163253,55.4238252 45.4873494,51.9912951 43.7403614,48.4949096 C39.9144578,40.8394879 35.7487952,32.8846686 36.7638554,24.8774397" id="Fill-15" fill="#E4DCCC"></path>
                    <path d="M47.786747,57.4449096 C46.7198795,54.5196084 45.2578313,51.5316566 43.7403614,48.4949096 C39.9144578,40.8394879 35.7487952,32.8846686 36.7638554,24.8774397 C37.2837349,20.7816566 39.8162651,17.585271 43.2156627,15.1003313 C49.1843373,19.9153915 57.8963855,19.2858734 63.6439759,24.9123794 C70.4036145,31.5298493 68.1096386,42.7069578 61.226506,48.1364758 C58.9349398,49.945512 56.0349398,50.3906927 53.6114458,51.9424999 C51.4674699,53.3165963 49.6903614,55.6370782 47.786747,57.4449096" id="Fill-16" fill="#D27352"></path>
                    <path d="M48.5415663,36.6123794 C48.8198795,40.4039457 50.7819277,43.3503313 52.9246988,43.1931023 C55.0680723,43.035271 56.5795181,39.8346686 56.3012048,36.0431023 C56.0228916,32.2521385 54.0608434,29.3057529 51.9174699,29.4629819 C49.7740964,29.6202108 48.2638554,32.8214156 48.5415663,36.6123794" id="Fill-17" fill="#0F0F0D"></path>
                    <path d="M78.6891566,34.4003313 C78.9674699,38.1918975 80.9301205,41.1382831 83.0722892,40.9810541 C85.2156627,40.8238252 86.7277108,37.6226204 86.4493976,33.8310541 C86.1710843,30.0400903 84.2084337,27.0937047 82.0650602,27.2509337 C79.9222892,27.4081626 78.4108434,30.6093674 78.6891566,34.4003313" id="Fill-18" fill="#0F0F0D"></path>
                    <path d="M109.536747,19.9653915 C109.424699,23.6081626 107.93494,26.5063553 103.778313,26.408765 C97.2620482,26.2545481 80.113253,13.9834638 78.5698795,12.8208132 C76.6283133,11.3563553 74.6319277,9.76177703 76.2885542,6.95213848 C78.1662651,3.77081318 83.5427711,2.22623487 86.8638554,1.15575294 C100.979518,-3.39424706 109.962651,6.02984932 109.536747,19.9653915" id="Fill-19" fill="#A5775D"></path>
                    <path d="M23.6771084,26.2653915 C24.3204819,29.8527409 26.2174699,32.5027409 30.3150602,31.7991264 C36.739759,30.695512 51.9138554,16.0521385 53.2704819,14.6768373 C54.9777108,12.9449096 56.7174699,11.0762349 54.6686747,8.53828306 C52.3487952,5.66539149 46.8042169,4.922018 43.360241,4.34792161 C28.7325301,1.90695776 21.2204819,12.5406927 23.6771084,26.2653915" id="Fill-20" fill="#A5775D"></path>
                    <path d="M74.8012048,65.0876806 C74.5433735,65.1882831 74.3138554,65.5069578 74.0843373,65.62503 C73.2891566,66.0328614 72.2301205,66.1473192 71.3506024,66.169006 C70.4180723,66.1924999 69.4801205,66.0605722 68.5921687,65.7738252 C68.2421687,65.6599698 66.4295181,65.0653915 66.3861446,64.6467168 C66.6210843,66.8846686 68.2759036,68.848524 70.3572289,69.7039457 C72.4385542,70.5593674 74.8644578,70.3768373 76.9216867,69.4647891 C78.9795181,68.5527409 80.6861446,66.9605722 81.9861446,65.1232228 C81.4126506,65.9328614 78.910241,66.0358734 78.0343373,66.0045481 C77.4301205,65.9828614 76.676506,65.9340662 76.1108434,65.7069578 C75.7596386,65.5659939 75.3343373,65.0509337 74.9481928,65.0563553 L74.8012048,65.0876806" id="Fill-21" fill="#AC3C4A"></path>
                    <path d="M69.8331325,51.2226204 C70.9728916,50.3792469 72.9819277,49.8467168 75.113253,49.7141867 L75.1216867,49.7135843 L75.1307229,49.7129819 C77.2590361,49.5328614 79.3222892,49.7671987 80.5740964,50.4346686 C86.5319277,53.6196084 81.5566265,59.3045481 75.8963855,60.1533433 L75.8963855,60.1551505 L75.889759,60.1551505 L75.8801205,60.1563553 L75.8801205,60.1545481 C70.1566265,60.1412951 64.403012,55.2437047 69.8331325,51.2226204" id="Fill-22" fill="#4D3422"></path>
                    <path d="M75.4548193,66.0810541 C75.8801205,66.1328614 76.2692771,65.8075602 76.3246988,65.3545481 L77.2036145,58.161777 C77.2590361,57.708765 76.9596386,57.2991264 76.5343373,57.2467168 C76.1084337,57.1949096 75.7192771,57.5202108 75.663253,57.9732228 L74.7843373,65.1671987 C74.7295181,65.6196084 75.0289157,66.0292469 75.4548193,66.0810541" id="Fill-23" fill="#4D3422"></path>
                    <path d="M65.8506024,63.3310541 C66.1987952,63.0708132 66.6843373,63.1629819 66.9325301,63.5388855 C67.6355422,64.6009337 69.886747,65.6286445 71.0042169,65.7756325 C72.6222892,65.9882831 73.8162651,65.472018 75.0674699,64.6159939 L75.0626506,64.5479216 L75.1259036,64.5774397 L75.1825301,64.5400903 L75.186747,64.6069578 C76.55,65.2714156 77.8072289,65.6075602 79.3759036,65.161777 C80.460241,64.8527409 82.5379518,63.5081626 83.0783133,62.3539457 C83.2686747,61.9461144 83.7349398,61.7840662 84.1180723,61.9906927 C84.5018072,62.1973192 84.6584337,62.6943072 84.4686747,63.1015361 C83.6331325,64.8870782 81.0192771,66.408765 79.7903614,66.7581626 C79.3138554,66.8943072 78.8614458,66.9732228 78.4295181,67.0051505 C77.2391566,67.0924999 76.2090361,66.8165963 75.2608434,66.4232228 C74.3801205,66.9509337 73.4012048,67.3738252 72.2108434,67.4611746 C71.7783133,67.4931023 71.3186747,67.4816566 70.8277108,67.4159939 C69.5614458,67.2497288 66.753012,66.1262349 65.6668675,64.4810541 C65.4192771,64.1063553 65.5006024,63.5912951 65.8506024,63.3310541" id="Fill-24" fill="#4D3422"></path>
                </g>
            </g>
        </g>
    </g>
</svg>