<?xml version="1.0" encoding="UTF-8"?>
<svg width="182px" height="208px" viewBox="0 0 182 208" version="1.1" xmlns="http://www.w3.org/2000/svg" xmlns:xlink="http://www.w3.org/1999/xlink">
    <title>walking</title>
    <g id="Dog-states" stroke="none" stroke-width="1" fill="none" fill-rule="evenodd">
        <g id="for-markdown-descriptions" transform="translate(-48.000000, -38.000000)">
            <g id="walking" transform="translate(48.000000, 38.000000)">
                <path d="M92.59,207.55755 C91.813,207.55755 91.031,207.55155 90.233,207.54055 C39.895,206.84255 0,187.14255 0,180.39355 C0,173.64355 12.284,171.90755 50.183,171.90755 C88.073,171.90755 122.714,185.92755 129.02,189.13755 C142.026,195.75655 128.699,207.55755 92.59,207.55755" id="Fill-4" fill-opacity="0.249950489" fill="#000000"></path>
                <path d="M38.02,104.76655 C42.803,108.11555 32.101,109.55955 29.385,108.44655 C18.745,104.07155 7.565,88.8745499 3.909,77.8395499 C3.128,75.4815499 2.848,72.2305499 4.957,71.0925499 C7.02,69.9785499 9.459,71.8885499 10.825,73.8405499 C19.377,86.0595499 28.399,98.0275499 38.02,104.76655" id="Fill-5" fill="#E4E4DF"></path>
                <path d="M55.34,165.52155 C57.937,171.63255 61.704,180.05255 67.905,183.27155 C71.715,185.24955 76.332,184.39355 79.233,181.69155 C80.056,180.92655 80.773,180.00255 81.103,178.88555 C81.432,177.76855 81.328,176.43355 80.635,175.39755 C79.699,174.00055 77.951,173.42955 76.852,172.15755 C74.432,169.35755 75.127,162.40855 75.306,159.14755 C75.579,154.18255 76.431,149.33055 77.216,144.48155 C77.731,141.30055 78.213,138.08255 78.051,134.79255 C77.686,127.42355 74.059,120.19155 69.172,114.34755 C63.333,107.36455 49.299,99.6885499 43.472,109.26455 C40.923,113.45355 42.801,119.40255 43.767,124.13055 C45.104,130.67455 46.476,137.21955 48.146,143.71555 C50.045,151.09955 52.326,158.43255 55.34,165.52155" id="Fill-6" fill="#C6C1BB"></path>
                <path d="M119.609,121.30155 C118.618,122.79855 117.898,124.50055 117.483,126.17655 C116.451,130.34555 116.714,134.62955 116.337,138.87155 C115.326,150.24455 109.816,157.99855 108.842,158.89055 C104.922,162.47555 102.351,155.67555 97.818,158.02555 C91.982,161.05155 93.692,175.38555 107.881,176.19855 C118.373,176.80155 127.861,161.93655 131.473,152.71155 C134.895,143.97255 136.681,130.69355 134.562,121.92955 C133.612,117.99555 130.346,115.74055 125.655,116.77755 C123.121,117.33855 121.071,119.09555 119.609,121.30155" id="Fill-7" fill="#FFFFFE"></path>
                <path d="M132.002,132.33255 C134.841,127.10655 135.592,119.78555 132.633,114.27155 C131.232,111.66255 129.149,109.66755 127.012,107.90755 C118.904,101.23155 108.291,99.6065499 98.162,98.6365499 C87.885,97.6515499 76.287,95.7365499 66.045,94.2635499 C48.083,91.6785499 30.929,97.9295499 28.886,101.51155 C25.758,106.99655 31.324,115.58255 30.731,121.71355 C29.986,129.42555 28.892,138.97055 38.055,141.85355 C41.815,143.03655 45.85,142.85155 49.757,143.37755 C53.57,143.89255 57.127,145.16655 60.767,146.34255 C63.951,147.36955 67.325,147.16355 70.506,148.27055 C80.175,151.63555 93.77,152.17855 104.086,151.32455 C120.471,149.96955 126.009,143.36555 132.002,132.33255" id="Fill-8" fill="#FFFFFE"></path>
                <path d="M95.964,156.12355 C93.16,157.18355 91.108,159.83055 90.445,162.74555 C90.266,163.53055 90.178,164.34355 90.286,165.14055 C90.51,166.78955 91.592,168.26355 93.018,169.12755 C94.444,169.99155 96.181,170.27555 97.839,170.09055 C100.633,169.77655 103.271,168.08255 104.574,165.59955 C105.761,163.33655 105.993,159.58755 103.959,157.71655 C101.855,155.78255 98.636,155.11455 95.964,156.12355" id="Fill-9" fill="#FFFFFE"></path>
                <path d="M73.981,143.83955 C67.099,142.29555 60.381,140.05455 53.454,138.72555 C46.763,137.44055 39.46,137.22555 32.671,138.19555 C33.859,139.78855 35.57,141.07155 38.055,141.85355 C41.815,143.03755 45.85,142.85155 49.757,143.37755 C53.57,143.89355 57.127,145.16655 60.767,146.34255 C63.951,147.36955 67.325,147.16355 70.506,148.27055 C80.175,151.63555 93.77,152.17855 104.086,151.32555 C114.635,150.45255 120.684,147.40155 125.258,142.39655 C108.639,147.11955 90.839,147.62055 73.981,143.83955" id="Fill-10" fill="#E4E4DF"></path>
                <path d="M82.001,126.39455 C82.001,126.39455 83.264,151.50555 98.346,192.06555 L80.914,197.67155 C80.914,197.67155 58.241,151.10855 57.868,113.93055 L82.001,126.39455" id="Fill-11" fill="#FFFFFE"></path>
                <path d="M107.144,193.17455 C109.792,200.84455 102.798,203.55255 95.395,204.74155 C85.85,206.27455 82.724,203.79355 80.803,199.10455 C78.889,194.42455 83.227,189.29655 90.5,187.65755 C97.774,186.02055 105.503,188.41655 107.144,193.17455" id="Fill-12" fill="#FFFFFE"></path>
                <path d="M1.753,174.70655 C2.926,177.22855 4.763,179.61555 10.993,179.17055 C16.493,178.77655 17.136,175.78755 16.068,173.38455 C15.566,172.25555 14.843,172.22655 14.732,170.26855 C14.109,159.22955 14.095,156.63755 19.836,151.59355 C21.488,150.14255 24.744,151.35355 26.868,151.39355 C33.179,151.51555 39.248,147.47855 42.905,142.08655 C47.002,136.04655 49.503,128.54455 50.415,121.23355 C51.191,115.01355 50.36,107.32455 47.086,102.49055 C43.525,97.2335499 35.276,97.4785499 30.185,100.08855 C25.621,102.42955 21.642,106.36455 18.272,110.79855 C0.004,134.83255 0.648,172.33355 1.753,174.70655" id="Fill-13" fill="#FFFFFE"></path>
                <path d="M73.51,94.0065499 C71.921,98.3295499 71.818,105.94455 73.434,110.18755 C74.972,114.22755 77.902,117.76955 80.588,120.30055 C86.526,125.90155 93.933,128.43955 101.054,128.93155 C111.493,129.65555 122.352,129.57255 130.866,120.48055 C135.114,115.94255 138.693,111.27455 139.449,103.61055 C141.43,83.4965499 127.602,78.9625499 115.802,76.0505499 C104.691,73.3125499 87.636,71.3455499 79.28,84.2285499 C77.482,87.0015499 74.741,90.6595499 73.51,94.0065499" id="Fill-14" fill="#F26200"></path>
                <path d="M61.028,41.2965499 C63.142,24.6385499 85.302,16.9345499 99.624,13.6215499 C102.199,13.0255499 105.286,12.6485499 108.668,12.4845499 C112.037,12.1535499 115.145,12.0755499 117.783,12.2885499 C132.434,13.4755499 155.48,17.8635499 160.002,34.0355499 C163.613,46.9385499 158.696,61.0115499 154.268,74.5105499 C152.245,80.6745499 150.114,86.9005499 149.957,92.7365499 C149.488,110.06855 134.565,121.47555 118.415,121.62355 C102.265,121.77255 85.142,113.23555 80.083,97.5605499 C78.291,92.0035499 75.509,86.3055499 72.609,80.5015499 C66.258,67.7935499 59.343,54.5885499 61.028,41.2965499" id="Fill-15" fill="#FFFFFE"></path>
                <path d="M79.326,95.3585499 C77.555,90.5025499 75.128,85.5425499 72.609,80.5015499 C66.258,67.7935499 59.343,54.5885499 61.028,41.2965499 C61.891,34.4975499 66.095,29.1915499 71.738,25.0665499 C81.646,33.0595499 96.108,32.0145499 105.649,41.3545499 C116.87,52.3395499 113.062,70.8935499 101.636,79.9065499 C97.832,82.9095499 93.018,83.6485499 88.995,86.2245499 C85.436,88.5055499 82.486,92.3575499 79.326,95.3585499" id="Fill-16" fill="#D27352"></path>
                <path d="M80.579,60.7765499 C81.041,67.0705499 84.298,71.9615499 87.855,71.7005499 C91.413,71.4385499 93.922,66.1255499 93.46,59.8315499 C92.998,53.5385499 89.741,48.6475499 86.183,48.9085499 C82.625,49.1695499 80.118,54.4835499 80.579,60.7765499" id="Fill-17" fill="#0F0F0D"></path>
                <path d="M130.624,57.1045499 C131.086,63.3985499 134.344,68.2895499 137.9,68.0285499 C141.458,67.7675499 143.968,62.4535499 143.506,56.1595499 C143.044,49.8665499 139.786,44.9755499 136.228,45.2365499 C132.671,45.4975499 130.162,50.8115499 130.624,57.1045499" id="Fill-18" fill="#0F0F0D"></path>
                <path d="M181.831,33.1425499 C181.645,39.1895499 179.172,44.0005499 172.272,43.8385499 C161.455,43.5825499 132.988,23.2125499 130.426,21.2825499 C127.203,18.8515499 123.889,16.2045499 126.639,11.5405499 C129.756,6.25954988 138.681,3.69554988 144.194,1.91854988 C167.626,-5.63445012 182.538,10.0095499 181.831,33.1425499" id="Fill-19" fill="#A5775D"></path>
                <path d="M39.304,43.6005499 C40.372,49.5555499 43.521,53.9545499 50.323,52.7865499 C60.988,50.9545499 86.177,26.6465499 88.429,24.3635499 C91.263,21.4885499 94.151,18.3865499 90.75,14.1735499 C86.899,9.40454988 77.695,8.17054988 71.978,7.21754988 C47.696,3.16554988 35.226,20.8175499 39.304,43.6005499" id="Fill-20" fill="#A5775D"></path>
                <path d="M124.17,108.04555 C123.742,108.21255 123.361,108.74155 122.98,108.93755 C121.66,109.61455 119.902,109.80455 118.442,109.84055 C116.894,109.87955 115.337,109.66055 113.863,109.18455 C113.282,108.99555 110.273,108.00855 110.201,107.31355 C110.591,111.02855 113.338,114.28855 116.793,115.70855 C120.248,117.12855 124.275,116.82555 127.69,115.31155 C131.106,113.79755 133.939,111.15455 136.097,108.10455 C135.145,109.44855 130.991,109.61955 129.537,109.56755 C128.534,109.53155 127.283,109.45055 126.344,109.07355 C125.761,108.83955 125.055,107.98455 124.414,107.99355 L124.17,108.04555" id="Fill-21" fill="#AC3C4A"></path>
                <path d="M115.923,85.0295499 C117.815,83.6295499 121.15,82.7455499 124.688,82.5255499 L124.702,82.5245499 L124.717,82.5235499 C128.25,82.2245499 131.675,82.6135499 133.753,83.7215499 C143.643,89.0085499 135.384,98.4455499 125.988,99.8545499 L125.988,99.8575499 L125.977,99.8575499 L125.961,99.8595499 L125.961,99.8565499 C116.46,99.8345499 106.909,91.7045499 115.923,85.0295499" id="Fill-22" fill="#4D3422"></path>
                <path d="M125.255,109.69455 C125.961,109.78055 126.607,109.24055 126.699,108.48855 L128.158,96.5485499 C128.25,95.7965499 127.753,95.1165499 127.047,95.0295499 C126.34,94.9435499 125.694,95.4835499 125.601,96.2355499 L124.142,108.17755 C124.051,108.92855 124.548,109.60855 125.255,109.69455" id="Fill-23" fill="#4D3422"></path>
                <path d="M109.312,105.12955 C109.89,104.69755 110.696,104.85055 111.108,105.47455 C112.275,107.23755 116.012,108.94355 117.867,109.18755 C120.553,109.54055 122.535,108.68355 124.612,107.26255 L124.604,107.14955 L124.709,107.19855 L124.803,107.13655 L124.81,107.24755 C127.073,108.35055 129.16,108.90855 131.764,108.16855 C133.564,107.65555 137.013,105.42355 137.91,103.50755 C138.226,102.83055 139,102.56155 139.636,102.90455 C140.273,103.24755 140.533,104.07255 140.218,104.74855 C138.831,107.71255 134.492,110.23855 132.452,110.81855 C131.661,111.04455 130.91,111.17555 130.193,111.22855 C128.217,111.37355 126.507,110.91555 124.933,110.26255 C123.471,111.13855 121.846,111.84055 119.87,111.98555 C119.152,112.03855 118.389,112.01955 117.574,111.91055 C115.472,111.63455 110.81,109.76955 109.007,107.03855 C108.596,106.41655 108.731,105.56155 109.312,105.12955" id="Fill-24" fill="#4D3422"></path>
            </g>
        </g>
    </g>
</svg>